<svg xmlns="http://www.w3.org/2000/svg" width="1073.5" height="250.664" viewBox="0 0 1073.5 250.664">
  <g id="SB_Remit_Logo" data-name="SB Remit Logo" transform="translate(0 1.434)">
    <path id="Union_2" data-name="Union 2" d="M87.164,243.842a277.338,277.338,0,0,1-31.3-2.115,163.2,163.2,0,0,1-46.38-12.175c-7.583-3.3-10.5-8.123-9.178-15.176q.5-2.683.975-5.335A235.673,235.673,0,0,1,7.016,183.08c2.248-7.588,4.591-10.276,8.953-10.276a26.119,26.119,0,0,1,8.217,1.859c3.229,1.167,6.475,2.4,9.614,3.6,11.6,4.417,23.59,8.985,36.286,10.67a87.5,87.5,0,0,0,26.589.663c6.559-1.176,13.536-3.61,15.552-12.744,1.553-7.015-1.948-12.415-10.7-16.508-8.479-3.968-17.324-7.6-25.877-11.11l-.073-.03c-3.317-1.362-6.747-2.771-10.1-4.177-2.479-1.042-5.095-2.088-7.4-3.012l-.052-.021c-4.057-1.626-8.252-3.307-12.285-5.147-16.007-7.321-27.064-16.415-33.8-27.8S2.53,83.575,3.779,65.974C4.894,51.383,9.791,38.7,18.334,28.27,26.913,17.8,38.771,10.1,53.579,5.374A99.546,99.546,0,0,1,84.006.612c.371,0,.74,0,1.111.006H190.333q8.223,0,16.449.013l2.408,0q9.432.012,18.862.016c21.261,0,44.14-.079,67.4-.648h.406a99.2,99.2,0,0,1,39.454,8.135A59.172,59.172,0,0,1,358.527,99.22c-1.928,2.451-4.931,4.11-7.835,5.713-4.775,2.637-9.286,5.128-8.339,10.746.749,4.4,5.412,6.286,10.348,8.281a34.983,34.983,0,0,1,8.154,4.134c12.351,9.2,19.567,29.415,17.954,50.294-1.75,22.667-13.114,41.142-31.178,50.688A108.1,108.1,0,0,1,310.34,240.3a315.429,315.429,0,0,1-44.881,3.22,315.315,315.315,0,0,1-47.446-3.6c-9.388-1.57-14.167-3.507-17.045-6.91-2.9-3.425-4.026-8.5-4.026-18.109-.222-43.209-.222-87.028,0-130.238.049-9.1.61-14.245,3.54-17.109,2.891-2.824,8.061-3.341,17.2-3.341,3,0,6.024-.043,8.946-.085s5.932-.085,8.923-.085c3.327,0,6.241.056,8.908.17,6.248.332,9.521,1.259,11.673,3.3,2.134,2.029,3.276,5.276,4.073,11.581a39.654,39.654,0,0,1,.341,5.876,39.166,39.166,0,0,0,.228,4.779c.3,2.234,1.382,6.04,5.184,6.422.431.043.862.088,1.294.132l.714.073a125.573,125.573,0,0,0,12.821.887c8.1,0,14.374-1.708,19.753-5.374a22.021,22.021,0,0,0-3.566-38.053,47.717,47.717,0,0,0-17.5-3.312c-1.167,0-2.337.043-3.478.127H95.866c-.825-.049-1.654-.074-2.463-.074A41.171,41.171,0,0,0,80.074,52.8a15.247,15.247,0,0,0-11.036,12.8,13.543,13.543,0,0,0,8.613,14.269C87.371,84.2,97.26,88.49,107.043,92.61c3.767,1.589,7.738,3.156,11.24,4.538l.041.016c7.169,2.832,14.582,5.76,21.541,9.239,13.892,6.947,24.133,16.218,30.44,27.559,6.283,11.3,8.844,24.974,7.613,40.653a68.732,68.732,0,0,1-47.993,62.356C117.227,241.6,103.24,243.842,87.164,243.842Zm190.223-103.8c-.907,0-1.838.013-2.767.038-14.273.382-14.273.382-14.273,23.019v4.761c.137,4.5.046,8.268-.028,11.3-.148,6.111-.237,9.8,1.718,11.8,1.63,1.67,4.666,2.291,11.2,2.291,3.459,0,7.814-.168,13.328-.381l.129,0,2.1-.081c7.528-.266,13.854-3.029,18.3-7.988,4.633-5.173,6.852-12.472,6.247-20.552-.606-8.028-3.938-14.134-9.9-18.151S288.707,140.043,277.387,140.043Z" transform="translate(0 5.388)" fill="#007b5d"/>
    <g id="Group_145" data-name="Group 145" transform="translate(432.73 -1.434)">
      <path id="Path_98" data-name="Path 98" d="M128.245,130.155H95.326L85.163,95.91a91.244,91.244,0,0,0-6.186-16.46,21.931,21.931,0,0,0-8.4-8.948q-5.3-3.093-14.14-3.093H34.127v62.746H2.975V-24.5H65.5q28.28,0,41.757,11.157t13.477,34.8q0,15.245-8.064,24.524t-22.2,11.931a30.61,30.61,0,0,1,17.012,13.035q5.744,9.279,10.6,25.187ZM66.383,43.106q10.163,0,16.681-5.413t6.518-16.239q0-10.826-6.518-16.239T66.383-.2H34.127v43.3ZM201.6,130.155q-29.384,0-42.2-12.372T146.583,81.991V23.664q0-23.419,12.814-35.791T201.6-24.5h51.7V-.2H201.6q-12.151,0-18.006,5.744t-5.855,18.117V40.676h65.839v24.3H177.735V81.991q0,12.151,5.855,18.006t18.006,5.855h52.141v24.3ZM280.249-24.5h16.128q12.151,0,19.442,3.314a32.17,32.17,0,0,1,12.593,10.494q5.3,7.18,12.372,21.541L353.6,36.7,366.413,10.85q7.07-14.361,12.372-21.541a32.17,32.17,0,0,1,12.593-10.494Q398.67-24.5,410.821-24.5h16.128V130.155H398.67V7.977a5.289,5.289,0,0,0-4.419,2.43q-1.768,2.43-5.3,8.616L353.6,84.642l-35.35-65.618q-3.535-6.186-5.3-8.616a5.938,5.938,0,0,0-4.419-2.651v122.4h-28.28ZM565.476-.2H518.858V-24.5H643.245V-.2H596.628V130.155H565.476Z" transform="translate(-2.975 87.217)" fill="#007b5d" stroke="#007b5d" stroke-width="1"/>
      <g id="Diagonal_Flag_Cameroon_Emblem" transform="translate(452.594 0)">
        <path id="Union_3" data-name="Union 3" d="M22.48,32.97,8.586,43.158l5.306-16.485L0,16.485H17.172L22.478,0l5.307,16.485H44.956L31.065,26.673l5.307,16.485Z" transform="translate(0)" fill="#fcd20f"/>
      </g>
      <path id="Path_99" data-name="Path 99" d="M76.09-24.5h31.152V130.155H76.09Z" transform="translate(385.443 87.217)" fill="#cf0921" stroke="#cf0921" stroke-width="1"/>
    </g>
  </g>
</svg>
