<svg width="134" height="31" viewBox="0 0 134 31" fill="none" xmlns="http://www.w3.org/2000/svg">
<g clip-path="url(#clip0_96_32)">
<path d="M10.9811 31.0006C9.6622 30.9864 8.34518 30.8989 7.03624 30.7385C5.02544 30.5219 3.05756 30.0152 1.19529 29.2342C0.235995 28.8247 -0.128325 28.2285 0.0384576 27.3544C0.0822233 27.1251 0.124806 26.894 0.160292 26.698C0.340768 25.6141 0.582049 24.5409 0.883018 23.4836C1.16631 22.5475 1.46144 22.214 2.01028 22.214C2.36547 22.2351 2.71493 22.3125 3.04528 22.4433C3.45928 22.5896 3.86796 22.7429 4.26422 22.8915H4.26836C5.73153 23.5019 7.26103 23.9432 8.8265 24.2067C9.9321 24.4014 11.0611 24.4292 12.1752 24.2892C13.0032 24.1435 13.8797 23.8422 14.1352 22.713C14.1929 22.4938 14.1983 22.2644 14.1511 22.0427C14.1039 21.8211 14.0053 21.6133 13.8631 21.4358C13.5696 21.1014 13.2012 20.8394 12.7873 20.6706C11.7269 20.1838 10.6221 19.7391 9.55336 19.3091L9.5439 19.305C9.12399 19.1359 8.67746 18.954 8.24571 18.7784C7.93344 18.6497 7.61229 18.5233 7.329 18.4116C6.8115 18.208 6.27685 17.9974 5.75994 17.768C4.01452 17.0865 2.52642 15.8851 1.50165 14.3301C0.607727 12.7043 0.248812 10.8432 0.474932 9.00599C0.576627 7.30026 1.21803 5.66937 2.30836 4.34414C3.47676 2.99183 5.01977 2.00744 6.74703 1.5124C7.98556 1.123 9.27756 0.925643 10.5771 0.927325H23.9724H26.266H26.4854H28.5631C31.3014 0.93025 34.2431 0.920889 37.2115 0.85068H37.2748C38.9794 0.849514 40.6664 1.1913 42.2333 1.85525C43.2841 2.29368 44.2185 2.96608 44.9636 3.82012C45.7088 4.67416 46.2446 5.6868 46.5295 6.77921C46.8111 7.86898 46.8336 9.0085 46.5951 10.1083C46.3566 11.2081 45.8637 12.2383 45.155 13.1179C44.8761 13.4144 44.5414 13.6543 44.1697 13.824C43.5676 14.1511 43.0004 14.4589 43.1193 15.1539C43.2128 15.6986 43.8006 15.9315 44.4234 16.1784C44.7864 16.3035 45.1315 16.4746 45.4501 16.6874C46.2968 17.3564 46.9237 18.2588 47.2516 19.2804C47.6576 20.4449 47.8143 21.6802 47.7118 22.9079C47.6218 24.1613 47.2504 25.3791 46.6247 26.4727C45.9602 27.6244 44.9747 28.5625 43.7859 29.1751C42.3177 29.9136 40.7269 30.3837 39.0899 30.5629C37.2181 30.8275 35.3296 30.9605 33.4388 30.9608C31.4379 30.9603 29.4398 30.8117 27.4612 30.5161C26.2784 30.3213 25.6769 30.0814 25.3143 29.6613C24.9518 29.2413 24.8069 28.6082 24.8069 27.4229C24.7791 22.0788 24.7791 16.6611 24.8069 11.3188C24.8128 10.1931 24.8838 9.55713 25.2534 9.20199C25.6231 8.84685 26.2689 8.78893 27.4204 8.78893C27.7942 8.78893 28.1739 8.78366 28.5412 8.7784H28.5731C28.9327 8.77371 29.3047 8.76845 29.6702 8.76845C30.0901 8.76845 30.4574 8.77547 30.7939 8.78893C31.3172 8.74863 31.838 8.8938 32.263 9.19848C32.5948 9.60361 32.7754 10.1094 32.7746 10.6307C32.8077 10.8676 32.8227 11.1066 32.8196 11.3457V11.3632C32.817 11.5587 32.8265 11.754 32.848 11.9483C32.8858 12.2245 33.0218 12.6943 33.4985 12.7428L33.6837 12.7616L33.7588 12.7692C34.293 12.8321 34.8301 12.8684 35.368 12.878C36.2471 12.9167 37.1166 12.6846 37.8568 12.2139C38.2558 11.9392 38.5738 11.5645 38.7782 11.1282C38.9827 10.6919 39.0663 10.2097 39.0205 9.73089C38.9746 9.25212 38.801 8.79401 38.5173 8.40346C38.2336 8.01291 37.8502 7.70394 37.4061 7.50821C36.7035 7.23642 35.9556 7.0975 35.2013 7.09866C35.0569 7.09866 34.9097 7.10392 34.7648 7.11387H12.074C11.9705 7.10743 11.8658 7.10451 11.7618 7.10451C11.1911 7.1047 10.6243 7.19719 10.0839 7.37832C9.72017 7.47705 9.3941 7.67999 9.14669 7.96159C8.89927 8.24319 8.74158 8.59089 8.69343 8.96094C8.64834 9.33244 8.7307 9.70816 8.92728 10.0278C9.12387 10.3475 9.42329 10.5926 9.77751 10.7238C10.9722 11.2503 12.2177 11.7769 13.4799 12.2999C13.953 12.4965 14.4415 12.6861 14.9141 12.8686L14.9212 12.8716C15.8178 13.2191 16.744 13.5783 17.6139 14.0054C19.2128 14.729 20.5505 15.9179 21.4482 17.4135C22.2687 18.9562 22.6028 20.7068 22.4075 22.4392C22.3265 24.1804 21.7014 25.8538 20.6184 27.2286C19.536 28.6129 18.0494 29.6342 16.3601 30.154C14.631 30.7452 12.8103 31.0318 10.9811 31.0006ZM34.9369 18.1688C34.8222 18.1688 34.7045 18.1688 34.5874 18.1735C32.7912 18.2203 32.7912 18.2203 32.7912 21.0187V21.6078C32.8083 22.1461 32.7971 22.6025 32.7912 22.9693V23.005C32.7723 23.7603 32.7598 24.2155 33.0065 24.4642C33.2123 24.6713 33.5979 24.7479 34.4223 24.7479C34.8955 24.7479 35.5124 24.7239 36.2895 24.6941L36.3758 24.6906C36.8083 24.6901 37.236 24.6021 37.6327 24.4318C38.0294 24.2616 38.3867 24.0127 38.6824 23.7006C38.9806 23.3521 39.204 22.9472 39.339 22.5106C39.474 22.074 39.5179 21.6147 39.4678 21.1608C39.4548 20.7158 39.3349 20.2801 39.1181 19.8899C38.9013 19.4997 38.5939 19.166 38.2211 18.9165C37.2223 18.3589 36.0816 18.0992 34.9369 18.1688Z" fill="white"/>
<path d="M68.8399 26.8524H64.694L63.4142 22.592C63.2218 21.8861 62.961 21.2004 62.6352 20.5442C62.3967 20.0817 62.0299 19.6961 61.5778 19.4326C61.0286 19.152 60.4144 19.0192 59.797 19.0476H56.9859V26.8524H53.0624V7.60945H60.9373C63.3116 7.60945 65.0646 8.07224 66.1962 8.99782C67.3278 9.92341 67.8936 11.3666 67.8936 13.3274C67.9478 14.4336 67.586 15.5205 66.8782 16.3785C66.1469 17.1777 65.1588 17.7021 64.0813 17.8628C64.9702 18.1308 65.7313 18.7073 66.2246 19.4864C66.8004 20.4716 67.2491 21.5244 67.5601 22.62L68.8399 26.8524ZM61.0484 16.0216C61.8075 16.0525 62.5527 15.8136 63.1492 15.3482C63.4328 15.0956 63.6542 14.7822 63.7965 14.4319C63.9388 14.0817 63.9982 13.7038 63.9701 13.3274C63.9982 12.9509 63.9388 12.573 63.7965 12.2228C63.6542 11.8725 63.4328 11.5591 63.1492 11.3065C62.5527 10.8411 61.8075 10.6022 61.0484 10.6331H56.9859V16.021L61.0484 16.0216ZM78.0786 26.8524C75.6112 26.8524 73.8395 26.3393 72.7635 25.3131C71.6875 24.2869 71.1496 22.8024 71.15 20.8596V13.6047C71.15 11.6618 71.688 10.1773 72.7641 9.15111C73.8401 8.1249 75.6116 7.61101 78.0786 7.60945H84.5903V10.6337H78.0786C77.2569 10.567 76.4418 10.824 75.8105 11.3486C75.5414 11.6565 75.3375 12.0146 75.2108 12.4018C75.0841 12.789 75.0373 13.1975 75.073 13.6029V15.7197H83.366V18.7434H75.0736V20.8601C75.0401 21.2633 75.0881 21.669 75.2147 22.0536C75.3414 22.4382 75.5441 22.794 75.8111 23.1004C76.1216 23.3643 76.4819 23.5646 76.8713 23.6896C77.2607 23.8147 77.6712 23.862 78.0792 23.8288H84.6441V26.8524H78.0786ZM87.9851 7.60945H90.0166C90.8527 7.57563 91.6867 7.71513 92.4651 8.019C93.099 8.31152 93.6454 8.76141 94.0513 9.32488C94.6458 10.1735 95.1671 11.0701 95.6098 12.0051L97.2238 15.223L98.8378 12.0051C99.2804 11.0701 99.8018 10.1735 100.396 9.32488C100.802 8.76149 101.348 8.31161 101.982 8.019C102.76 7.71513 103.594 7.57563 104.43 7.60945H106.462V26.8524H102.9V11.6505C102.789 11.6512 102.68 11.6792 102.583 11.732C102.486 11.7848 102.404 11.8608 102.344 11.953C102.196 12.1547 101.973 12.512 101.676 13.0249L97.2238 21.1895L92.7715 13.0249C92.4746 12.5116 92.252 12.1543 92.1038 11.953C92.042 11.8602 91.9599 11.7824 91.8636 11.7252C91.7672 11.6681 91.6591 11.6332 91.5472 11.623V26.8524H87.9851V7.60945ZM123.91 10.6337H118.038V7.60945H133.704V10.6337H127.834V26.8524H123.91L123.91 10.6337Z" fill="white"/>
<path d="M112.897 4.10778L111.147 5.37739L111.815 3.3232L110.066 2.05418H112.229L112.897 0L113.566 2.05418H115.728L113.979 3.3232L114.647 5.37739L112.897 4.10778Z" fill="#FCD20F"/>
<path d="M111.193 7.5831H115.116V26.8524H111.193V7.5831Z" fill="#CF0921" stroke="#CF0921"/>
</g>
<defs>
<clipPath id="clip0_96_32">
<rect width="134" height="31" fill="white"/>
</clipPath>
</defs>
</svg>
