<svg width="545" height="412" viewBox="0 0 545 412" fill="none" xmlns="http://www.w3.org/2000/svg">
<ellipse cx="272.5" cy="235.5" rx="237.5" ry="176.5" fill="#007B5D" fill-opacity="0.05"/>
<g clip-path="url(#clip0_319_1091)">
<path d="M364.585 330.601C364.271 329.379 363.671 328.249 362.836 327.302C362.001 326.356 360.955 325.621 359.781 325.157C358.58 324.759 357.272 324.836 356.125 325.373C354.979 325.909 354.081 326.864 353.617 328.042C351.412 326.205 348.051 327.661 346.281 329.92C343.423 333.568 345.642 339.543 346.118 339.924C346.712 340.204 347.369 340.322 348.023 340.264L369.389 340.155C371.33 340.03 373.252 339.692 375.119 339.148C378.766 337.692 381.243 331.417 378.902 328.26C377.296 326.109 374.153 325.66 371.608 326.463C369.01 327.37 366.622 328.792 364.585 330.642" fill="#6CDD6C"/>
<path d="M347.71 340.918C346.993 340.959 346.28 340.778 345.669 340.4C344.825 339.72 342.702 333.282 345.669 329.417C346.887 327.821 348.678 326.762 350.663 326.463C351.552 326.361 352.451 326.522 353.249 326.926C353.743 326.068 354.476 325.373 355.358 324.925C356.776 324.198 358.421 324.051 359.945 324.517C361.066 324.929 362.085 325.579 362.93 326.422C363.776 327.266 364.429 328.283 364.844 329.403C366.768 327.802 368.968 326.566 371.335 325.755C373.88 324.939 377.5 325.225 379.406 327.797C379.974 328.672 380.333 329.666 380.456 330.702C380.578 331.738 380.461 332.788 380.113 333.772C379.798 335.053 379.207 336.25 378.382 337.28C377.557 338.309 376.518 339.147 375.337 339.733C373.399 340.302 371.404 340.653 369.389 340.781L347.969 340.904L347.71 340.918ZM351.262 327.851C351.131 327.838 350.999 327.838 350.867 327.851C349.244 328.09 347.778 328.954 346.785 330.261C344.281 333.459 346.145 338.794 346.553 339.339C346.997 339.458 347.456 339.504 347.914 339.475L369.321 339.352C371.165 339.225 372.99 338.901 374.765 338.386C375.744 337.88 376.602 337.17 377.283 336.303C377.964 335.437 378.451 334.434 378.712 333.364C378.998 332.588 379.104 331.757 379.022 330.934C378.939 330.111 378.67 329.317 378.235 328.614C376.738 326.599 373.812 326.409 371.73 327.076C369.209 327.961 366.893 329.35 364.926 331.159C364.839 331.238 364.733 331.293 364.619 331.32C364.504 331.346 364.385 331.342 364.272 331.309C364.158 331.276 364.053 331.215 363.967 331.132C363.882 331.049 363.818 330.946 363.782 330.832C363.504 329.721 362.965 328.692 362.21 327.831C361.455 326.969 360.506 326.3 359.441 325.878C358.277 325.529 357.023 325.646 355.944 326.205C355.527 326.405 355.155 326.686 354.849 327.032C354.543 327.378 354.309 327.781 354.161 328.219C354.127 328.328 354.067 328.426 353.986 328.507C353.906 328.588 353.807 328.648 353.698 328.682C353.587 328.715 353.468 328.719 353.355 328.696C353.241 328.672 353.134 328.62 353.045 328.546C352.548 328.116 351.919 327.871 351.262 327.851Z" fill="#50AA50"/>
<path d="M342.103 329.784C341.488 330.959 341.237 332.291 341.382 333.609C341.45 334.276 342.511 334.289 342.443 333.609C342.303 332.483 342.502 331.341 343.015 330.329C343.328 329.716 342.416 329.185 342.103 329.784Z" fill="#50AA50"/>
<path d="M339.014 330.642C338.688 331.818 338.66 333.058 338.932 334.248C339.068 334.915 340.089 334.63 339.953 333.963C339.728 332.96 339.756 331.917 340.035 330.927C340.064 330.795 340.042 330.656 339.972 330.54C339.902 330.423 339.79 330.338 339.66 330.301C339.529 330.265 339.389 330.279 339.269 330.343C339.149 330.406 339.058 330.513 339.014 330.642Z" fill="#50AA50"/>
<path d="M344.961 328.491C345.102 328.491 345.237 328.435 345.336 328.336C345.436 328.236 345.492 328.101 345.492 327.96C345.492 327.82 345.436 327.685 345.336 327.585C345.237 327.485 345.102 327.43 344.961 327.43C344.82 327.43 344.685 327.485 344.586 327.585C344.486 327.685 344.43 327.82 344.43 327.96C344.43 328.101 344.486 328.236 344.586 328.336C344.685 328.435 344.82 328.491 344.961 328.491Z" fill="#50AA50"/>
<path d="M347.955 333.609V334.548C347.955 334.689 348.011 334.824 348.111 334.923C348.21 335.023 348.345 335.079 348.486 335.079C348.627 335.079 348.762 335.023 348.861 334.923C348.961 334.824 349.017 334.689 349.017 334.548V333.609C349.017 333.468 348.961 333.333 348.861 333.233C348.762 333.134 348.627 333.078 348.486 333.078C348.345 333.078 348.21 333.134 348.111 333.233C348.011 333.333 347.955 333.468 347.955 333.609Z" fill="#50AA50"/>
<path d="M365.837 335.256V335.732C365.858 335.856 365.921 335.97 366.017 336.051C366.113 336.133 366.235 336.178 366.361 336.178C366.487 336.178 366.609 336.133 366.705 336.051C366.801 335.97 366.865 335.856 366.885 335.732V335.256C366.865 335.131 366.801 335.018 366.705 334.936C366.609 334.854 366.487 334.81 366.361 334.81C366.235 334.81 366.113 334.854 366.017 334.936C365.921 335.018 365.858 335.131 365.837 335.256Z" fill="#50AA50"/>
<path d="M363.878 333.976L364.109 334.221C364.211 334.309 364.341 334.354 364.475 334.349C364.609 334.344 364.736 334.289 364.831 334.194C364.925 334.099 364.981 333.973 364.986 333.839C364.991 333.705 364.945 333.574 364.858 333.473L364.626 333.228C364.136 332.751 363.388 333.5 363.878 333.976Z" fill="#50AA50"/>
<path d="M63.0914 310.648H27.2589C26.8853 310.648 26.527 310.499 26.2629 310.235C25.9987 309.971 25.8503 309.613 25.8503 309.239C25.8503 308.865 25.9987 308.507 26.2629 308.243C26.527 307.979 26.8853 307.83 27.2589 307.83H63.0914C63.465 307.83 63.8232 307.979 64.0874 308.243C64.3515 308.507 64.4999 308.865 64.4999 309.239C64.4999 309.613 64.3515 309.971 64.0874 310.235C63.8232 310.499 63.465 310.648 63.0914 310.648Z" fill="#40917D"/>
<path d="M378.657 186.37H377.636C377.636 185.962 377.474 185.57 377.186 185.282C376.898 184.994 376.506 184.832 376.099 184.832C375.691 184.832 375.3 184.994 375.011 185.282C374.723 185.57 374.561 185.962 374.561 186.37H373.54C373.54 185.691 373.81 185.04 374.289 184.56C374.769 184.08 375.42 183.811 376.099 183.811C376.777 183.811 377.428 184.08 377.908 184.56C378.387 185.04 378.657 185.691 378.657 186.37Z" fill="white"/>
<path d="M382.263 126.769H381.243C381.243 126.361 381.081 125.97 380.792 125.681C380.504 125.393 380.113 125.231 379.705 125.231C379.297 125.231 378.906 125.393 378.618 125.681C378.329 125.97 378.167 126.361 378.167 126.769H377.146C377.146 126.09 377.416 125.439 377.896 124.96C378.376 124.48 379.026 124.21 379.705 124.21C380.383 124.21 381.034 124.48 381.514 124.96C381.994 125.439 382.263 126.09 382.263 126.769Z" fill="white"/>
<path d="M254.815 333.854H206.177L206.993 331.894C210.191 324.326 210.518 317.834 210.041 310.43L209.905 308.987L250.977 308.865V310.226C251.235 317.586 252.335 324.893 254.257 332.003L254.815 333.854ZM210.327 331.036H251.018C249.476 324.668 248.524 318.171 248.174 311.628L212.886 311.737C213.44 318.275 212.586 324.856 210.382 331.036H210.327Z" fill="#41917D"/>
<path d="M192.214 311.6C155.238 311.6 125.284 311.41 123.978 310.933C120.807 309.804 116.67 305.421 116.615 302.304C116.493 295.567 116.207 286.394 115.867 275.764C114.86 243.738 113.472 199.858 115.268 175.576C115.416 173.457 116.359 171.471 117.908 170.017C119.458 168.563 121.5 167.749 123.624 167.737H123.76L336.918 168.05C339.096 168.099 341.17 168.989 342.705 170.535C344.24 172.08 345.117 174.16 345.152 176.339C345.315 183.43 345.546 190.684 345.778 198.02C346.757 228.78 347.765 260.629 344.349 290.667C344.226 291.851 344.158 293.158 344.104 294.519C343.818 300.821 343.45 308.674 335.326 310.28C331.311 311.07 252.42 311.6 192.214 311.6ZM123.638 170.05C122.083 170.061 120.589 170.658 119.456 171.723C118.322 172.788 117.634 174.242 117.527 175.794C115.745 199.953 117.133 243.752 118.14 275.737C118.48 286.366 118.766 295.554 118.888 302.304C118.888 304.278 122.209 307.939 124.74 308.837C129.272 309.763 329.678 309.082 334.89 308.103C341.273 306.837 341.559 300.549 341.831 294.492C341.831 293.131 341.967 291.77 342.103 290.49C345.492 260.547 344.485 228.848 343.464 198.184C343.233 190.82 343.001 183.579 342.838 176.475C342.818 174.885 342.183 173.365 341.066 172.234C339.95 171.102 338.439 170.446 336.85 170.404L123.706 170.091L123.638 170.05Z" fill="#41917D"/>
<path fill-rule="evenodd" clip-rule="evenodd" d="M330.917 175.399L130.075 175.127C128.421 175.026 126.79 175.553 125.508 176.603C124.226 177.653 123.388 179.148 123.162 180.789C120.916 207.67 123.978 263.814 124.441 286.339C124.441 288.544 128.074 291.783 130.66 292.654C133.709 293.621 324.561 292.886 329.229 292.083C337.599 290.613 336.17 282.038 336.877 276.54C340.851 245.494 338.415 211.74 337.626 181.374C337.49 179.707 336.718 178.155 335.468 177.043C334.219 175.93 332.589 175.341 330.917 175.399Z" fill="#CCEDE5"/>
<path d="M272.303 341.653H188.73C187.355 341.653 186.036 341.106 185.063 340.134C184.091 339.161 183.545 337.842 183.545 336.467C183.545 335.092 184.091 333.773 185.063 332.8C186.036 331.828 187.355 331.281 188.73 331.281H272.303C273.678 331.281 274.997 331.828 275.969 332.8C276.941 333.773 277.488 335.092 277.488 336.467C277.488 337.842 276.941 339.161 275.969 340.134C274.997 341.106 273.678 341.653 272.303 341.653ZM188.73 333.486C187.99 333.537 187.297 333.866 186.791 334.408C186.285 334.95 186.003 335.664 186.003 336.406C186.003 337.147 186.285 337.861 186.791 338.403C187.297 338.945 187.99 339.275 188.73 339.325H272.303C273.042 339.275 273.735 338.945 274.241 338.403C274.748 337.861 275.029 337.147 275.029 336.406C275.029 335.664 274.748 334.95 274.241 334.408C273.735 333.866 273.042 333.537 272.303 333.486H188.73Z" fill="#41917D"/>
<path d="M130.538 303.693C134.294 303.693 134.294 297.867 130.538 297.867C126.781 297.867 126.781 303.693 130.538 303.693Z" fill="#41917D"/>
<path d="M142.296 303.693C146.052 303.693 146.052 297.867 142.296 297.867C138.54 297.867 138.54 303.693 142.296 303.693Z" fill="#41917D"/>
<path d="M154.108 303.693C157.864 303.693 157.864 297.867 154.108 297.867C150.352 297.867 150.352 303.693 154.108 303.693Z" fill="#41917D"/>
<path d="M230.509 173.657C230.87 173.657 231.216 173.514 231.472 173.259C231.727 173.003 231.87 172.657 231.87 172.296C231.87 171.935 231.727 171.589 231.472 171.334C231.216 171.079 230.87 170.935 230.509 170.935C230.148 170.935 229.802 171.079 229.547 171.334C229.292 171.589 229.148 171.935 229.148 172.296C229.148 172.657 229.292 173.003 229.547 173.259C229.802 173.514 230.148 173.657 230.509 173.657Z" fill="#41917D"/>
<path d="M466.177 336.045H437.38L448.458 299.664H455.112L466.177 336.045Z" fill="#CCEDE5"/>
<path d="M468.558 336.045H435.012V340.196H468.558V336.045Z" fill="#CCEDE5"/>
<path d="M440.156 326.953L437.38 336.045H466.177L463.414 326.953H440.156Z" fill="#41917D"/>
<path d="M442.919 317.861H460.638L457.875 308.756H445.695L442.919 317.861Z" fill="#41917D"/>
<path d="M478.003 339.965H484.385V315.221H517.183V339.965H523.579V315.221H530.384V295.472H524.94V293.634H515.632V295.472H486.536V293.634H477.227V295.472H471.307V315.221H478.003V339.965ZM528.274 297.527V297.609L524.273 313.166H517.251L521.211 297.527H528.274ZM509.957 313.166H502.921L506.881 297.527H513.917L509.957 313.166ZM495.558 313.166H488.536L492.496 297.527H499.519L495.558 313.166ZM478.003 297.527H485.039L481.078 313.166H474.043L478.003 297.527Z" fill="#CCEDE5"/>
<path d="M163.703 98.0914L165.608 96.1723C165.784 95.9896 165.883 95.7456 165.883 95.4918C165.883 95.2379 165.784 94.9939 165.608 94.8112L163.948 93.1507C163.748 92.9454 163.618 92.6823 163.576 92.3988C163.535 92.1153 163.584 91.8259 163.716 91.5719L165.077 88.2782C165.161 88.0024 165.33 87.7603 165.559 87.5866C165.789 87.4129 166.068 87.3167 166.356 87.3118H168.711C168.972 87.3118 169.223 87.209 169.408 87.0256C169.594 86.8422 169.701 86.593 169.704 86.3319V83.6097C169.701 83.3486 169.594 83.0994 169.408 82.916C169.223 82.7326 168.972 82.6298 168.711 82.6298H166.356C166.068 82.6249 165.789 82.5286 165.559 82.355C165.33 82.1813 165.161 81.9392 165.077 81.6634L163.716 78.3697C163.584 78.1156 163.535 77.8263 163.576 77.5428C163.618 77.2593 163.748 76.9962 163.948 76.7908L165.608 75.1303C165.784 74.9477 165.883 74.7037 165.883 74.4498C165.883 74.1959 165.784 73.952 165.608 73.7693L163.703 71.8502C163.518 71.677 163.275 71.5806 163.022 71.5806C162.769 71.5806 162.526 71.677 162.342 71.8502L160.681 73.5107C160.476 73.7105 160.213 73.8405 159.93 73.882C159.646 73.9236 159.357 73.8746 159.103 73.7421L155.809 72.381C155.536 72.2951 155.297 72.1252 155.126 71.8955C154.955 71.6658 154.861 71.388 154.857 71.1016V68.747C154.857 68.4835 154.752 68.2308 154.566 68.0444C154.38 67.8581 154.127 67.7534 153.863 67.7534H151.142C150.878 67.7534 150.625 67.8581 150.439 68.0444C150.253 68.2308 150.148 68.4835 150.148 68.747V71.1016C150.144 71.388 150.05 71.6658 149.879 71.8955C149.708 72.1252 149.469 72.2951 149.195 72.381L145.888 73.7421C145.634 73.8746 145.345 73.9236 145.062 73.882C144.778 73.8405 144.515 73.7105 144.31 73.5107L142.65 71.8502C142.467 71.6739 142.223 71.5754 141.969 71.5754C141.715 71.5754 141.471 71.6739 141.289 71.8502L139.37 73.7693C139.193 73.952 139.095 74.1959 139.095 74.4498C139.095 74.7037 139.193 74.9477 139.37 75.1303L141.03 76.7908C141.23 76.9962 141.36 77.2593 141.401 77.5428C141.443 77.8263 141.394 78.1156 141.261 78.3697L139.9 81.6634C139.817 81.9392 139.648 82.1813 139.418 82.355C139.188 82.5286 138.909 82.6249 138.621 82.6298H136.267C136.006 82.6298 135.755 82.7326 135.569 82.916C135.383 83.0994 135.277 83.3486 135.273 83.6097V86.3319C135.277 86.593 135.383 86.8422 135.569 87.0256C135.755 87.209 136.006 87.3118 136.267 87.3118H138.621C138.909 87.3167 139.188 87.4129 139.418 87.5866C139.648 87.7603 139.817 88.0024 139.9 88.2782L141.261 91.5719C141.394 91.8259 141.443 92.1153 141.401 92.3988C141.36 92.6823 141.23 92.9454 141.03 93.1507L139.37 94.8112C139.193 94.9939 139.095 95.2379 139.095 95.4918C139.095 95.7456 139.193 95.9896 139.37 96.1723L141.289 98.0914C141.471 98.2677 141.715 98.3662 141.969 98.3662C142.223 98.3662 142.467 98.2677 142.65 98.0914L144.31 96.4309C144.515 96.2311 144.778 96.1011 145.062 96.0596C145.345 96.018 145.634 96.067 145.888 96.1995L149.195 97.5606C149.469 97.6465 149.708 97.8164 149.879 98.0461C150.05 98.2758 150.144 98.5536 150.148 98.84V101.195C150.148 101.458 150.253 101.711 150.439 101.897C150.625 102.083 150.878 102.188 151.142 102.188H153.863C154.127 102.188 154.38 102.083 154.566 101.897C154.752 101.711 154.857 101.458 154.857 101.195V98.84C154.861 98.5536 154.955 98.2758 155.126 98.0461C155.297 97.8164 155.536 97.6465 155.809 97.5606L159.103 96.1995C159.357 96.067 159.646 96.018 159.93 96.0596C160.213 96.1011 160.476 96.2311 160.681 96.4309L162.342 98.0914C162.526 98.2646 162.769 98.361 163.022 98.361C163.275 98.361 163.518 98.2646 163.703 98.0914ZM152.448 92.8513C150.881 92.8513 149.35 92.3867 148.048 91.5163C146.745 90.6459 145.73 89.4088 145.13 87.9613C144.531 86.5139 144.374 84.9212 144.68 83.3846C144.985 81.848 145.74 80.4365 146.847 79.3287C147.955 78.2209 149.366 77.4665 150.903 77.1608C152.439 76.8552 154.032 77.012 155.479 77.6116C156.926 78.2111 158.163 79.2264 159.034 80.5291C159.904 81.8318 160.368 83.3633 160.368 84.93C160.365 87.0297 159.529 89.0425 158.045 90.5272C156.56 92.012 154.548 92.8477 152.448 92.8513Z" fill="#CCEDE5"/>
<path d="M182.007 105.577L181.53 103.971C181.507 103.893 181.469 103.82 181.417 103.757C181.365 103.694 181.301 103.642 181.229 103.604C181.156 103.565 181.077 103.542 180.996 103.535C180.914 103.528 180.832 103.538 180.755 103.563L179.394 103.985C179.221 104.027 179.04 104.018 178.873 103.957C178.706 103.897 178.56 103.788 178.455 103.645L177.094 101.93C176.978 101.8 176.903 101.64 176.876 101.469C176.85 101.297 176.873 101.122 176.944 100.963L177.638 99.6702C177.716 99.5276 177.734 99.3601 177.688 99.2044C177.642 99.0487 177.536 98.9177 177.393 98.84L175.883 98.0233C175.811 97.9855 175.733 97.9621 175.653 97.9547C175.572 97.9472 175.491 97.9557 175.414 97.9797C175.337 98.0038 175.265 98.0428 175.203 98.0947C175.141 98.1466 175.09 98.2102 175.053 98.2819L174.359 99.643C174.265 99.7913 174.13 99.909 173.971 99.9815C173.811 100.054 173.634 100.078 173.46 100.051L171.269 99.8335C171.092 99.8276 170.921 99.7687 170.778 99.6643C170.635 99.56 170.526 99.415 170.466 99.2483L170.044 97.8872C169.997 97.7322 169.891 97.6021 169.748 97.5256C169.605 97.4491 169.438 97.4323 169.282 97.4789L167.677 97.9689C167.599 97.9906 167.526 98.0279 167.463 98.0784C167.4 98.1289 167.348 98.1917 167.31 98.2629C167.272 98.3341 167.248 98.4123 167.241 98.4927C167.234 98.5732 167.243 98.6543 167.268 98.7311L167.69 100.092C167.734 100.263 167.724 100.442 167.664 100.608C167.603 100.773 167.493 100.916 167.35 101.018L165.635 102.379C165.509 102.499 165.348 102.578 165.175 102.605C165.003 102.632 164.826 102.605 164.669 102.528L163.376 101.834C163.305 101.796 163.226 101.773 163.146 101.766C163.065 101.758 162.984 101.767 162.907 101.791C162.83 101.815 162.758 101.854 162.696 101.906C162.634 101.958 162.583 102.021 162.546 102.093L161.743 103.563C161.669 103.71 161.655 103.879 161.703 104.037C161.752 104.194 161.858 104.326 162.002 104.407L163.294 105.101C163.444 105.189 163.563 105.322 163.636 105.48C163.709 105.638 163.732 105.814 163.703 105.986L163.485 108.19C163.478 108.366 163.419 108.535 163.314 108.676C163.21 108.816 163.065 108.922 162.9 108.98L161.539 109.402C161.383 109.452 161.253 109.561 161.176 109.706C161.1 109.851 161.084 110.021 161.131 110.178L161.621 111.784C161.668 111.939 161.774 112.069 161.917 112.145C162.06 112.222 162.227 112.239 162.383 112.192L163.744 111.77C163.914 111.727 164.094 111.736 164.259 111.797C164.424 111.857 164.567 111.967 164.669 112.11L166.03 113.812C166.151 113.94 166.231 114.103 166.258 114.278C166.284 114.453 166.257 114.632 166.18 114.792L165.485 116.085C165.448 116.156 165.424 116.234 165.417 116.315C165.409 116.395 165.418 116.476 165.442 116.554C165.466 116.631 165.505 116.702 165.557 116.764C165.609 116.826 165.672 116.878 165.744 116.915L167.214 117.704C167.359 117.779 167.528 117.795 167.684 117.75C167.841 117.704 167.975 117.6 168.058 117.459L168.738 116.098C168.83 115.947 168.964 115.827 169.124 115.752C169.283 115.677 169.462 115.651 169.636 115.676L171.827 115.894C172.007 115.897 172.181 115.957 172.325 116.064C172.469 116.171 172.576 116.321 172.63 116.493L173.052 117.854C173.074 117.932 173.111 118.004 173.162 118.067C173.212 118.13 173.275 118.183 173.346 118.221C173.417 118.259 173.495 118.282 173.576 118.289C173.656 118.296 173.737 118.287 173.814 118.262L175.434 117.786C175.588 117.733 175.716 117.623 175.792 117.479C175.867 117.335 175.885 117.167 175.842 117.01L175.42 115.649C175.373 115.48 175.379 115.3 175.438 115.135C175.496 114.969 175.604 114.826 175.747 114.724L177.461 113.362C177.594 113.247 177.756 113.172 177.93 113.145C178.103 113.119 178.281 113.142 178.441 113.213L179.72 113.907C179.865 113.985 180.035 114.003 180.193 113.957C180.35 113.911 180.484 113.805 180.564 113.662L181.354 112.178C181.391 112.107 181.415 112.029 181.422 111.948C181.43 111.868 181.421 111.787 181.397 111.709C181.373 111.632 181.334 111.561 181.282 111.498C181.23 111.436 181.167 111.385 181.095 111.348L179.816 110.654C179.665 110.566 179.544 110.434 179.469 110.277C179.393 110.119 179.367 109.942 179.394 109.769L179.612 107.564C179.619 107.388 179.679 107.217 179.783 107.075C179.887 106.932 180.031 106.823 180.197 106.761L181.558 106.339C181.638 106.32 181.714 106.285 181.78 106.236C181.847 106.187 181.903 106.125 181.945 106.054C181.987 105.983 182.014 105.904 182.025 105.822C182.035 105.74 182.029 105.657 182.007 105.577ZM175.883 110.178C175.424 111.035 174.721 111.737 173.864 112.195C173.006 112.653 172.031 112.846 171.064 112.75C170.096 112.653 169.179 112.272 168.428 111.654C167.677 111.036 167.127 110.209 166.846 109.278C166.566 108.346 166.568 107.353 166.853 106.423C167.137 105.493 167.691 104.668 168.444 104.054C169.198 103.439 170.117 103.061 171.085 102.969C172.053 102.877 173.026 103.074 173.882 103.536C174.45 103.84 174.952 104.253 175.36 104.752C175.769 105.25 176.074 105.825 176.26 106.442C176.446 107.059 176.508 107.706 176.443 108.347C176.379 108.988 176.188 109.61 175.883 110.178Z" fill="#CCEDE5"/>
<path d="M262.15 136.582H217.785C217.411 136.582 217.053 136.434 216.789 136.169C216.525 135.905 216.376 135.547 216.376 135.173C216.376 134.8 216.525 134.441 216.789 134.177C217.053 133.913 217.411 133.765 217.785 133.765H262.15C262.524 133.765 262.882 133.913 263.146 134.177C263.41 134.441 263.559 134.8 263.559 135.173C263.559 135.547 263.41 135.905 263.146 136.169C262.882 136.434 262.524 136.582 262.15 136.582Z" fill="#40917D"/>
<path d="M171.8 156.739H100.162C99.787 156.739 99.427 156.59 99.1616 156.325C98.8962 156.059 98.7471 155.699 98.7471 155.324C98.7471 154.948 98.8962 154.588 99.1616 154.323C99.427 154.057 99.787 153.908 100.162 153.908H171.8C172.176 153.908 172.536 154.057 172.801 154.323C173.066 154.588 173.216 154.948 173.216 155.324C173.216 155.699 173.066 156.059 172.801 156.325C172.536 156.59 172.176 156.739 171.8 156.739Z" fill="#40917D"/>
<path d="M515.428 194.903H443.763C443.387 194.903 443.027 194.754 442.762 194.489C442.496 194.223 442.347 193.863 442.347 193.488C442.347 193.112 442.496 192.752 442.762 192.487C443.027 192.222 443.387 192.072 443.763 192.072H515.428C515.803 192.072 516.163 192.222 516.428 192.487C516.694 192.752 516.843 193.112 516.843 193.488C516.843 193.863 516.694 194.223 516.428 194.489C516.163 194.754 515.803 194.903 515.428 194.903Z" fill="#40917D"/>
<path d="M543.598 343.014H1.41534C1.03997 343.014 0.679973 342.865 0.414546 342.599C0.149119 342.334 0 341.974 0 341.598C0 341.223 0.149119 340.863 0.414546 340.597C0.679973 340.332 1.03997 340.183 1.41534 340.183H543.598C543.974 340.183 544.334 340.332 544.599 340.597C544.864 340.863 545.014 341.223 545.014 341.598C545.014 341.974 544.864 342.334 544.599 342.599C544.334 342.865 543.974 343.014 543.598 343.014Z" fill="#40917D"/>
<path d="M344.716 118.848C342.712 118.85 340.744 119.382 339.012 120.389C337.279 121.396 335.842 122.842 334.847 124.582C333.851 126.321 333.333 128.293 333.343 130.297C333.353 132.301 333.891 134.267 334.904 135.997L335.081 136.31L323.568 147.838C323.387 148.015 323.243 148.227 323.145 148.461C323.047 148.695 322.996 148.946 322.996 149.199C323.014 149.536 323.1 149.865 323.25 150.167C323.4 150.469 323.61 150.737 323.867 150.955C324.107 151.233 324.401 151.459 324.731 151.621C325.061 151.782 325.42 151.875 325.786 151.894C326.277 151.888 326.754 151.726 327.147 151.431L338.647 139.93L338.96 140.107C340.47 140.998 342.165 141.527 343.913 141.656C345.661 141.784 347.415 141.507 349.038 140.846C350.662 140.185 352.111 139.159 353.273 137.846C354.435 136.534 355.279 134.971 355.738 133.279C356.197 131.587 356.26 129.812 355.921 128.092C355.582 126.372 354.851 124.754 353.785 123.362C352.718 121.971 351.345 120.845 349.772 120.071C348.199 119.298 346.469 118.898 344.716 118.902V118.848ZM344.716 138.243C342.594 138.243 340.559 137.399 339.058 135.899C337.557 134.398 336.714 132.362 336.714 130.24C336.714 128.117 337.557 126.081 339.058 124.581C340.559 123.08 342.594 122.237 344.716 122.237C346.839 122.237 348.874 123.08 350.375 124.581C351.875 126.081 352.718 128.117 352.718 130.24C352.718 132.362 351.875 134.398 350.375 135.899C348.874 137.399 346.839 138.243 344.716 138.243Z" fill="#CCEDE5"/>
<path d="M340.552 131.9H348.717V129.79H340.552V131.9Z" fill="#CCEDE5"/>
<path d="M133.355 340.387C132.994 340.387 132.648 340.243 132.392 339.988C132.137 339.733 131.994 339.387 131.994 339.026V230.264C131.994 229.888 132.143 229.528 132.408 229.263C132.674 228.997 133.034 228.848 133.409 228.848C133.785 228.848 134.145 228.997 134.41 229.263C134.675 229.528 134.825 229.888 134.825 230.264V338.93C134.839 339.127 134.811 339.324 134.742 339.508C134.673 339.692 134.565 339.859 134.425 339.997C134.285 340.136 134.117 340.242 133.933 340.309C133.748 340.377 133.551 340.403 133.355 340.387Z" fill="#40917D"/>
<path d="M158.613 340.387C158.252 340.387 157.906 340.243 157.651 339.988C157.396 339.733 157.252 339.387 157.252 339.026V230.264C157.252 229.888 157.401 229.528 157.667 229.263C157.932 228.997 158.292 228.848 158.668 228.848C159.043 228.848 159.403 228.997 159.668 229.263C159.934 229.528 160.083 229.888 160.083 230.264V338.93C160.097 339.127 160.069 339.324 160 339.508C159.931 339.692 159.823 339.859 159.683 339.997C159.544 340.136 159.376 340.242 159.191 340.309C159.006 340.377 158.809 340.403 158.613 340.387Z" fill="#40917D"/>
<path d="M158.613 239.097H133.355C133.17 239.097 132.986 239.06 132.816 238.99C132.645 238.919 132.489 238.815 132.359 238.684C132.228 238.554 132.124 238.398 132.053 238.227C131.982 238.056 131.946 237.873 131.946 237.688C131.946 237.503 131.982 237.32 132.053 237.149C132.124 236.978 132.228 236.823 132.359 236.692C132.489 236.561 132.645 236.458 132.816 236.387C132.986 236.316 133.17 236.279 133.355 236.279H158.613C158.798 236.279 158.981 236.316 159.152 236.387C159.323 236.458 159.478 236.561 159.609 236.692C159.74 236.823 159.843 236.978 159.914 237.149C159.985 237.32 160.021 237.503 160.021 237.688C160.021 237.873 159.985 238.056 159.914 238.227C159.843 238.398 159.74 238.554 159.609 238.684C159.478 238.815 159.323 238.919 159.152 238.99C158.981 239.06 158.798 239.097 158.613 239.097Z" fill="#40917D"/>
<path d="M158.613 251.523H133.355C132.979 251.523 132.619 251.374 132.354 251.109C132.089 250.843 131.939 250.483 131.939 250.108C131.939 249.732 132.089 249.372 132.354 249.107C132.619 248.841 132.979 248.692 133.355 248.692H158.613C158.988 248.692 159.348 248.841 159.614 249.107C159.879 249.372 160.028 249.732 160.028 250.108C160.028 250.483 159.879 250.843 159.614 251.109C159.348 251.374 158.988 251.523 158.613 251.523Z" fill="#40917D"/>
<path d="M158.613 263.936H133.355C132.981 263.936 132.623 263.788 132.359 263.524C132.094 263.259 131.946 262.901 131.946 262.528C131.946 262.154 132.094 261.796 132.359 261.531C132.623 261.267 132.981 261.119 133.355 261.119H158.613C158.986 261.119 159.345 261.267 159.609 261.531C159.873 261.796 160.021 262.154 160.021 262.528C160.021 262.901 159.873 263.259 159.609 263.524C159.345 263.788 158.986 263.936 158.613 263.936Z" fill="#40917D"/>
<path d="M158.613 276.322H133.355C132.979 276.322 132.619 276.173 132.354 275.907C132.089 275.642 131.939 275.282 131.939 274.906C131.939 274.531 132.089 274.171 132.354 273.905C132.619 273.64 132.979 273.491 133.355 273.491H158.613C158.988 273.491 159.348 273.64 159.614 273.905C159.879 274.171 160.028 274.531 160.028 274.906C160.028 275.282 159.879 275.642 159.614 275.907C159.348 276.173 158.988 276.322 158.613 276.322Z" fill="#40917D"/>
<path d="M158.613 288.775H133.355C132.981 288.775 132.623 288.627 132.359 288.363C132.094 288.099 131.946 287.74 131.946 287.367C131.946 286.993 132.094 286.635 132.359 286.371C132.623 286.107 132.981 285.958 133.355 285.958H158.613C158.986 285.958 159.345 286.107 159.609 286.371C159.873 286.635 160.021 286.993 160.021 287.367C160.021 287.74 159.873 288.099 159.609 288.363C159.345 288.627 158.986 288.775 158.613 288.775Z" fill="#40917D"/>
<path d="M158.613 301.202H133.355C132.979 301.202 132.619 301.053 132.354 300.787C132.089 300.522 131.939 300.162 131.939 299.786C131.939 299.411 132.089 299.051 132.354 298.786C132.619 298.52 132.979 298.371 133.355 298.371H158.613C158.988 298.371 159.348 298.52 159.614 298.786C159.879 299.051 160.028 299.411 160.028 299.786C160.028 300.162 159.879 300.522 159.614 300.787C159.348 301.053 158.988 301.202 158.613 301.202Z" fill="#40917D"/>
<path d="M158.613 313.615H133.355C132.981 313.615 132.623 313.466 132.359 313.202C132.094 312.938 131.946 312.58 131.946 312.206C131.946 311.832 132.094 311.474 132.359 311.21C132.623 310.946 132.981 310.797 133.355 310.797H158.613C158.986 310.797 159.345 310.946 159.609 311.21C159.873 311.474 160.021 311.832 160.021 312.206C160.021 312.58 159.873 312.938 159.609 313.202C159.345 313.466 158.986 313.615 158.613 313.615Z" fill="#40917D"/>
<path d="M158.613 326.041H133.355C132.979 326.041 132.619 325.892 132.354 325.627C132.089 325.361 131.939 325.001 131.939 324.626C131.939 324.25 132.089 323.89 132.354 323.625C132.619 323.359 132.979 323.21 133.355 323.21H158.613C158.988 323.21 159.348 323.359 159.614 323.625C159.879 323.89 160.028 324.25 160.028 324.626C160.028 325.001 159.879 325.361 159.614 325.627C159.348 325.892 158.988 326.041 158.613 326.041Z" fill="#40917D"/>
<path d="M98.9512 235.49C98.5903 235.49 98.2441 235.347 97.9889 235.091C97.7337 234.836 97.5903 234.49 97.5903 234.129V228.685C97.5903 228.309 97.7395 227.949 98.0049 227.684C98.2703 227.418 98.6303 227.269 99.0057 227.269C99.381 227.269 99.741 227.418 100.006 227.684C100.272 227.949 100.421 228.309 100.421 228.685V234.129C100.422 234.317 100.383 234.504 100.308 234.676C100.233 234.849 100.123 235.004 99.9847 235.132C99.8466 235.26 99.6834 235.358 99.5055 235.42C99.3276 235.481 99.1389 235.505 98.9512 235.49Z" fill="#40917D"/>
<path d="M101.7 232.768H96.2564C95.8829 232.768 95.5246 232.62 95.2605 232.355C94.9963 232.091 94.8479 231.733 94.8479 231.359C94.8479 230.986 94.9963 230.627 95.2605 230.363C95.5246 230.099 95.8829 229.951 96.2564 229.951H101.7C102.074 229.951 102.432 230.099 102.696 230.363C102.96 230.627 103.109 230.986 103.109 231.359C103.109 231.733 102.96 232.091 102.696 232.355C102.432 232.62 102.074 232.768 101.7 232.768Z" fill="#40917D"/>
<path d="M225.882 38.9534C225.521 38.9534 225.175 38.8101 224.92 38.5548C224.665 38.2996 224.521 37.9534 224.521 37.5924V32.1482C224.521 31.7746 224.67 31.4162 224.934 31.1521C225.198 30.8879 225.556 30.7395 225.93 30.7395C226.304 30.7395 226.662 30.8879 226.926 31.1521C227.19 31.4162 227.339 31.7746 227.339 32.1482V37.5924C227.339 37.7794 227.301 37.9646 227.227 38.1362C227.152 38.3079 227.044 38.4624 226.907 38.5901C226.77 38.7178 226.609 38.816 226.432 38.8785C226.256 38.941 226.069 38.9665 225.882 38.9534Z" fill="#40917D"/>
<path d="M228.631 36.2041H223.188C222.812 36.2041 222.452 36.055 222.187 35.7895C221.922 35.5241 221.772 35.164 221.772 34.7886C221.772 34.4132 221.922 34.0532 222.187 33.7877C222.452 33.5222 222.812 33.3731 223.188 33.3731H228.631C229.007 33.3731 229.367 33.5222 229.632 33.7877C229.898 34.0532 230.047 34.4132 230.047 34.7886C230.047 35.164 229.898 35.5241 229.632 35.7895C229.367 36.055 229.007 36.2041 228.631 36.2041Z" fill="#40917D"/>
<path d="M270.37 323.496C270.239 323.515 270.106 323.515 269.975 323.496L264.695 321.985C264.514 321.94 264.344 321.858 264.195 321.745C264.047 321.631 263.924 321.488 263.833 321.325C263.742 321.161 263.686 320.981 263.668 320.795C263.65 320.609 263.671 320.421 263.729 320.243C263.774 320.062 263.856 319.892 263.97 319.743C264.083 319.595 264.226 319.471 264.39 319.381C264.553 319.29 264.733 319.234 264.919 319.216C265.105 319.198 265.293 319.219 265.471 319.277L270.751 320.788C271.112 320.838 271.438 321.03 271.658 321.321C271.877 321.612 271.972 321.978 271.922 322.339C271.871 322.7 271.679 323.026 271.388 323.246C271.097 323.465 270.731 323.56 270.37 323.51V323.496Z" fill="#40917D"/>
<path d="M266.968 325.388C266.842 325.408 266.713 325.408 266.587 325.388C266.406 325.343 266.235 325.261 266.087 325.147C265.939 325.034 265.815 324.891 265.725 324.727C265.634 324.564 265.578 324.383 265.56 324.197C265.542 324.011 265.563 323.823 265.621 323.646L267.131 318.351C267.234 317.99 267.476 317.685 267.804 317.502C268.132 317.32 268.519 317.275 268.88 317.378C269.241 317.481 269.546 317.723 269.729 318.051C269.911 318.379 269.956 318.766 269.853 319.127L268.343 324.422C268.255 324.713 268.071 324.967 267.822 325.142C267.573 325.317 267.272 325.404 266.968 325.388Z" fill="#40917D"/>
<path d="M242.567 157.488C242.441 157.508 242.312 157.508 242.186 157.488L236.892 155.977C236.531 155.874 236.226 155.632 236.043 155.304C235.861 154.976 235.816 154.589 235.919 154.228C236.022 153.867 236.264 153.562 236.592 153.379C236.92 153.197 237.307 153.152 237.668 153.255L242.948 154.766C243.309 154.816 243.635 155.008 243.854 155.299C244.074 155.59 244.169 155.956 244.118 156.317C244.068 156.678 243.876 157.004 243.585 157.224C243.294 157.444 242.928 157.538 242.567 157.488Z" fill="#40917D"/>
<path d="M239.206 159.38C239.079 159.398 238.951 159.398 238.825 159.38C238.643 159.335 238.473 159.253 238.325 159.139C238.176 159.025 238.053 158.882 237.962 158.719C237.872 158.556 237.816 158.375 237.798 158.189C237.78 158.003 237.8 157.815 237.858 157.638L239.369 152.357C239.42 152.178 239.505 152.011 239.621 151.865C239.736 151.72 239.879 151.598 240.042 151.508C240.204 151.418 240.383 151.36 240.567 151.339C240.752 151.317 240.939 151.333 241.118 151.384C241.296 151.435 241.463 151.52 241.609 151.636C241.755 151.751 241.876 151.894 241.966 152.057C242.057 152.219 242.114 152.398 242.136 152.582C242.157 152.767 242.142 152.954 242.091 153.133L240.58 158.413C240.492 158.705 240.309 158.959 240.06 159.134C239.811 159.309 239.51 159.396 239.206 159.38Z" fill="#40917D"/>
<path d="M252.765 119.348C260.424 111.688 260.424 99.2702 252.765 91.6109C245.107 83.9516 232.69 83.9516 225.032 91.6109C217.373 99.2702 217.373 111.688 225.032 119.348C232.69 127.007 245.107 127.007 252.765 119.348Z" fill="#CCEDE5"/>
<path d="M238.906 120.168C247.016 120.168 253.59 113.593 253.59 105.482C253.59 97.3712 247.016 90.7961 238.906 90.7961C230.796 90.7961 224.222 97.3712 224.222 105.482C224.222 113.593 230.796 120.168 238.906 120.168Z" fill="white"/>
<path d="M238.906 120.726C235.889 120.726 232.939 119.831 230.43 118.154C227.922 116.478 225.966 114.095 224.812 111.307C223.657 108.519 223.355 105.451 223.944 102.492C224.532 99.5321 225.985 96.8134 228.119 94.6797C230.252 92.5459 232.971 91.0927 235.93 90.504C238.889 89.9153 241.957 90.2175 244.744 91.3723C247.532 92.5271 249.914 94.4826 251.591 96.9917C253.267 99.5008 254.162 102.451 254.162 105.468C254.158 109.514 252.55 113.392 249.69 116.253C246.829 119.114 242.951 120.722 238.906 120.726ZM238.906 91.3541C236.112 91.3541 233.38 92.1831 231.057 93.736C228.733 95.289 226.923 97.4963 225.854 100.079C224.785 102.661 224.506 105.502 225.052 108.243C225.599 110.984 226.945 113.501 228.922 115.477C230.899 117.452 233.417 118.796 236.159 119.34C238.9 119.883 241.74 119.602 244.321 118.53C246.902 117.459 249.108 115.646 250.658 113.321C252.209 110.996 253.035 108.263 253.032 105.468C253.029 101.724 251.539 98.1338 248.89 95.4872C246.241 92.8407 242.65 91.3541 238.906 91.3541Z" fill="#40917D"/>
<path d="M238.906 106.04C238.754 106.04 238.609 105.98 238.502 105.873C238.395 105.765 238.334 105.62 238.334 105.468V98.0233C238.334 97.8717 238.395 97.7263 238.502 97.6191C238.609 97.5119 238.754 97.4517 238.906 97.4517C239.058 97.4517 239.203 97.5119 239.31 97.6191C239.417 97.7263 239.478 97.8717 239.478 98.0233V105.496C239.471 105.642 239.407 105.781 239.301 105.882C239.194 105.984 239.053 106.04 238.906 106.04Z" fill="#40917D"/>
<path d="M247.67 106.04H238.906C238.754 106.04 238.609 105.98 238.502 105.873C238.395 105.765 238.334 105.62 238.334 105.468C238.334 105.394 238.349 105.32 238.378 105.252C238.407 105.183 238.449 105.121 238.503 105.069C238.556 105.017 238.619 104.976 238.688 104.949C238.758 104.922 238.832 104.908 238.906 104.91H247.67C247.745 104.908 247.819 104.922 247.888 104.949C247.957 104.976 248.02 105.017 248.074 105.069C248.127 105.121 248.169 105.183 248.198 105.252C248.227 105.32 248.242 105.394 248.242 105.468C248.242 105.62 248.182 105.765 248.074 105.873C247.967 105.98 247.822 106.04 247.67 106.04Z" fill="#40917D"/>
<path d="M239.491 92.443C239.491 92.5587 239.457 92.6719 239.393 92.7682C239.328 92.8644 239.237 92.9394 239.13 92.9837C239.023 93.028 238.906 93.0396 238.792 93.017C238.679 92.9944 238.574 92.9387 238.492 92.8568C238.411 92.775 238.355 92.6707 238.332 92.5572C238.31 92.4436 238.321 92.326 238.366 92.219C238.41 92.1121 238.485 92.0207 238.581 91.9564C238.677 91.8921 238.79 91.8577 238.906 91.8577C238.983 91.8577 239.059 91.8729 239.13 91.9023C239.201 91.9317 239.266 91.9748 239.32 92.0292C239.374 92.0835 239.417 92.148 239.447 92.219C239.476 92.29 239.491 92.3661 239.491 92.443Z" fill="#40917D"/>
<path d="M248.119 96.8528C248.443 96.8528 248.705 96.5908 248.705 96.2676C248.705 95.9443 248.443 95.6823 248.119 95.6823C247.796 95.6823 247.534 95.9443 247.534 96.2676C247.534 96.5908 247.796 96.8528 248.119 96.8528Z" fill="#40917D"/>
<path d="M251.93 106.054C251.814 106.054 251.701 106.019 251.605 105.955C251.509 105.891 251.434 105.799 251.389 105.692C251.345 105.585 251.333 105.468 251.356 105.354C251.379 105.241 251.434 105.136 251.516 105.054C251.598 104.973 251.702 104.917 251.816 104.894C251.929 104.872 252.047 104.883 252.154 104.928C252.261 104.972 252.352 105.047 252.416 105.143C252.481 105.239 252.515 105.353 252.515 105.468C252.517 105.546 252.503 105.623 252.474 105.694C252.446 105.766 252.403 105.832 252.348 105.886C252.293 105.941 252.228 105.984 252.156 106.013C252.084 106.042 252.007 106.055 251.93 106.054Z" fill="#40917D"/>
<path d="M248.119 115.282C248.443 115.282 248.705 115.02 248.705 114.696C248.705 114.373 248.443 114.111 248.119 114.111C247.796 114.111 247.534 114.373 247.534 114.696C247.534 115.02 247.796 115.282 248.119 115.282Z" fill="#40917D"/>
<path d="M238.321 118.507C238.318 118.391 238.35 118.276 238.413 118.178C238.476 118.08 238.566 118.003 238.673 117.957C238.779 117.911 238.897 117.897 239.012 117.918C239.126 117.939 239.232 117.994 239.315 118.075C239.398 118.156 239.455 118.26 239.479 118.374C239.503 118.488 239.492 118.607 239.448 118.714C239.404 118.822 239.329 118.914 239.233 118.979C239.136 119.044 239.022 119.079 238.906 119.079C238.753 119.079 238.606 119.019 238.497 118.912C238.388 118.805 238.325 118.66 238.321 118.507Z" fill="#40917D"/>
<path d="M229.285 114.274C229.394 114.168 229.54 114.108 229.693 114.108C229.845 114.108 229.992 114.168 230.101 114.274C230.18 114.355 230.233 114.457 230.254 114.567C230.275 114.678 230.263 114.792 230.22 114.896C230.176 115 230.103 115.088 230.009 115.151C229.916 115.213 229.805 115.246 229.693 115.246C229.58 115.246 229.47 115.213 229.377 115.151C229.283 115.088 229.21 115 229.166 114.896C229.122 114.792 229.11 114.678 229.131 114.567C229.153 114.457 229.206 114.355 229.285 114.274Z" fill="#40917D"/>
<path d="M225.869 106.067C226.192 106.067 226.454 105.805 226.454 105.482C226.454 105.159 226.192 104.897 225.869 104.897C225.545 104.897 225.283 105.159 225.283 105.482C225.283 105.805 225.545 106.067 225.869 106.067Z" fill="#40917D"/>
<path d="M230.101 95.8456C230.156 95.9 230.199 95.9647 230.229 96.0359C230.258 96.1072 230.274 96.1836 230.274 96.2608C230.274 96.3379 230.258 96.4143 230.229 96.4856C230.199 96.5568 230.156 96.6215 230.101 96.6759C229.992 96.7823 229.845 96.8419 229.693 96.8419C229.54 96.8419 229.394 96.7823 229.285 96.6759C229.23 96.6215 229.186 96.5568 229.157 96.4856C229.127 96.4143 229.112 96.3379 229.112 96.2608C229.112 96.1836 229.127 96.1072 229.157 96.0359C229.186 95.9647 229.23 95.9 229.285 95.8456C229.394 95.7392 229.54 95.6797 229.693 95.6797C229.845 95.6797 229.992 95.7392 230.101 95.8456Z" fill="#40917D"/>
<path d="M267.594 98.0233H259.429C259.347 98.036 259.264 98.0309 259.184 98.0084C259.105 97.9858 259.032 97.9463 258.969 97.8927C258.906 97.839 258.856 97.7724 258.821 97.6975C258.787 97.6225 258.769 97.541 258.769 97.4585C258.769 97.376 258.787 97.2944 258.821 97.2195C258.856 97.1445 258.906 97.078 258.969 97.0243C259.032 96.9706 259.105 96.9312 259.184 96.9086C259.264 96.8861 259.347 96.881 259.429 96.8936H267.594C267.729 96.9146 267.851 96.9831 267.94 97.0867C268.029 97.1902 268.078 97.3221 268.078 97.4585C268.078 97.5949 268.029 97.7267 267.94 97.8303C267.851 97.9339 267.729 98.0023 267.594 98.0233Z" fill="#40917D"/>
<path d="M267.594 114.097H259.429C259.277 114.097 259.132 114.037 259.024 113.93C258.917 113.823 258.857 113.677 258.857 113.526C258.857 113.451 258.872 113.378 258.901 113.309C258.93 113.24 258.972 113.178 259.025 113.126C259.078 113.074 259.142 113.033 259.211 113.006C259.28 112.979 259.354 112.966 259.429 112.968H267.594C267.742 112.968 267.884 113.027 267.988 113.131C268.093 113.236 268.152 113.378 268.152 113.526C268.154 113.6 268.141 113.674 268.113 113.743C268.086 113.813 268.045 113.876 267.993 113.929C267.941 113.982 267.879 114.025 267.811 114.054C267.742 114.083 267.668 114.097 267.594 114.097Z" fill="#40917D"/>
<path d="M277.828 106.04H262.45C262.368 106.053 262.285 106.048 262.206 106.025C262.126 106.002 262.053 105.963 261.99 105.909C261.927 105.856 261.877 105.789 261.843 105.714C261.808 105.639 261.79 105.558 261.79 105.475C261.79 105.393 261.808 105.311 261.843 105.236C261.877 105.161 261.927 105.095 261.99 105.041C262.053 104.987 262.126 104.948 262.206 104.925C262.285 104.903 262.368 104.898 262.45 104.91H277.828C277.963 104.931 278.086 105 278.174 105.103C278.263 105.207 278.312 105.339 278.312 105.475C278.312 105.611 278.263 105.743 278.174 105.847C278.086 105.951 277.963 106.019 277.828 106.04Z" fill="#40917D"/>
<path d="M304.638 317.861H295.547V326.953H304.638V317.861Z" fill="white"/>
<path d="M305.359 327.661H294.853V317.154H305.359V327.661ZM296.268 326.3H303.944V318.515H296.268V326.3Z" fill="#41917D"/>
<path d="M316.164 319.876H307.89C307.816 319.877 307.742 319.864 307.672 319.837C307.603 319.81 307.54 319.769 307.487 319.717C307.434 319.665 307.391 319.603 307.362 319.534C307.333 319.466 307.319 319.392 307.319 319.318C307.319 319.166 307.379 319.021 307.486 318.913C307.593 318.806 307.739 318.746 307.89 318.746H316.124C316.275 318.746 316.421 318.806 316.528 318.913C316.635 319.021 316.695 319.166 316.695 319.318C316.695 319.461 316.64 319.599 316.542 319.703C316.443 319.807 316.308 319.869 316.164 319.876Z" fill="#40917D"/>
<path d="M319.254 326.082H308.135C307.7 326.082 307.359 325.837 307.359 325.524C307.359 325.211 307.7 324.952 308.135 324.952H319.254C319.676 324.952 320.029 325.197 320.029 325.524C320.029 325.851 319.676 326.082 319.254 326.082Z" fill="#40917D"/>
<path d="M323.309 322.788H307.89C307.816 322.79 307.742 322.777 307.672 322.75C307.603 322.723 307.54 322.682 307.487 322.63C307.434 322.578 307.391 322.516 307.362 322.447C307.333 322.378 307.319 322.305 307.319 322.23C307.319 322.155 307.333 322.081 307.362 322.012C307.391 321.942 307.433 321.879 307.486 321.826C307.539 321.773 307.602 321.731 307.671 321.702C307.741 321.673 307.815 321.659 307.89 321.659H323.268C323.343 321.659 323.418 321.673 323.487 321.702C323.556 321.731 323.619 321.773 323.673 321.826C323.726 321.879 323.768 321.942 323.796 322.012C323.825 322.081 323.84 322.155 323.84 322.23C323.84 322.374 323.785 322.512 323.686 322.616C323.587 322.719 323.452 322.781 323.309 322.788Z" fill="#40917D"/>
<path d="M95.8892 193.488H104.98V184.396H95.8892V193.488Z" fill="white"/>
<path d="M105.688 194.196H95.1814V183.688H105.688V194.196ZM96.5831 192.835H104.272V185.131H96.5831V192.835Z" fill="#41917D"/>
<path d="M84.3758 186.397H92.5412C92.6928 186.397 92.8382 186.337 92.9454 186.229C93.0525 186.122 93.1128 185.977 93.1128 185.825C93.1128 185.674 93.0525 185.528 92.9454 185.421C92.8382 185.314 92.6928 185.253 92.5412 185.253H84.3758C84.2242 185.253 84.0788 185.314 83.9716 185.421C83.8644 185.528 83.8042 185.674 83.8042 185.825C83.8042 185.977 83.8644 186.122 83.9716 186.229C84.0788 186.337 84.2242 186.397 84.3758 186.397Z" fill="#40917D"/>
<path d="M81.2731 192.63H92.4053C92.8271 192.63 93.1674 192.372 93.1674 192.059C93.1674 191.746 92.8271 191.487 92.4053 191.487H81.2731C80.8512 191.487 80.511 191.746 80.511 192.059C80.511 192.372 80.8512 192.63 81.2731 192.63Z" fill="#40917D"/>
<path d="M77.2313 189.337H92.6094C92.761 189.337 92.9064 189.276 93.0136 189.169C93.1208 189.062 93.181 188.917 93.181 188.765C93.181 188.613 93.1208 188.468 93.0136 188.361C92.9064 188.254 92.761 188.193 92.6094 188.193H77.2313C77.0797 188.193 76.9343 188.254 76.8271 188.361C76.7199 188.468 76.6597 188.613 76.6597 188.765C76.6597 188.917 76.7199 189.062 76.8271 189.169C76.9343 189.276 77.0797 189.337 77.2313 189.337Z" fill="#40917D"/>
<path d="M376.03 218.572H373.213V339.965H376.03V218.572Z" fill="#3F917D"/>
<path d="M374.942 205.288H374.316C369.693 205.288 365.946 209.036 365.946 213.659V224.887C365.946 229.51 369.693 233.258 374.316 233.258H374.942C379.564 233.258 383.311 229.51 383.311 224.887V213.659C383.311 209.036 379.564 205.288 374.942 205.288Z" fill="#CCEDE5"/>
<path d="M386.006 225.132L388.973 225.609C389.64 225.718 389.925 224.697 389.258 224.588L386.278 224.112C385.611 224.003 385.325 225.024 386.006 225.132Z" fill="#3F917D"/>
<path d="M385.897 218.667C386.67 218.531 387.458 218.504 388.238 218.586C388.918 218.586 388.905 217.592 388.238 217.524C387.361 217.449 386.478 217.491 385.611 217.647C384.944 217.769 385.23 218.79 385.897 218.667Z" fill="#3F917D"/>
<path d="M385.57 212.774L387.857 211.862C388.483 211.617 388.211 210.596 387.571 210.841L385.298 211.753C384.672 211.998 384.944 213.019 385.57 212.774Z" fill="#3F917D"/>
<path d="M359.605 226.126C360.381 226.014 361.147 225.832 361.891 225.582C362.53 225.35 362.258 224.329 361.605 224.561C360.865 224.809 360.105 224.992 359.332 225.105C358.652 225.187 358.938 226.208 359.605 226.126Z" fill="#3F917D"/>
<path d="M358.244 218.599C359.216 218.621 360.181 218.768 361.115 219.035C361.248 219.064 361.386 219.042 361.503 218.972C361.619 218.902 361.705 218.791 361.741 218.66C361.778 218.529 361.763 218.389 361.7 218.269C361.636 218.149 361.53 218.058 361.401 218.014C360.372 217.727 359.312 217.567 358.244 217.538C358.103 217.538 357.968 217.594 357.868 217.693C357.769 217.793 357.713 217.928 357.713 218.069C357.713 218.209 357.769 218.344 357.868 218.444C357.968 218.543 358.103 218.599 358.244 218.599Z" fill="#3F917D"/>
<path d="M359.169 209.889L361.455 210.61C362.109 210.828 362.381 209.807 361.741 209.589L359.455 208.868C358.802 208.664 358.529 209.684 359.169 209.889Z" fill="#3F917D"/>
<path d="M368.042 341.612L369.92 325.388H379.093L381.216 341.38L368.042 341.612Z" fill="#40917D"/>
<path d="M109.022 263.923C108.6 261.35 106.776 254.695 102.762 256.804C96.2565 260.207 104.123 273.137 96.2565 275.437C95.8346 270.279 94.7323 266.726 92.4052 266.931C87.5876 267.366 88.8668 278.554 88.7988 281.072C88.7307 283.59 88.5946 286.149 88.4722 288.735C82.8244 289.755 83.9404 275.002 80.4973 272.96C75.1489 269.789 74.0194 276.853 74.1691 280.119C74.4141 285.686 75.9111 292.369 81.1233 295.281C83.2909 296.517 85.7457 297.16 88.2408 297.146C88.1524 301.524 88.453 305.901 89.139 310.226H89.2343L92.4052 310.403C92.4351 310.669 92.5619 310.914 92.7615 311.093C92.9611 311.271 93.2194 311.37 93.4871 311.37C93.7548 311.37 94.0131 311.271 94.2127 311.093C94.4123 310.914 94.5391 310.669 94.569 310.403C94.569 307.681 96.2565 294.56 96.447 283.399C99.1339 283.602 101.806 282.845 103.986 281.262C109.376 277.343 110.015 270.061 109.022 263.923Z" fill="#6CDD6C"/>
<path d="M93.4668 312.09C93.1462 312.094 92.8309 312.009 92.555 311.845C92.2203 311.649 91.9723 311.333 91.8609 310.961L89.5338 310.838H88.6764L88.5539 310.307C87.8868 306.154 87.5817 301.951 87.6421 297.745C85.2511 297.627 82.9207 296.951 80.8376 295.771C75.2716 292.627 73.8018 285.523 73.5704 280.119C73.4616 277.955 73.9243 273.45 76.3603 271.953C77.0663 271.596 77.8588 271.446 78.6463 271.521C79.4338 271.596 80.184 271.892 80.8104 272.375C82.4707 273.368 83.0967 276.458 83.8316 279.901C84.8251 284.651 85.7233 288.068 87.9143 288.068V286.897C87.996 284.883 88.0912 282.882 88.1457 280.922C88.1457 280.541 88.1457 279.956 88.1457 279.234C87.996 274.825 87.7102 266.631 92.3372 266.209C92.683 266.175 93.0319 266.214 93.3622 266.321C93.6924 266.429 93.9968 266.604 94.2561 266.835C95.617 267.924 96.3791 270.428 96.7738 274.484C99.6997 273.191 99.4956 269.802 99.3731 265.923C99.2506 262.044 99.0193 257.948 102.462 256.151C102.937 255.866 103.476 255.702 104.029 255.676C104.582 255.65 105.134 255.762 105.633 256.001C108.505 257.444 109.498 263.079 109.593 263.705C110.356 268.414 110.682 277.002 104.327 281.671C102.193 283.189 99.637 283.998 97.0188 283.985C96.8554 291.266 96.1069 299.296 95.6579 304.645C95.3993 307.368 95.2087 309.464 95.1951 310.335C95.1872 310.614 95.1064 310.887 94.9609 311.125C94.8153 311.364 94.6099 311.561 94.365 311.696C94.108 311.908 93.797 312.045 93.4668 312.09ZM89.6563 309.64L93.0177 309.817V310.348C93.0177 310.634 93.113 310.716 93.181 310.757C93.2704 310.807 93.3711 310.833 93.4736 310.833C93.5761 310.833 93.6768 310.807 93.7662 310.757C93.834 310.719 93.8901 310.664 93.9285 310.597C93.9669 310.529 93.9861 310.453 93.9839 310.375C93.9839 309.45 94.1881 307.408 94.4467 304.591C94.9502 299.147 95.7259 290.776 95.8076 283.358V282.678L96.488 282.787C99.0099 282.945 101.509 282.229 103.565 280.759C109.417 276.472 109.09 268.387 108.369 263.963C108.056 262.017 107.008 258.084 105.062 257.158C104.731 257.003 104.367 256.935 104.003 256.959C103.639 256.982 103.287 257.098 102.979 257.294C100.258 258.751 100.367 262.248 100.53 265.951C100.707 270.034 100.911 274.648 96.3655 275.982L95.6715 276.186V275.451C95.2496 270.306 94.3106 268.469 93.5212 267.829C93.2307 267.581 92.8539 267.459 92.4733 267.489C88.9758 267.815 89.248 275.546 89.3705 279.275C89.3705 280.024 89.3705 280.636 89.3705 281.045C89.3705 283.005 89.2208 285.005 89.1255 287.033L89.0303 289.211L88.5539 289.293C84.689 289.987 83.6003 284.774 82.634 280.174C82.008 277.206 81.3684 274.158 80.1708 273.436C79.7249 273.074 79.1873 272.843 78.6178 272.769C78.0484 272.694 77.4695 272.779 76.9455 273.014C75.1491 274.09 74.6455 277.901 74.7408 280.051C74.9722 285.155 76.3058 291.838 81.3956 294.71C83.4657 295.9 85.8124 296.524 88.2001 296.52L88.8669 296.452V297.119C88.7739 301.308 89.038 305.497 89.6563 309.64Z" fill="#50AA50"/>
<path d="M102.789 340.291H79.8167C79.2407 340.304 78.6791 340.111 78.2326 339.747C77.7862 339.383 77.4841 338.871 77.3807 338.304L72.1685 311.519L74.3323 311.097L79.5445 337.882C79.5546 337.945 79.5886 338.001 79.6394 338.039C79.6902 338.078 79.7537 338.094 79.8167 338.087H102.789C102.852 338.094 102.915 338.078 102.966 338.039C103.017 338.001 103.051 337.945 103.061 337.882L108.246 311.097L110.41 311.519L105.238 338.304C105.135 338.874 104.831 339.387 104.381 339.751C103.932 340.116 103.367 340.307 102.789 340.291Z" fill="#41917D"/>
<path d="M72.4544 302.835H110.56C111.213 302.835 111.744 303.543 111.744 304.428V310.226C111.744 311.11 111.213 311.832 110.56 311.832H72.4544C71.8012 311.832 71.2704 311.11 71.2704 310.226V304.428C71.216 303.543 71.7468 302.835 72.4544 302.835Z" fill="#CCEDE5"/>
<path d="M110.56 312.431H72.4544C71.9296 312.366 71.4504 312.1 71.1179 311.688C70.7853 311.277 70.6253 310.753 70.6717 310.226V304.428C70.6104 303.893 70.7638 303.357 71.0981 302.936C71.4324 302.514 71.9203 302.243 72.4544 302.182H110.56C111.085 302.24 111.566 302.503 111.9 302.913C112.233 303.323 112.392 303.847 112.342 304.373V310.171C112.375 310.437 112.354 310.706 112.282 310.964C112.21 311.221 112.087 311.462 111.921 311.672C111.756 311.882 111.55 312.057 111.316 312.187C111.083 312.318 110.825 312.4 110.56 312.431ZM72.4544 303.434C72.1823 303.434 71.8692 303.856 71.8692 304.428V310.226C71.8692 310.797 72.1823 311.219 72.4544 311.219H110.56C110.845 311.219 111.145 310.797 111.145 310.226V304.428C111.145 303.856 110.845 303.434 110.56 303.434H72.4544Z" fill="#40917D"/>
<path d="M110.559 312.322H72.4543C71.9558 312.26 71.5008 312.007 71.1858 311.616C70.8708 311.225 70.7205 310.726 70.7668 310.226V304.428C70.7205 303.927 70.8708 303.429 71.1858 303.038C71.5008 302.646 71.9558 302.393 72.4543 302.332H110.559C111.059 302.39 111.516 302.642 111.832 303.034C112.148 303.426 112.297 303.927 112.247 304.428V310.226C112.297 310.727 112.148 311.227 111.832 311.619C111.516 312.011 111.059 312.264 110.559 312.322ZM72.4543 303.339C72.1277 303.339 71.7738 303.788 71.7738 304.428V310.226C71.7738 310.879 72.1277 311.328 72.4543 311.328H110.559C110.886 311.328 111.24 310.879 111.24 310.226V304.428C111.24 303.788 110.886 303.339 110.559 303.339H72.4543Z" fill="#CCEDE5"/>
<path d="M110.56 312.934H72.4544C71.7907 312.875 71.1774 312.556 70.7488 312.046C70.3203 311.535 70.1114 310.876 70.1681 310.212V304.414C70.1114 303.75 70.3203 303.091 70.7488 302.581C71.1774 302.07 71.7907 301.751 72.4544 301.692H110.56C111.223 301.751 111.837 302.07 112.265 302.581C112.694 303.091 112.903 303.75 112.846 304.414V310.212C112.903 310.876 112.694 311.535 112.265 312.046C111.837 312.556 111.223 312.875 110.56 312.934ZM72.4544 303.938C72.3484 304.078 72.2954 304.252 72.3047 304.428V310.226C72.2941 310.32 72.3045 310.415 72.3351 310.504C72.3657 310.594 72.4157 310.675 72.4816 310.743H110.56C110.56 310.743 110.641 310.552 110.641 310.239V304.441C110.649 304.349 110.639 304.255 110.611 304.166C110.583 304.078 110.538 303.995 110.478 303.924L72.4544 303.938Z" fill="#40917D"/>
<path d="M76.537 280.065L78.415 280.296C79.0819 280.391 79.0819 279.33 78.415 279.248L76.537 279.044C75.8565 278.962 75.8701 280.024 76.537 280.106V280.065Z" fill="#50AA50"/>
<path d="M79.3269 271.735V272.674C79.3269 272.815 79.3828 272.95 79.4824 273.05C79.5819 273.149 79.7169 273.205 79.8577 273.205C79.9984 273.205 80.1334 273.149 80.233 273.05C80.3325 272.95 80.3884 272.815 80.3884 272.674V271.735C80.3884 271.594 80.3325 271.459 80.233 271.36C80.1334 271.26 79.9984 271.204 79.8577 271.204C79.7169 271.204 79.5819 271.26 79.4824 271.36C79.3828 271.459 79.3269 271.594 79.3269 271.735Z" fill="#50AA50"/>
<path d="M82.9877 281.439L84.3486 280.677C84.4536 280.599 84.5262 280.486 84.5525 280.358C84.5788 280.23 84.5571 280.097 84.4914 279.984C84.4257 279.871 84.3206 279.786 84.1964 279.746C84.0721 279.705 83.9373 279.712 83.8179 279.765L82.457 280.527C82.352 280.605 82.2794 280.719 82.2531 280.847C82.2268 280.975 82.2485 281.108 82.3142 281.221C82.38 281.334 82.485 281.419 82.6093 281.459C82.7335 281.499 82.8683 281.492 82.9877 281.439Z" fill="#50AA50"/>
<path d="M77.5577 293.621L79.2044 292.464C79.7623 292.083 79.2044 291.103 78.6736 291.552L77.0133 292.709C76.469 293.104 77.0133 294.07 77.5577 293.621Z" fill="#50AA50"/>
<path d="M73.5839 284.488L74.7678 284.951C75.3938 285.21 75.666 284.175 75.04 283.93L73.8696 283.467C73.23 283.222 72.9578 284.243 73.5839 284.488Z" fill="#50AA50"/>
<path d="M81.273 289.442C81.3829 289.452 81.4896 289.485 81.5858 289.539C81.682 289.593 81.7656 289.667 81.831 289.755C82.2529 290.286 83.0014 289.538 82.5795 289.007C82.4111 288.811 82.2023 288.653 81.9674 288.545C81.7325 288.437 81.4771 288.381 81.2186 288.381C80.5381 288.381 80.5381 289.388 81.2186 289.442H81.273Z" fill="#50AA50"/>
<path d="M83.5866 294.424C83.4739 295.12 83.5637 295.833 83.8451 296.479C84.1173 297.105 85.0291 296.561 84.7569 295.948C84.5921 295.553 84.5402 295.119 84.6072 294.696C84.7161 294.029 83.6954 293.743 83.5866 294.424Z" fill="#50AA50"/>
<path d="M89.1254 294.614L90.0508 294.859C90.1834 294.889 90.3221 294.866 90.4386 294.797C90.5551 294.727 90.6404 294.615 90.677 294.484C90.7136 294.354 90.6987 294.214 90.6354 294.094C90.5721 293.974 90.4652 293.882 90.3366 293.839L89.3976 293.594C89.2676 293.572 89.1344 293.6 89.0238 293.672C88.9132 293.743 88.8331 293.853 88.7992 293.981C88.7652 294.108 88.7798 294.243 88.8401 294.36C88.9004 294.478 89.0021 294.568 89.1254 294.614Z" fill="#50AA50"/>
<path d="M92.5005 284.202C92.4722 284.49 92.5144 284.781 92.6235 285.049C92.7326 285.317 92.9052 285.554 93.1265 285.74C93.6436 286.176 94.4057 285.441 93.875 284.992C93.753 284.904 93.6587 284.783 93.6033 284.643C93.5478 284.503 93.5335 284.35 93.562 284.202C93.562 283.522 92.5549 283.535 92.5005 284.202Z" fill="#50AA50"/>
<path d="M91.1531 276.635C91.0154 276.83 90.92 277.052 90.8731 277.287C90.8263 277.521 90.8289 277.763 90.8809 277.996C91.0034 278.663 92.024 278.377 91.9016 277.71C91.8839 277.615 91.8895 277.517 91.918 277.425C91.9464 277.332 91.9968 277.248 92.0649 277.179C92.4731 276.621 91.5613 276.09 91.1531 276.635Z" fill="#50AA50"/>
<path d="M96.9507 279.738V280.677C96.9507 280.818 97.0066 280.953 97.1061 281.053C97.2057 281.152 97.3407 281.208 97.4814 281.208C97.6222 281.208 97.7572 281.152 97.8567 281.053C97.9563 280.953 98.0122 280.818 98.0122 280.677V279.738C98.0122 279.597 97.9563 279.462 97.8567 279.363C97.7572 279.263 97.6222 279.207 97.4814 279.207C97.3407 279.207 97.2057 279.263 97.1061 279.363C97.0066 279.462 96.9507 279.597 96.9507 279.738Z" fill="#50AA50"/>
<path d="M87.1113 278.078L87.8189 278.54C88.3905 278.921 88.9213 278.01 88.3497 277.628L87.6556 277.166C87.0841 276.785 86.5533 277.697 87.1113 278.078Z" fill="#50AA50"/>
<path d="M88.8804 269.285C89.0788 269.508 89.1983 269.79 89.2206 270.088C89.2206 270.769 90.3229 270.769 90.2821 270.088C90.2477 269.512 90.0172 268.964 89.6289 268.537C89.1934 268.019 88.4449 268.782 88.8804 269.285Z" fill="#50AA50"/>
<path d="M91.5071 266.087V267.448C91.5071 267.589 91.563 267.724 91.6625 267.823C91.7621 267.923 91.8971 267.979 92.0378 267.979C92.1786 267.979 92.3136 267.923 92.4131 267.823C92.5127 267.724 92.5686 267.589 92.5686 267.448V266.087C92.5686 265.946 92.5127 265.811 92.4131 265.711C92.3136 265.612 92.1786 265.556 92.0378 265.556C91.8971 265.556 91.7621 265.612 91.6625 265.711C91.563 265.811 91.5071 265.946 91.5071 266.087Z" fill="#50AA50"/>
<path d="M98.1074 272.307L98.5565 272.797C99.0328 273.287 99.7813 272.538 99.305 272.048L98.8559 271.558C98.3796 271.068 97.6311 271.817 98.1074 272.307Z" fill="#50AA50"/>
<path d="M99.1554 266.005L100.516 266.087C101.197 266.087 101.197 265.066 100.516 265.025L99.1554 264.943C98.4749 264.943 98.4749 265.964 99.1554 266.005Z" fill="#50AA50"/>
<path d="M100.652 257.526L101.591 258.465C101.693 258.552 101.823 258.598 101.957 258.593C102.091 258.588 102.218 258.532 102.313 258.438C102.407 258.343 102.463 258.216 102.468 258.082C102.473 257.948 102.427 257.818 102.34 257.716L101.401 256.777C101.299 256.69 101.168 256.644 101.035 256.649C100.901 256.654 100.774 256.709 100.679 256.804C100.584 256.899 100.529 257.026 100.524 257.16C100.519 257.293 100.565 257.424 100.652 257.526Z" fill="#50AA50"/>
<path d="M104.735 254.804V256.45C104.735 256.591 104.791 256.726 104.89 256.826C104.99 256.925 105.125 256.981 105.266 256.981C105.406 256.981 105.541 256.925 105.641 256.826C105.74 256.726 105.796 256.591 105.796 256.45V254.804C105.796 254.663 105.74 254.528 105.641 254.428C105.541 254.329 105.406 254.273 105.266 254.273C105.125 254.273 104.99 254.329 104.89 254.428C104.791 254.528 104.735 254.663 104.735 254.804Z" fill="#50AA50"/>
<path d="M106.654 264.698L107.117 263.991C107.498 263.433 106.572 262.902 106.205 263.46L105.742 264.168C105.361 264.739 106.273 265.27 106.654 264.698Z" fill="#50AA50"/>
<path d="M103.061 275.097L104.245 274.648C104.871 274.403 104.599 273.368 103.959 273.627L102.775 274.076C102.149 274.321 102.421 275.342 103.061 275.097Z" fill="#50AA50"/>
<path d="M107.742 273.6L108.926 273.355C109.593 273.219 109.307 272.198 108.641 272.334L107.47 272.579C106.803 272.715 107.076 273.736 107.742 273.6Z" fill="#50AA50"/>
<path d="M104.735 278.554V278.799C104.735 278.94 104.791 279.075 104.89 279.174C104.99 279.274 105.125 279.33 105.266 279.33C105.406 279.33 105.541 279.274 105.641 279.174C105.74 279.075 105.796 278.94 105.796 278.799V278.554C105.796 278.413 105.74 278.278 105.641 278.179C105.541 278.079 105.406 278.023 105.266 278.023C105.125 278.023 104.99 278.079 104.89 278.179C104.791 278.278 104.735 278.413 104.735 278.554Z" fill="#50AA50"/>
<path d="M95.5896 294.764L96.2973 294.301C96.8552 293.92 96.2973 293.008 95.7529 293.389L95.0588 293.852C94.4873 294.233 95.0588 295.145 95.5896 294.764Z" fill="#50AA50"/>
<path d="M95.0181 298.67C95.4175 298.283 95.917 298.014 96.4606 297.895C97.1275 297.745 96.8417 296.724 96.1885 296.874C95.4681 297.049 94.8064 297.41 94.2696 297.922C93.7797 298.398 94.5282 299.147 95.0181 298.67Z" fill="#50AA50"/>
<path d="M90.6631 299.31L90.9081 299.773C91.2075 300.385 92.1193 299.773 91.8199 299.242L91.5749 298.766C91.2619 298.167 90.3501 298.698 90.6631 299.31Z" fill="#50AA50"/>
<path d="M86.6348 300.44C87.19 300.748 87.8395 300.84 88.4585 300.698C89.1253 300.562 88.8395 299.541 88.1863 299.678C87.8396 299.764 87.473 299.71 87.1656 299.528C86.5668 299.215 86.0224 300.127 86.6348 300.44Z" fill="#50AA50"/>
<path d="M95.3856 290.409L97.495 290.137C98.1619 290.055 98.1755 288.993 97.495 289.075L95.3856 289.347C94.7188 289.429 94.7052 290.49 95.3856 290.409Z" fill="#50AA50"/>
<path d="M190.186 244.01L224.358 213.114C226.046 211.59 223.555 209.099 221.868 210.61L187.695 241.52C186.008 243.044 188.498 245.535 190.186 244.01Z" fill="#D7FFF5"/>
<path d="M228.808 259.771L262.98 228.875C264.668 227.351 262.164 224.86 260.476 226.371L226.318 257.267C224.63 258.791 227.134 261.282 228.808 259.758V259.771Z" fill="#D7FFF5"/>
<path d="M186.838 271.449L258.476 201.586C260.109 200.007 257.605 197.503 255.986 199.095L184.348 268.959C182.715 270.537 185.219 273.042 186.838 271.449Z" fill="#D7FFF5"/>
<path d="M296.322 54.2245H294.785V152.819H296.322V54.2245Z" fill="#41917D"/>
<path d="M301.821 152.806C301.821 154.044 301.453 155.255 300.766 156.284C300.078 157.314 299.1 158.116 297.956 158.59C296.812 159.064 295.553 159.188 294.339 158.946C293.125 158.705 292.009 158.109 291.134 157.233C290.258 156.357 289.662 155.242 289.421 154.027C289.179 152.813 289.303 151.554 289.777 150.41C290.251 149.266 291.053 148.288 292.082 147.6C293.112 146.912 294.322 146.545 295.56 146.545C296.383 146.545 297.197 146.707 297.956 147.022C298.716 147.336 299.406 147.797 299.987 148.379C300.568 148.96 301.029 149.65 301.344 150.41C301.659 151.17 301.821 151.984 301.821 152.806Z" fill="#41917D"/>
<path d="M295.642 173.807C294.289 173.758 292.998 173.221 292.009 172.296C291.497 171.751 291.101 171.109 290.844 170.407C290.587 169.706 290.474 168.959 290.512 168.213C290.512 168.104 290.533 167.996 290.575 167.895C290.616 167.795 290.678 167.703 290.755 167.626C290.832 167.549 290.923 167.488 291.024 167.446C291.125 167.404 291.233 167.383 291.342 167.383C291.451 167.383 291.559 167.404 291.659 167.446C291.76 167.488 291.852 167.549 291.929 167.626C292.006 167.703 292.067 167.795 292.109 167.895C292.15 167.996 292.172 168.104 292.172 168.213C292.137 168.743 292.208 169.275 292.381 169.777C292.554 170.28 292.825 170.743 293.179 171.139C293.857 171.755 294.728 172.116 295.642 172.16C296.765 172.16 297.841 171.714 298.635 170.92C299.429 170.126 299.875 169.05 299.875 167.927C299.875 166.805 299.429 165.728 298.635 164.934C297.841 164.14 296.765 163.694 295.642 163.694C295.534 163.694 295.426 163.673 295.327 163.631C295.227 163.589 295.136 163.528 295.06 163.45C294.984 163.373 294.924 163.281 294.884 163.181C294.844 163.08 294.824 162.972 294.826 162.864V158.264C294.811 158.147 294.821 158.028 294.855 157.915C294.89 157.802 294.948 157.698 295.026 157.609C295.104 157.521 295.199 157.45 295.307 157.401C295.414 157.353 295.531 157.327 295.649 157.327C295.767 157.327 295.884 157.353 295.991 157.401C296.099 157.45 296.194 157.521 296.272 157.609C296.35 157.698 296.408 157.802 296.443 157.915C296.477 158.028 296.487 158.147 296.472 158.264V162.088C297.955 162.291 299.305 163.05 300.248 164.212C301.191 165.374 301.657 166.851 301.552 168.343C301.446 169.836 300.777 171.233 299.679 172.25C298.582 173.267 297.138 173.829 295.642 173.821V173.807Z" fill="#41917D"/>
<path d="M262.79 177.659C262.63 177.632 262.482 177.557 262.367 177.442C262.253 177.327 262.177 177.179 262.15 177.019C262.123 176.817 262.176 176.613 262.298 176.45C262.421 176.287 262.602 176.178 262.804 176.148L296.676 171.153C296.776 171.139 296.877 171.144 296.974 171.169C297.071 171.194 297.162 171.237 297.242 171.297C297.323 171.357 297.39 171.432 297.441 171.519C297.493 171.605 297.526 171.7 297.541 171.799C297.555 171.899 297.549 172 297.525 172.097C297.5 172.194 297.456 172.285 297.396 172.365C297.336 172.446 297.261 172.513 297.175 172.565C297.089 172.616 296.993 172.649 296.894 172.664L262.98 177.659C262.917 177.668 262.853 177.668 262.79 177.659Z" fill="#41917D"/>
<path d="M327.8 188.928H327.582L296.431 172.596C296.253 172.5 296.118 172.338 296.057 172.145C295.996 171.952 296.013 171.742 296.105 171.561C296.151 171.471 296.214 171.392 296.291 171.326C296.368 171.261 296.457 171.212 296.554 171.182C296.65 171.151 296.751 171.14 296.852 171.149C296.952 171.159 297.05 171.187 297.139 171.235L328.29 187.567C328.38 187.613 328.46 187.677 328.525 187.754C328.59 187.831 328.639 187.92 328.67 188.016C328.7 188.112 328.711 188.214 328.702 188.314C328.693 188.415 328.664 188.512 328.617 188.602C328.53 188.732 328.405 188.834 328.259 188.892C328.113 188.95 327.953 188.963 327.8 188.928Z" fill="#41917D"/>
<path d="M336.284 190.472L253.329 176.052C248.982 175.297 244.846 178.208 244.091 182.556L235.79 230.32C235.034 234.668 237.945 238.804 242.292 239.56L325.247 253.98C329.594 254.735 333.73 251.824 334.486 247.477L342.787 199.712C343.542 195.365 340.631 191.228 336.284 190.472Z" fill="white"/>
<path d="M326.398 255.089C325.86 255.091 325.323 255.046 324.793 254.953L242.417 240.635C241.208 240.426 240.051 239.981 239.014 239.324C237.977 238.668 237.079 237.813 236.373 236.809C235.666 235.806 235.164 234.672 234.896 233.474C234.628 232.276 234.599 231.037 234.81 229.828L242.975 182.654C243.401 180.212 244.778 178.04 246.804 176.613C248.83 175.187 251.339 174.623 253.781 175.046L336.143 189.364C337.351 189.573 338.506 190.018 339.542 190.673C340.578 191.329 341.475 192.182 342.182 193.185C342.888 194.187 343.39 195.318 343.659 196.515C343.928 197.711 343.959 198.949 343.75 200.157L335.585 247.345C335.207 249.509 334.08 251.472 332.4 252.888C330.72 254.304 328.595 255.084 326.398 255.089ZM252.216 176.965C250.515 176.968 248.87 177.57 247.568 178.665C246.267 179.76 245.392 181.278 245.098 182.953L236.933 230.141C236.765 231.076 236.784 232.036 236.989 232.964C237.195 233.892 237.582 234.769 238.129 235.547C238.675 236.324 239.371 236.985 240.175 237.492C240.979 237.998 241.875 238.34 242.812 238.498L325.174 252.816C327.061 253.141 329 252.704 330.566 251.602C332.132 250.5 333.197 248.823 333.53 246.937L341.695 199.749C341.859 198.814 341.837 197.856 341.631 196.929C341.424 196.003 341.036 195.126 340.49 194.35C339.944 193.573 339.25 192.912 338.448 192.405C337.646 191.897 336.751 191.553 335.816 191.392L253.454 177.128C253.046 177.04 252.632 176.986 252.216 176.965Z" fill="#41917D"/>
<path d="M333.954 195.137L253.949 181.23C251.172 180.747 248.529 182.607 248.047 185.385L240.466 229.006C239.983 231.783 241.843 234.426 244.62 234.908L324.625 248.816C327.402 249.298 330.045 247.438 330.527 244.661L338.108 201.04C338.591 198.263 336.731 195.62 333.954 195.137Z" fill="#CCEDE5"/>
<path d="M325.378 249.89C325.008 249.892 324.639 249.86 324.275 249.795L244.649 235.966C243 235.668 241.534 234.735 240.566 233.367C240.082 232.686 239.739 231.915 239.556 231.099C239.374 230.283 239.357 229.439 239.505 228.617L247.017 185.362C247.16 184.541 247.464 183.755 247.911 183.051C248.358 182.347 248.939 181.738 249.622 181.259C250.304 180.78 251.075 180.44 251.889 180.259C252.703 180.078 253.545 180.059 254.366 180.204L333.992 194.032C335.651 194.325 337.126 195.262 338.095 196.64C339.064 198.017 339.448 199.722 339.164 201.382L331.638 244.623C331.385 246.094 330.621 247.429 329.481 248.392C328.341 249.356 326.898 249.886 325.405 249.89H325.378ZM324.629 247.712C325.178 247.809 325.741 247.796 326.285 247.675C326.829 247.553 327.344 247.326 327.8 247.005C328.254 246.688 328.641 246.284 328.937 245.817C329.234 245.35 329.435 244.828 329.528 244.283L337.041 201.028C337.137 200.48 337.123 199.919 337.002 199.376C336.881 198.833 336.654 198.32 336.334 197.865C336.015 197.41 335.608 197.022 335.139 196.724C334.669 196.426 334.145 196.224 333.598 196.128L253.971 182.3C252.865 182.11 251.729 182.366 250.811 183.011C249.893 183.656 249.268 184.639 249.072 185.743L241.56 228.998C241.464 229.545 241.477 230.105 241.599 230.647C241.72 231.189 241.947 231.702 242.267 232.156C242.587 232.61 242.993 232.996 243.463 233.293C243.932 233.589 244.456 233.79 245.003 233.884L324.629 247.712Z" fill="#40917D"/>
<path d="M286.688 242.2L307.387 223.227L318.846 247.78L286.688 242.2Z" fill="white"/>
<path d="M320.057 248.706L285.15 242.649L307.618 222.043L320.057 248.706ZM288.225 241.751L317.634 246.855L307.155 224.384L288.225 241.751Z" fill="#41917D"/>
<path d="M245.751 235.082L282.455 201.436L302.76 244.99L245.751 235.082Z" fill="white"/>
<path d="M303.984 245.916L244.214 235.49L282.686 200.225L303.984 245.916ZM247.289 234.633L301.562 244.065L282.224 202.607L247.289 234.633Z" fill="#41917D"/>
<path d="M326.099 207.82C325.925 208.82 325.459 209.745 324.759 210.48C324.059 211.215 323.157 211.726 322.167 211.948C321.177 212.17 320.144 212.094 319.197 211.728C318.25 211.363 317.433 210.725 316.849 209.895C316.265 209.066 315.94 208.081 315.915 207.067C315.89 206.052 316.167 205.053 316.71 204.196C317.253 203.339 318.037 202.662 318.965 202.25C319.893 201.839 320.921 201.712 321.921 201.886C322.585 202.001 323.22 202.246 323.789 202.606C324.358 202.967 324.851 203.436 325.239 203.987C325.627 204.538 325.903 205.16 326.05 205.818C326.198 206.476 326.214 207.156 326.099 207.82Z" fill="white"/>
<path d="M321.05 212.774C320.713 212.775 320.376 212.747 320.043 212.692C319.283 212.561 318.556 212.28 317.904 211.866C317.253 211.452 316.691 210.913 316.249 210.281C315.807 209.648 315.495 208.934 315.331 208.18C315.167 207.425 315.154 206.646 315.293 205.887C315.418 205.131 315.693 204.408 316.102 203.761C316.512 203.113 317.046 202.554 317.675 202.117C318.3 201.67 319.008 201.351 319.757 201.177C320.506 201.003 321.281 200.979 322.04 201.106C322.798 201.232 323.524 201.507 324.176 201.914C324.828 202.321 325.394 202.852 325.84 203.478C326.732 204.748 327.084 206.318 326.82 207.847C326.69 208.603 326.411 209.325 326 209.972C325.589 210.619 325.054 211.178 324.425 211.617C323.452 212.353 322.27 212.758 321.05 212.774ZM321.05 202.512C320.238 202.512 319.442 202.735 318.749 203.156C318.055 203.577 317.49 204.18 317.115 204.9C316.74 205.62 316.57 206.429 316.623 207.239C316.677 208.049 316.951 208.829 317.416 209.494C317.923 210.208 318.629 210.756 319.446 211.07C320.263 211.384 321.155 211.449 322.009 211.257C322.863 211.065 323.641 210.624 324.245 209.991C324.85 209.357 325.253 208.559 325.405 207.697C325.603 206.541 325.334 205.353 324.658 204.394C323.982 203.435 322.954 202.783 321.799 202.58C321.542 202.537 321.283 202.514 321.023 202.512H321.05Z" fill="#41917D"/>
<path d="M359.019 50.9035H282.087V59.3693H359.019V50.9035Z" fill="#CCEDE5"/>
<path d="M425.867 225.963H400.336V0.108887H425.867V225.963ZM402.854 223.431H423.349V2.64045H402.854V223.431Z" fill="#41917D"/>
<path d="M425.554 24.8937H400.649V0.0272217H425.554V24.8937ZM403.153 22.3349H422.941V2.55879H403.153V22.3349Z" fill="#41917D"/>
<path d="M402.835 0.381791L401.025 2.19113L423.36 24.5287L425.17 22.7194L402.835 0.381791Z" fill="#41917D"/>
<path d="M423.351 0.381799L401.016 22.7194L402.825 24.5287L425.16 2.19113L423.351 0.381799Z" fill="#41917D"/>
<path d="M425.554 47.2423H400.649V22.335H425.554V47.2423ZM403.153 44.6835H422.941V24.8937H403.153V44.6835Z" fill="#41917D"/>
<path d="M402.826 22.7081L401.017 24.5174L423.352 46.855L425.161 45.0457L402.826 22.7081Z" fill="#41917D"/>
<path d="M423.352 22.7177L401.017 45.0553L402.826 46.8646L425.161 24.527L423.352 22.7177Z" fill="#41917D"/>
<path d="M425.554 69.5772H400.649V44.6835H425.554V69.5772ZM403.153 67.0185H422.941V47.2423H403.153V67.0185Z" fill="#41917D"/>
<path d="M402.827 45.0576L401.018 46.8669L423.353 69.2045L425.162 67.3952L402.827 45.0576Z" fill="#41917D"/>
<path d="M423.357 45.0712L401.021 67.4088L402.831 69.2181L425.166 46.8805L423.357 45.0712Z" fill="#41917D"/>
<path d="M425.554 91.9258H400.649V67.0185H425.554V91.9258ZM403.153 89.367H422.941V69.5773H403.153V89.367Z" fill="#41917D"/>
<path d="M402.832 67.3974L401.022 69.2068L423.358 91.5444L425.167 89.7351L402.832 67.3974Z" fill="#41917D"/>
<path d="M423.357 67.4071L401.022 89.7447L402.832 91.554L425.167 69.2164L423.357 67.4071Z" fill="#41917D"/>
<path d="M425.554 114.261H400.649V89.367H425.554V114.261ZM403.153 111.702H422.941V91.9258H403.153V111.702Z" fill="#41917D"/>
<path d="M402.833 89.7469L401.023 91.5563L423.358 113.894L425.168 112.085L402.833 89.7469Z" fill="#41917D"/>
<path d="M423.362 89.7606L401.027 112.098L402.836 113.907L425.172 91.5699L423.362 89.7606Z" fill="#41917D"/>
<path d="M425.554 136.596H400.649V111.702H425.554V136.596ZM403.153 134.037H422.941V114.261H403.153V134.037Z" fill="#41917D"/>
<path d="M402.824 112.073L401.015 113.883L423.35 136.22L425.159 134.411L402.824 112.073Z" fill="#41917D"/>
<path d="M423.363 112.11L401.028 134.448L402.837 136.257L425.172 113.919L423.363 112.11Z" fill="#41917D"/>
<path d="M425.554 158.944H400.649V134.037H425.554V158.944ZM403.153 156.385H422.941V136.596H403.153V156.385Z" fill="#41917D"/>
<path d="M402.829 134.413L401.02 136.222L423.355 158.56L425.164 156.751L402.829 134.413Z" fill="#41917D"/>
<path d="M423.355 134.45L401.02 156.788L402.829 158.597L425.164 136.259L423.355 134.45Z" fill="#41917D"/>
<path d="M425.554 181.279H400.649V156.385H425.554V181.279ZM403.153 178.72H422.941V158.944H403.153V178.72Z" fill="#41917D"/>
<path d="M402.83 156.763L401.021 158.572L423.356 180.91L425.165 179.1L402.83 156.763Z" fill="#41917D"/>
<path d="M423.36 156.776L401.025 179.114L402.834 180.923L425.169 158.586L423.36 156.776Z" fill="#41917D"/>
<path d="M425.554 203.628H400.649V178.72H425.554V203.628ZM403.153 201.069H422.941V181.279H403.153V201.069Z" fill="#41917D"/>
<path d="M402.835 179.102L401.025 180.912L423.36 203.249L425.17 201.44L402.835 179.102Z" fill="#41917D"/>
<path d="M423.361 179.126L401.026 201.463L402.835 203.273L425.17 180.935L423.361 179.126Z" fill="#41917D"/>
<path d="M425.554 225.963H400.649V201.069H425.554V225.963ZM403.153 223.404H422.941V203.628H403.153V223.404Z" fill="#41917D"/>
<path d="M402.836 201.438L401.026 203.248L423.361 225.585L425.171 223.776L402.836 201.438Z" fill="#41917D"/>
<path d="M423.358 201.432L401.019 223.766L402.828 225.576L425.167 203.242L423.358 201.432Z" fill="#41917D"/>
<path d="M470.001 46.902H445.096V21.9947H470.001V46.902ZM447.655 44.3432H467.442V24.5263H447.655V44.3432Z" fill="#41917D"/>
<path d="M467.802 22.3853L445.471 44.7269L447.28 46.5359L469.612 24.1944L467.802 22.3853Z" fill="#41917D"/>
<path d="M447.279 22.3898L445.47 24.1992L467.805 46.5368L469.614 44.7274L447.279 22.3898Z" fill="#41917D"/>
<path d="M447.655 46.902H422.764V21.9947H447.655V46.902ZM425.322 44.3432H445.096V24.5263H425.322V44.3432Z" fill="#41917D"/>
<path d="M445.468 22.3794L423.136 44.7209L424.946 46.5299L447.277 24.1884L445.468 22.3794Z" fill="#41917D"/>
<path d="M424.941 22.3812L423.132 24.1905L445.467 46.5281L447.276 44.7187L424.941 22.3812Z" fill="#41917D"/>
<path d="M425.322 46.902H400.431V21.9947H425.322V46.902ZM402.99 44.3432H422.764V24.5263H402.99V44.3432Z" fill="#41917D"/>
<path d="M402.99 46.902H378.085V21.9947H402.99V46.902ZM380.644 44.3432H400.431V24.5263H380.644V44.3432Z" fill="#41917D"/>
<path d="M400.787 22.387L378.452 44.7246L380.261 46.534L402.596 24.1964L400.787 22.387Z" fill="#41917D"/>
<path d="M380.271 22.3734L378.462 24.1827L400.797 46.5203L402.606 44.711L380.271 22.3734Z" fill="#41917D"/>
<path d="M380.644 46.902H355.753V21.9947H380.644V46.902ZM358.312 44.3432H378.086V24.5263H358.312V44.3432Z" fill="#41917D"/>
<path d="M378.45 22.3783L356.115 44.7159L357.924 46.5253L380.259 24.1877L378.45 22.3783Z" fill="#41917D"/>
<path d="M357.924 22.388L356.115 24.1973L378.45 46.5349L380.259 44.7256L357.924 22.388Z" fill="#41917D"/>
<path d="M358.312 46.902H333.407V21.9947H358.312V46.902ZM335.966 44.3432H355.753V24.5263H335.966V44.3432Z" fill="#41917D"/>
<path d="M334.686 46.902H312.354C312.103 46.8925 311.859 46.8137 311.651 46.6744C311.442 46.5351 311.275 46.3406 311.17 46.1126C311.08 45.8836 311.057 45.6334 311.105 45.392C311.154 45.1505 311.271 44.9282 311.442 44.7515L333.747 22.3758L335.557 24.186L315.402 44.3432H334.156L356.12 22.3758L357.93 24.186L335.598 46.5209C335.353 46.7577 335.027 46.8937 334.686 46.902Z" fill="#41917D"/>
<path d="M335.586 22.3793L333.777 24.1886L356.112 46.5262L357.922 44.7169L335.586 22.3793Z" fill="#41917D"/>
<path d="M425.921 250.843H400.336V225.963H425.921V250.843ZM402.963 248.27H423.295V228.494H402.963V248.27Z" fill="#41917D"/>
<path d="M423.676 250.462L400.717 228.127L402.568 226.317L425.54 248.652L423.676 250.462Z" fill="#41917D"/>
<path d="M402.568 250.462L400.717 248.652L423.676 226.317L425.54 228.127L402.568 250.462Z" fill="#41917D"/>
<path d="M425.921 340.196H400.336V315.303H425.921V340.196ZM402.963 337.637H423.295V317.861H402.963V337.637Z" fill="#41917D"/>
<path d="M423.676 339.829L400.717 317.48L402.568 315.684L425.54 338.019L423.676 339.829Z" fill="#41917D"/>
<path d="M402.568 339.829L400.717 338.019L423.676 315.684L425.54 317.48L402.568 339.829Z" fill="#41917D"/>
<path d="M425.921 271.055H400.336V246.161H425.921V271.055ZM402.963 268.496H423.295V248.72H402.963V268.496Z" fill="#41917D"/>
<path d="M423.676 270.687L400.717 248.352L402.568 246.542L425.54 268.877L423.676 270.687Z" fill="#41917D"/>
<path d="M402.568 270.687L400.717 268.877L423.676 246.542L425.54 248.352L402.568 270.687Z" fill="#41917D"/>
<path d="M425.921 293.403H400.336V268.496H425.921V293.403ZM402.963 290.844H423.295V271.055H402.963V290.844Z" fill="#41917D"/>
<path d="M423.676 293.022L400.717 270.687L402.568 268.877L425.54 291.225L423.676 293.022Z" fill="#41917D"/>
<path d="M402.568 293.022L400.717 291.225L423.676 268.877L425.54 270.687L402.568 293.022Z" fill="#41917D"/>
<path d="M425.921 315.792H400.336V290.844H425.921V315.792ZM402.963 313.234H423.295V293.403H402.963V313.234Z" fill="#41917D"/>
<path d="M423.676 315.371L400.717 293.022L402.568 291.225L425.54 313.56L423.676 315.371Z" fill="#41917D"/>
<path d="M402.568 315.371L400.717 313.56L423.676 291.225L425.54 293.022L402.568 315.371Z" fill="#41917D"/>
<path d="M140.309 135.493C140.841 135.451 141.337 135.209 141.699 134.817C142.061 134.425 142.262 133.911 142.262 133.377C142.262 132.843 142.061 132.329 141.699 131.937C141.337 131.545 140.841 131.303 140.309 131.26C139.777 131.303 139.281 131.545 138.919 131.937C138.557 132.329 138.356 132.843 138.356 133.377C138.356 133.911 138.557 134.425 138.919 134.817C139.281 135.209 139.777 135.451 140.309 135.493Z" fill="#40917D"/>
<path d="M369.893 91.2181C370.425 91.1754 370.921 90.9339 371.283 90.5417C371.645 90.1495 371.846 89.6353 371.846 89.1016C371.846 88.5679 371.645 88.0538 371.283 87.6616C370.921 87.2694 370.425 87.0279 369.893 86.9852C369.361 87.0279 368.865 87.2694 368.503 87.6616C368.141 88.0538 367.94 88.5679 367.94 89.1016C367.94 89.6353 368.141 90.1495 368.503 90.5417C368.865 90.9339 369.361 91.1754 369.893 91.2181Z" fill="#40917D"/>
<path d="M464.925 242.772H465.864C466.156 242.795 466.45 242.758 466.727 242.662C467.004 242.566 467.258 242.414 467.473 242.216C467.689 242.017 467.861 241.775 467.978 241.507C468.096 241.238 468.157 240.948 468.157 240.655C468.157 240.362 468.096 240.072 467.978 239.804C467.861 239.535 467.689 239.294 467.473 239.095C467.258 238.896 467.004 238.744 466.727 238.648C466.45 238.553 466.156 238.515 465.864 238.539H464.925C464.633 238.515 464.339 238.553 464.062 238.648C463.785 238.744 463.53 238.896 463.315 239.095C463.1 239.294 462.928 239.535 462.81 239.804C462.693 240.072 462.632 240.362 462.632 240.655C462.632 240.948 462.693 241.238 462.81 241.507C462.928 241.775 463.1 242.017 463.315 242.216C463.53 242.414 463.785 242.566 464.062 242.662C464.339 242.758 464.633 242.795 464.925 242.772Z" fill="#40917D"/>
<path d="M56.5727 273.831C57.1358 273.831 57.6758 273.607 58.0739 273.209C58.4721 272.811 58.6957 272.271 58.6957 271.708C58.6957 271.145 58.4721 270.605 58.0739 270.206C57.6758 269.808 57.1358 269.585 56.5727 269.585C56.0097 269.585 55.4697 269.808 55.0715 270.206C54.6734 270.605 54.4497 271.145 54.4497 271.708C54.4497 272.271 54.6734 272.811 55.0715 273.209C55.4697 273.607 56.0097 273.831 56.5727 273.831Z" fill="#40917D"/>
<path d="M258.898 70.5708C259.43 70.5281 259.926 70.2866 260.288 69.8944C260.65 69.5022 260.851 68.9881 260.851 68.4544C260.851 67.9206 260.65 67.4065 260.288 67.0143C259.926 66.6221 259.43 66.3806 258.898 66.3379C258.366 66.3806 257.869 66.6221 257.507 67.0143C257.146 67.4065 256.945 67.9206 256.945 68.4544C256.945 68.9881 257.146 69.5022 257.507 69.8944C257.869 70.2866 258.366 70.5281 258.898 70.5708Z" fill="#40917D"/>
<ellipse cx="107" cy="125" rx="94" ry="70" fill="#007B5D" fill-opacity="0.05"/>
</g>
<defs>
<clipPath id="clip0_319_1091">
<rect width="545" height="343" fill="white"/>
</clipPath>
</defs>
</svg>
