<svg width="24" height="24" viewBox="0 0 24 24" fill="none" xmlns="http://www.w3.org/2000/svg">
<g id="ant-design:customer-service-outlined" clip-path="url(#clip0_191_1793)">
<path id="Vector" d="M12 0.54541C5.67315 0.54541 0.545456 5.67311 0.545456 12V22.7386C0.545456 23.1353 0.864632 23.4545 1.26136 23.4545H6.75C7.80298 23.4545 8.65909 22.5984 8.65909 21.5454V15.3409C8.65909 14.2879 7.80298 13.4318 6.75 13.4318H2.69318V12C2.69318 6.86032 6.86037 2.69314 12 2.69314C17.1396 2.69314 21.3068 6.86032 21.3068 12V13.4318H17.25C16.197 13.4318 15.3409 14.2879 15.3409 15.3409V21.5454C15.3409 22.5984 16.197 23.4545 17.25 23.4545H22.7386C23.1354 23.4545 23.4545 23.1353 23.4545 22.7386V12C23.4545 5.67311 18.3268 0.54541 12 0.54541ZM6.51136 15.5795V21.3068H2.69318V15.5795H6.51136ZM21.3068 21.3068H17.4886V15.5795H21.3068V21.3068Z" fill="white"/>
</g>
<defs>
<clipPath id="clip0_191_1793">
<rect width="24" height="24" fill="white"/>
</clipPath>
</defs>
</svg>
