<svg width="29" height="34" viewBox="0 0 29 34" fill="none" xmlns="http://www.w3.org/2000/svg">
<path d="M23.8996 32.4604C22.0795 34.2248 20.0923 33.9462 18.1793 33.1105C16.1549 32.2561 14.2977 32.219 12.1618 33.1105C9.48738 34.2619 8.07588 33.9276 6.47864 32.4604C-2.58472 23.1185 -1.24751 8.89195 9.04164 8.37192C11.5489 8.50193 13.2947 9.74629 14.762 9.85772C16.9535 9.41198 19.0522 8.13048 21.3923 8.29763C24.1968 8.5205 26.314 9.63485 27.707 11.6407C21.9124 15.1137 23.2867 22.747 28.5985 24.8829C27.5398 27.6687 26.1655 30.436 23.8811 32.479L23.8996 32.4604ZM14.5762 8.26049C14.2977 4.11883 17.6593 0.701492 21.5223 0.367188C22.0609 5.15889 17.1764 8.7248 14.5762 8.26049Z" fill="#1E1E1E"/>
</svg>
