<svg width="32" height="39" viewBox="0 0 32 39" fill="none" xmlns="http://www.w3.org/2000/svg">
<path id="Vector" d="M26.6621 36.9671C24.5945 38.9714 22.337 38.6549 20.1638 37.7055C17.8641 36.735 15.7543 36.6928 13.328 37.7055C10.2898 39.0136 8.68635 38.6338 6.87189 36.9671C-3.42409 26.3546 -1.90501 10.1933 9.78346 9.60254C12.6317 9.75022 14.615 11.1638 16.2817 11.2904C18.7713 10.784 21.1555 9.32826 23.8139 9.51814C26.9997 9.77132 29.4049 11.0372 30.9873 13.3158C24.4046 17.2612 25.9659 25.9326 32 28.359C30.7974 31.5237 29.2361 34.6674 26.641 36.9882L26.6621 36.9671ZM16.0708 9.47595C15.7543 4.77102 19.5731 0.888925 23.9615 0.509155C24.5734 5.95252 19.0245 10.0034 16.0708 9.47595Z" fill="white"/>
</svg>
