<?xml version="1.0"?>
<svg xmlns="http://www.w3.org/2000/svg" xmlns:xlink="http://www.w3.org/1999/xlink" xmlns:svgjs="http://svgjs.com/svgjs" version="1.1" width="512" height="512" x="0" y="0" viewBox="0 0 384 384" style="enable-background:new 0 0 512 512" xml:space="preserve" class=""><g>
<g xmlns="http://www.w3.org/2000/svg">
	<g>
		<g>
			<path d="M192,56c-15.464,0-28,12.536-28,28s12.536,28,28,28s28-12.536,28-28S207.464,56,192,56z M192,96c-6.616,0-12-5.384-12-12     c0-6.616,5.384-12,12-12c6.616,0,12,5.384,12,12C204,90.616,198.616,96,192,96z" fill="#7fbcad" data-original="#000000" style="" class=""/>
			<path d="M384,144v-32L192,16L0,112v32h32v160H0v64h11.696H48h336v-64h-32V144H384z M368,320v32H16v-32     c189.88,0,266.584,0,275.36,0c1.456,0,1.952,0,1.936,0C298.456,320,315.936,320,368,320z M48,304V144h32v160H48z M96,304V144h64     v160H96z M176,304V144h32v160H176z M224,304V144h64v160H224z M304,304V144h32v160H304z M16,128v-6.112l176-88l176,88V128     C328.552,128,54.08,128,16,128z" fill="#7fbcad" data-original="#000000" style="" class=""/>
		</g>
	</g>
</g>
<g xmlns="http://www.w3.org/2000/svg">
</g>
<g xmlns="http://www.w3.org/2000/svg">
</g>
<g xmlns="http://www.w3.org/2000/svg">
</g>
<g xmlns="http://www.w3.org/2000/svg">
</g>
<g xmlns="http://www.w3.org/2000/svg">
</g>
<g xmlns="http://www.w3.org/2000/svg">
</g>
<g xmlns="http://www.w3.org/2000/svg">
</g>
<g xmlns="http://www.w3.org/2000/svg">
</g>
<g xmlns="http://www.w3.org/2000/svg">
</g>
<g xmlns="http://www.w3.org/2000/svg">
</g>
<g xmlns="http://www.w3.org/2000/svg">
</g>
<g xmlns="http://www.w3.org/2000/svg">
</g>
<g xmlns="http://www.w3.org/2000/svg">
</g>
<g xmlns="http://www.w3.org/2000/svg">
</g>
<g xmlns="http://www.w3.org/2000/svg">
</g>
</g></svg>
