<svg width="217" height="217" viewBox="0 0 217 217" fill="none" xmlns="http://www.w3.org/2000/svg">
<path fill-rule="evenodd" clip-rule="evenodd" d="M69.3664 29.0876L187.561 147.282L187.383 205.061L176 215L176 193.678L22.6274 40.3052L0.366668 39.9385L11.3137 28.9914L69.3664 29.0876Z" fill="url(#paint0_linear_1789_4209)"/>
<path d="M45.2552 43.1601L52.2839 36.1315L54.6004 38.448C55.1943 39.0419 55.5738 39.5468 55.7388 39.9626C55.9566 40.484 56.0061 41.0152 55.8873 41.5564C55.7685 42.0976 55.4748 42.6025 55.0062 43.071C54.5773 43.5 54.079 43.7871 53.5114 43.9323C52.9504 44.0709 52.4159 44.0313 51.9077 43.8135L51.8879 43.8333C51.8747 43.9653 51.8285 44.1633 51.7493 44.4273L50.5812 48.4861L49.1457 47.0506L50.3832 43.0413L49.1556 41.8138L46.5323 44.4372L45.2552 43.1601ZM50.2644 40.7051L51.4127 41.8534C51.7559 42.1966 52.1255 42.3682 52.5215 42.3682C52.924 42.3616 53.2969 42.1867 53.6401 41.8435C54.1285 41.3551 54.2638 40.8502 54.046 40.3289C53.947 40.0715 53.7292 39.7745 53.3926 39.4379L52.4621 38.5074L50.2644 40.7051ZM51.8844 49.7893L58.9131 42.7607L63.1203 46.968L62.0215 48.0668L59.0913 45.1365L57.2499 46.9779L59.6159 49.3438L58.5171 50.4427L56.1511 48.0767L54.2603 49.9675L57.3489 53.0561L56.2501 54.155L51.8844 49.7893ZM60.8005 51.657C61.8235 50.634 63.0246 50.1193 64.404 50.1127C65.7965 50.1061 67.0108 50.6208 68.047 51.657C69.1029 52.7129 69.6771 53.8811 69.7695 55.1614L68.1856 55.4782C68.1658 55.0624 68.0437 54.6169 67.8193 54.1418C67.5949 53.6666 67.3177 53.264 66.9877 52.934C66.2288 52.1751 65.4038 51.8121 64.5128 51.8451C63.6285 51.8847 62.8431 52.2477 62.1568 52.934C61.411 53.6798 61.0282 54.5113 61.0084 55.4287C60.9952 56.3394 61.3252 57.1314 61.9984 57.8046C62.6649 58.4711 63.4965 58.8143 64.493 58.8341L65.3147 58.0125L64.2357 56.9334L65.3345 55.8346L67.5619 58.062L63.8595 61.7644L62.7705 60.6754L63.1071 60.3388L63.414 60.0518L63.3942 60.032C62.9388 60.0254 62.4571 59.9066 61.9489 59.6756C61.4473 59.4512 60.9985 59.141 60.6025 58.745C59.6456 57.7881 59.1671 56.6364 59.1671 55.2901C59.1803 53.9438 59.7248 52.7327 60.8005 51.657ZM65.5585 63.4634L72.5871 56.4347L73.8642 57.7118L66.8355 64.7404L65.5585 63.4634ZM69.1696 65.3916L70.8228 65.1243C70.8492 65.5599 70.9449 66.0054 71.1099 66.4608C71.2815 66.9227 71.5191 67.3055 71.8227 67.6091C72.1395 67.9259 72.4629 68.1041 72.7928 68.1437C73.1294 68.1767 73.4165 68.0744 73.6541 67.8368C73.8983 67.5926 73.9973 67.2692 73.9511 66.8666C73.9049 66.4641 73.7861 66.0351 73.5947 65.5797C73.4099 65.1309 73.235 64.6656 73.07 64.1839C72.905 63.7021 72.8555 63.2038 72.9215 62.689C72.9875 62.1743 73.2218 61.7156 73.6244 61.313C74.2316 60.7058 74.9476 60.4386 75.7726 60.5112C76.6042 60.5904 77.3664 60.9764 78.0594 61.6694C78.8843 62.4944 79.3199 63.4315 79.3661 64.4809L77.7624 64.956C77.7426 64.5799 77.6469 64.1938 77.4753 63.7978C77.3169 63.4018 77.1024 63.0685 76.8318 62.7979C76.5085 62.4746 76.1752 62.2865 75.832 62.2337C75.4954 62.1875 75.205 62.2865 74.9608 62.5307C74.7233 62.7682 74.6309 63.085 74.6837 63.481C74.7365 63.877 74.8585 64.2961 75.0499 64.7382C75.2479 65.187 75.4294 65.6523 75.5944 66.1341C75.766 66.6092 75.8188 67.1042 75.7528 67.619C75.6868 68.1338 75.4459 68.599 75.0301 69.0148C74.4362 69.6088 73.7333 69.8959 72.9215 69.8761C72.1098 69.8563 71.3409 69.4834 70.615 68.7574C70.1662 68.3087 69.8131 67.7906 69.5557 67.2032C69.2983 66.6158 69.1696 66.012 69.1696 65.3916ZM76.2343 74.1392L82.1641 68.2094L79.8575 65.9028L80.9564 64.804L86.8367 70.6843L85.7378 71.7831L83.4312 69.4765L77.5015 75.4063L76.2343 74.1392ZM81.0957 79.0006L88.1243 71.9719L92.3316 76.1792L91.2328 77.278L88.3025 74.3478L86.4612 76.1891L88.8272 78.5551L87.7283 79.6539L85.3623 77.2879L83.4715 79.1787L86.5602 82.2674L85.4613 83.3662L81.0957 79.0006ZM87.0191 84.924L94.0478 77.8954L96.3642 80.2119C96.9582 80.8058 97.3377 81.3107 97.5027 81.7265C97.7205 82.2478 97.77 82.7791 97.6512 83.3203C97.5324 83.8615 97.2387 84.3663 96.7701 84.8349C96.3411 85.2639 95.8429 85.551 95.2753 85.6962C94.7143 85.8348 94.1798 85.7952 93.6716 85.5774L93.6518 85.5972C93.6386 85.7292 93.5924 85.9272 93.5132 86.1911L92.345 90.2499L90.9096 88.8145L92.1471 84.8052L90.9195 83.5777L88.2962 86.201L87.0191 84.924ZM92.0283 82.4689L93.1766 83.6173C93.5198 83.9605 93.8894 84.1321 94.2854 84.1321C94.6879 84.1255 95.0608 83.9506 95.404 83.6074C95.8924 83.119 96.0277 82.6141 95.8099 82.0928C95.7109 81.8354 95.4931 81.5384 95.1565 81.2018L94.226 80.2712L92.0283 82.4689ZM97.5674 95.4723L100.508 92.5322L102.25 86.0975L103.695 87.5428L102.725 90.7107L102.21 92.0768L102.23 92.0966C102.705 91.8986 103.161 91.727 103.596 91.5818L106.754 90.6018L108.199 92.0471L101.775 93.7993L98.8346 96.7394L97.5674 95.4723ZM105.144 95.9209C106.16 94.9045 107.351 94.3931 108.717 94.3865C110.09 94.3865 111.304 94.9144 112.36 95.9704C113.416 97.0263 113.941 98.2374 113.934 99.6035C113.934 100.976 113.426 102.171 112.41 103.187C111.367 104.23 110.149 104.761 108.757 104.781C107.371 104.807 106.15 104.293 105.094 103.237C104.038 102.181 103.52 100.956 103.54 99.5639C103.566 98.178 104.101 96.9636 105.144 95.9209ZM106.46 97.2375C105.741 97.9569 105.358 98.7752 105.312 99.6926C105.279 100.61 105.596 101.402 106.262 102.068C106.929 102.735 107.717 103.049 108.628 103.009C109.552 102.969 110.374 102.59 111.093 101.87C111.78 101.184 112.133 100.389 112.152 99.4847C112.179 98.5871 111.859 97.8051 111.192 97.1385C110.526 96.472 109.74 96.1486 108.836 96.1684C107.939 96.1948 107.147 96.5511 106.46 97.2375ZM112.878 105.734L117.382 101.23L118.659 102.507L114.165 107.001C113.696 107.47 113.468 107.975 113.482 108.516C113.508 109.057 113.759 109.565 114.234 110.04C114.709 110.515 115.214 110.763 115.749 110.783C116.296 110.802 116.805 110.578 117.273 110.109L121.768 105.615L123.045 106.892L118.54 111.396C117.755 112.182 116.857 112.558 115.848 112.525C114.844 112.499 113.921 112.063 113.076 111.218C112.224 110.367 111.782 109.436 111.749 108.427C111.716 107.417 112.092 106.519 112.878 105.734ZM117.932 115.837L124.96 108.808L127.277 111.125C127.871 111.719 128.25 112.223 128.415 112.639C128.633 113.161 128.683 113.692 128.564 114.233C128.445 114.774 128.151 115.279 127.683 115.748C127.254 116.177 126.756 116.464 126.188 116.609C125.627 116.747 125.092 116.708 124.584 116.49L124.565 116.51C124.551 116.642 124.505 116.84 124.426 117.104L123.258 121.163L121.822 119.727L123.06 115.718L121.832 114.49L119.209 117.114L117.932 115.837ZM122.941 113.382L124.089 114.53C124.433 114.873 124.802 115.045 125.198 115.045C125.601 115.038 125.974 114.863 126.317 114.52C126.805 114.032 126.94 113.527 126.723 113.005C126.624 112.748 126.406 112.451 126.069 112.115L125.139 111.184L122.941 113.382ZM127.333 125.238L134.362 118.209L135.639 119.486L128.61 126.515L127.333 125.238ZM130.607 128.512L137.636 121.484L138.913 122.761L137.517 129.482C137.471 129.687 137.402 129.928 137.309 130.205C137.23 130.482 137.161 130.71 137.102 130.888L137.012 131.156L137.032 131.175C137.435 130.68 137.775 130.294 138.052 130.017L142.111 125.958L143.378 127.225L136.349 134.254L135.082 132.987L136.468 126.275C136.514 126.07 136.577 125.83 136.656 125.552C136.748 125.275 136.824 125.048 136.884 124.869L136.973 124.602L136.953 124.582C136.55 125.077 136.211 125.463 135.933 125.74L131.884 129.789L130.607 128.512ZM139.952 137.857L145.882 131.927L143.575 129.62L144.674 128.522L150.554 134.402L149.455 135.501L147.149 133.194L141.219 139.124L139.952 137.857ZM144.813 142.718L151.842 135.689L156.049 139.897L154.95 140.996L152.02 138.065L150.179 139.907L152.545 142.273L151.446 143.371L149.08 141.006L147.189 142.896L150.278 145.985L149.179 147.084L144.813 142.718ZM150.737 148.642L157.765 141.613L160.082 143.929C160.676 144.523 161.055 145.028 161.22 145.444C161.438 145.965 161.488 146.497 161.369 147.038C161.25 147.579 160.956 148.084 160.488 148.552C160.059 148.981 159.56 149.269 158.993 149.414C158.432 149.552 157.897 149.513 157.389 149.295L157.369 149.315C157.356 149.447 157.31 149.645 157.231 149.909L156.063 153.968L154.627 152.532L155.865 148.523L154.637 147.295L152.014 149.919L150.737 148.642ZM155.746 146.187L156.894 147.335C157.237 147.678 157.607 147.85 158.003 147.85C158.405 147.843 158.778 147.668 159.122 147.325C159.61 146.837 159.745 146.332 159.527 145.81C159.428 145.553 159.211 145.256 158.874 144.919L157.944 143.989L155.746 146.187ZM157.366 155.271L164.395 148.242L168.602 152.449L167.503 153.548L164.573 150.618L162.731 152.459L165.097 154.825L163.999 155.924L161.633 153.558L159.742 155.449L162.83 158.538L161.732 159.636L157.366 155.271ZM163.626 159.848L165.279 159.581C165.306 160.016 165.401 160.462 165.566 160.917C165.738 161.379 165.975 161.762 166.279 162.065C166.596 162.382 166.919 162.56 167.249 162.6C167.586 162.633 167.873 162.531 168.11 162.293C168.355 162.049 168.454 161.725 168.407 161.323C168.361 160.92 168.242 160.491 168.051 160.036C167.866 159.587 167.691 159.122 167.526 158.64C167.361 158.158 167.312 157.66 167.378 157.145C167.444 156.631 167.678 156.172 168.081 155.769C168.688 155.162 169.404 154.895 170.229 154.967C171.06 155.047 171.823 155.433 172.516 156.126C173.341 156.951 173.776 157.888 173.822 158.937L172.219 159.412C172.199 159.036 172.103 158.65 171.932 158.254C171.773 157.858 171.559 157.525 171.288 157.254C170.965 156.931 170.631 156.743 170.288 156.69C169.952 156.644 169.661 156.743 169.417 156.987C169.18 157.225 169.087 157.541 169.14 157.937C169.193 158.333 169.315 158.752 169.506 159.195C169.704 159.643 169.886 160.109 170.051 160.59C170.222 161.066 170.275 161.56 170.209 162.075C170.143 162.59 169.902 163.055 169.486 163.471C168.892 164.065 168.19 164.352 167.378 164.332C166.566 164.313 165.797 163.94 165.071 163.214C164.622 162.765 164.269 162.247 164.012 161.659C163.755 161.072 163.626 160.468 163.626 159.848ZM170.691 168.595L176.62 162.666L174.314 160.359L175.413 159.26L181.293 165.141L180.194 166.239L177.888 163.933L171.958 169.863L170.691 168.595Z" fill="white"/>
<defs>
<linearGradient id="paint0_linear_1789_4209" x1="5.61586" y1="0.864471" x2="280.743" y2="294.036" gradientUnits="userSpaceOnUse">
<stop stop-color="#3E947F"/>
<stop offset="1" stop-color="#FCD20F"/>
</linearGradient>
</defs>
</svg>
