<svg width="87" height="77" viewBox="0 0 87 77" fill="none" xmlns="http://www.w3.org/2000/svg">
<path d="M39.6549 56.5321C39.6549 45.1169 33.4067 37.7786 22.5919 37.7786C20.4289 37.7786 18.7462 38.3224 17.5449 39.1377C18.0252 26.635 28.1191 18.2097 37.2518 16.579V0C22.111 1.63074 0 13.8613 0 50.2807C0 64.6858 8.17155 76.3726 20.9087 76.3726C32.2043 76.3726 39.6544 67.1319 39.6544 56.5321H39.6549ZM87 56.5321C87 45.1169 80.7513 37.7786 69.9364 37.7786C67.7735 37.7786 66.0913 38.3224 64.8895 39.1377C65.3703 26.635 75.4642 18.2097 84.5969 16.579V0C69.4561 1.63074 47.3456 13.8613 47.3456 50.2807C47.3456 64.6858 55.5167 76.3726 68.2543 76.3726C79.55 76.3726 87 67.1319 87 56.5321Z" fill="#334641" fill-opacity="0.07"/>
</svg>
