<?xml version="1.0"?>
<svg xmlns="http://www.w3.org/2000/svg" xmlns:xlink="http://www.w3.org/1999/xlink" xmlns:svgjs="http://svgjs.com/svgjs" version="1.1" width="512" height="512" x="0" y="0" viewBox="0 0 511.991 511.991" style="enable-background:new 0 0 512 512" xml:space="preserve"><g><g xmlns="http://www.w3.org/2000/svg" id="XMLID_756_"><g id="XMLID_272_"><path id="XMLID_501_" d="m213.448 283.376c14.541 0 28.211-5.663 38.493-15.944 10.281-10.282 15.944-23.952 15.944-38.493s-5.663-28.211-15.944-38.493c-10.282-10.281-23.952-15.944-38.493-15.944s-28.211 5.663-38.493 15.944c-10.281 10.282-15.944 23.952-15.944 38.493s5.663 28.21 15.944 38.493c10.282 10.281 23.952 15.944 38.493 15.944zm-24.35-78.787c6.713-6.713 15.532-10.07 24.35-10.07s17.637 3.357 24.35 10.07c13.427 13.427 13.427 35.273 0 48.7-13.427 13.428-35.273 13.428-48.7 0-13.428-13.427-13.428-35.273 0-48.7z" fill="#7fbcad" data-original="#000000" style=""/><path id="XMLID_504_" d="m510.604 358.246-30.287-113.033 7.178-4.145c9.298-5.368 15.948-14.035 18.727-24.406 2.779-10.37 1.353-21.202-4.015-30.5l-75.494-130.758c-5.368-9.298-14.036-15.949-24.406-18.727-10.371-2.777-21.202-1.352-30.5 4.016l-31.884 18.408-31.857-31.857c-15.672-15.671-41.171-15.671-56.843 0l-88.674 88.674c-3.905 3.905-3.905 10.237 0 14.143 3.905 3.905 10.237 3.905 14.143 0l88.674-88.674c3.814-3.814 8.885-5.915 14.279-5.915s10.465 2.101 14.279 5.915l106.766 106.764c7.874 7.873 7.874 20.684 0 28.558l-239.472 239.472c-7.874 7.874-20.685 7.874-28.558 0l-106.765-106.765c-7.873-7.873-7.873-20.685 0-28.558l87.159-87.158c3.905-3.905 3.905-10.237 0-14.142s-10.237-3.905-14.142 0l-87.159 87.159c-15.671 15.672-15.67 41.171 0 56.842l76.118 76.118 17.96 67.028c4.806 17.938 21.088 29.796 38.834 29.796 3.434 0 6.922-.444 10.393-1.374l327.125-87.653c10.37-2.778 19.038-9.429 24.406-18.727s6.794-20.131 4.015-30.501zm-95.771-167.395c15.671-15.672 15.671-41.171 0-56.842l-60.267-60.267 27.243-15.729c9.644-5.567 22.018-2.251 27.585 7.391l75.494 130.759c2.697 4.671 3.413 10.113 2.017 15.323s-4.737 9.565-9.409 12.262l-226.101 130.54zm74.435 187.895c-2.697 4.671-7.051 8.013-12.262 9.408l-327.125 87.653c-10.756 2.877-21.851-3.524-24.732-14.279l-8.995-33.568 2.363 2.363c7.835 7.835 18.128 11.753 28.421 11.753 10.292 0 20.585-3.918 28.421-11.753l21.394-21.394 265.632-153.363 28.9 107.856c1.397 5.21.68 10.652-2.017 15.324z" fill="#7fbcad" data-original="#000000" style=""/><path id="XMLID_506_" d="m137.801 164.807c2.64 0 5.21-1.07 7.07-2.93s2.93-4.44 2.93-7.07-1.07-5.21-2.93-7.07-4.44-2.93-7.07-2.93-5.21 1.07-7.07 2.93-2.93 4.44-2.93 7.07c0 2.64 1.07 5.21 2.93 7.07s4.44 2.93 7.07 2.93z" fill="#7fbcad" data-original="#000000" style=""/></g></g></g></svg>
