<svg width="24" height="24" viewBox="0 0 24 24" fill="none" xmlns="http://www.w3.org/2000/svg">
<path d="M10.0055 13.2835C10.6872 13.2835 11.328 13.018 11.8099 12.5361C12.2919 12.0541 12.5573 11.4133 12.5573 10.7317C12.5573 10.0501 12.2919 9.40928 11.8099 8.9273C11.328 8.44537 10.6872 8.17992 10.0055 8.17992C9.32392 8.17992 8.68313 8.44537 8.20115 8.9273C7.71922 9.40928 7.45377 10.0501 7.45377 10.7317C7.45377 11.4133 7.71922 12.0541 8.20115 12.5361C8.68313 13.018 9.32392 13.2835 10.0055 13.2835ZM8.86412 9.59027C9.1788 9.27559 9.59219 9.11823 10.0055 9.11823C10.4189 9.11823 10.8323 9.27559 11.147 9.59027C11.7764 10.2197 11.7764 11.2437 11.147 11.8731C10.5176 12.5026 9.49352 12.5026 8.86412 11.8731C8.23467 11.2437 8.23467 10.2197 8.86412 9.59027Z" fill="#151515"/>
<path d="M23.935 16.7931L22.5152 11.4946L22.8517 11.3003C23.2876 11.0486 23.5993 10.6424 23.7296 10.1562C23.8598 9.6701 23.793 9.16234 23.5414 8.72649L20.0025 2.5971C19.7509 2.16125 19.3446 1.84948 18.8585 1.71926C18.3723 1.58908 17.8646 1.65588 17.4288 1.90751L15.9342 2.7704L14.4408 1.27708C13.7062 0.542488 12.5109 0.542488 11.7763 1.27708L7.61961 5.43374C7.43656 5.61679 7.43656 5.91361 7.61961 6.09671C7.80266 6.27976 8.09948 6.27976 8.28258 6.09671L12.4392 1.94004C12.618 1.76126 12.8557 1.66277 13.1086 1.66277C13.3614 1.66277 13.5991 1.76126 13.7779 1.94004L18.7827 6.94469C19.1518 7.31375 19.1518 7.91427 18.7827 8.28337L7.55722 19.5088C7.18812 19.8779 6.58759 19.8779 6.21854 19.5088L1.21384 14.5041C0.84479 14.1351 0.84479 13.5345 1.21384 13.1654L5.29949 9.07984C5.48254 8.89679 5.48254 8.59997 5.29949 8.41692C5.11644 8.23387 4.81963 8.23387 4.63658 8.41692L0.550926 12.5026C-0.183665 13.2372 -0.183618 14.4325 0.550926 15.1671L4.11902 18.7352L4.96091 21.8772C5.18619 22.718 5.94943 23.2739 6.78128 23.2739C6.94226 23.2739 7.10576 23.2531 7.26847 23.2095L22.6027 19.1007C23.0888 18.9705 23.4951 18.6587 23.7468 18.2228C23.9984 17.787 24.0652 17.2792 23.935 16.7931ZM19.4456 8.94629C20.1802 8.21165 20.1802 7.01637 19.4456 6.28178L16.6206 3.45671L17.8976 2.7194C18.3497 2.45844 18.9297 2.61388 19.1907 3.06586L22.7295 9.19529C22.8559 9.41425 22.8895 9.66935 22.8241 9.91357C22.7586 10.1578 22.602 10.3619 22.383 10.4884L11.7843 16.6075L19.4456 8.94629ZM22.9348 17.754C22.8084 17.973 22.6043 18.1296 22.36 18.195L7.02579 22.3038C6.52159 22.4387 6.00151 22.1386 5.86646 21.6345L5.44481 20.061L5.55558 20.1717C5.92285 20.539 6.40534 20.7227 6.88783 20.7227C7.37028 20.7227 7.85277 20.539 8.22009 20.1717L9.22295 19.1689L21.6747 11.9799L23.0294 17.0357C23.0949 17.2799 23.0613 17.535 22.9348 17.754Z" fill="#151515"/>
<path d="M6.45953 7.72545C6.58328 7.72545 6.70375 7.67529 6.79094 7.5881C6.87813 7.50092 6.92828 7.37998 6.92828 7.2567C6.92828 7.13342 6.87813 7.01248 6.79094 6.92529C6.70375 6.8381 6.58281 6.78795 6.45953 6.78795C6.33625 6.78795 6.21531 6.8381 6.12813 6.92529C6.04094 7.01248 5.99078 7.13342 5.99078 7.2567C5.99078 7.38045 6.04094 7.50092 6.12813 7.5881C6.21531 7.67529 6.33625 7.72545 6.45953 7.72545Z" fill="#151515"/>
</svg>
