<svg width="20" height="20" viewBox="0 0 20 20" fill="none" xmlns="http://www.w3.org/2000/svg">
<path d="M13.5306 6.46937C13.6004 6.53903 13.6557 6.62174 13.6934 6.71279C13.7312 6.80384 13.7506 6.90144 13.7506 7C13.7506 7.09856 13.7312 7.19615 13.6934 7.2872C13.6557 7.37825 13.6004 7.46097 13.5306 7.53062L7.53063 13.5306C7.46094 13.6003 7.37822 13.6556 7.28717 13.6933C7.19613 13.731 7.09855 13.7504 7 13.7504C6.90145 13.7504 6.80387 13.731 6.71283 13.6933C6.62178 13.6556 6.53906 13.6003 6.46938 13.5306C6.39969 13.4609 6.34442 13.3782 6.30671 13.2872C6.26899 13.1961 6.24958 13.0985 6.24958 13C6.24958 12.9015 6.26899 12.8039 6.30671 12.7128C6.34442 12.6218 6.39969 12.5391 6.46938 12.4694L12.4694 6.46937C12.539 6.39964 12.6217 6.34432 12.7128 6.30658C12.8038 6.26883 12.9014 6.24941 13 6.24941C13.0986 6.24941 13.1962 6.26883 13.2872 6.30658C13.3783 6.34432 13.461 6.39964 13.5306 6.46937ZM18.2125 1.7875C17.725 1.29993 17.1462 0.913173 16.5092 0.649302C15.8722 0.385431 15.1895 0.249619 14.5 0.249619C13.8105 0.249619 13.1278 0.385431 12.4908 0.649302C11.8538 0.913173 11.275 1.29993 10.7875 1.7875L7.96938 4.60468C7.82864 4.74541 7.74958 4.93629 7.74958 5.13531C7.74958 5.33433 7.82864 5.5252 7.96938 5.66593C8.11011 5.80666 8.30098 5.88573 8.5 5.88573C8.69902 5.88573 8.8899 5.80666 9.03063 5.66593L11.8488 2.85343C12.5546 2.16311 13.5042 1.77898 14.4914 1.78442C15.4787 1.78986 16.424 2.18442 17.1222 2.88248C17.8204 3.58054 18.2151 4.52577 18.2207 5.51305C18.2263 6.50032 17.8424 7.44998 17.1522 8.15594L14.3331 10.9741C14.1924 11.1147 14.1133 11.3054 14.1132 11.5044C14.1131 11.7033 14.192 11.8941 14.3327 12.0348C14.4733 12.1756 14.664 12.2547 14.8629 12.2548C15.0619 12.2549 15.2527 12.1759 15.3934 12.0353L18.2125 9.2125C18.7001 8.72498 19.0868 8.1462 19.3507 7.50921C19.6146 6.87222 19.7504 6.18948 19.7504 5.5C19.7504 4.81051 19.6146 4.12778 19.3507 3.49079C19.0868 2.85379 18.7001 2.27501 18.2125 1.7875ZM10.9694 14.3331L8.15125 17.1512C7.80445 17.5058 7.39075 17.7881 6.93411 17.9817C6.47747 18.1753 5.98696 18.2764 5.49098 18.2791C4.995 18.2819 4.5034 18.1862 4.04465 17.9976C3.58591 17.8091 3.16912 17.5314 2.81844 17.1806C2.46775 16.8299 2.19013 16.413 2.00165 15.9543C1.81317 15.4955 1.71757 15.0039 1.72038 14.5079C1.7232 14.0119 1.82439 13.5214 2.01807 13.0648C2.21176 12.6082 2.4941 12.1945 2.84875 11.8478L5.66594 9.03062C5.80667 8.88989 5.88573 8.69902 5.88573 8.5C5.88573 8.30097 5.80667 8.1101 5.66594 7.96937C5.52521 7.82864 5.33434 7.74958 5.13531 7.74958C4.93629 7.74958 4.74542 7.82864 4.60469 7.96937L1.7875 10.7875C0.802885 11.7721 0.249733 13.1075 0.249733 14.5C0.249733 15.8925 0.802885 17.2279 1.7875 18.2125C2.77212 19.1971 4.10754 19.7503 5.5 19.7503C6.89246 19.7503 8.22788 19.1971 9.2125 18.2125L12.0306 15.3934C12.1712 15.2527 12.2502 15.0619 12.2501 14.8629C12.25 14.664 12.1709 14.4733 12.0302 14.3327C11.8894 14.192 11.6986 14.1131 11.4997 14.1132C11.3007 14.1133 11.11 14.1924 10.9694 14.3331Z" fill="#424242"/>
</svg>
