<?xml version="1.0"?>
<svg xmlns="http://www.w3.org/2000/svg" xmlns:xlink="http://www.w3.org/1999/xlink" xmlns:svgjs="http://svgjs.com/svgjs" version="1.1" width="512" height="512" x="0" y="0" viewBox="0 0 24 24" style="enable-background:new 0 0 512 512" xml:space="preserve"><g><path xmlns="http://www.w3.org/2000/svg" d="m20.132 17.304-13.436-13.436c-.585-.586-1.535-.586-2.121 0l-.707.707c-.586.586-.586 1.536 0 2.121l13.436 13.436c.585.586 1.535.586 2.121 0l.707-.707c.586-.586.586-1.536 0-2.121z" fill="#f44336" data-original="#f44336" style=""/><path xmlns="http://www.w3.org/2000/svg" d="m17.304 3.868-13.436 13.436c-.586.585-.586 1.535 0 2.121l.707.707c.586.586 1.536.586 2.121 0l13.436-13.436c.586-.585.586-1.535 0-2.121l-.707-.707c-.586-.586-1.536-.586-2.121 0z" fill="#f44336" data-original="#f44336" style=""/><g xmlns="http://www.w3.org/2000/svg" fill="#d43a2f"><path d="m5.636 3.429c-.384 0-.768.146-1.061.439l-.707.707c-.586.586-.586 1.536 0 2.121l5.304 5.304 2.828-2.828-5.304-5.304c-.292-.293-.676-.439-1.06-.439z" fill="#d43a2f" data-original="#d43a2f" style=""/><path d="m12 9.172-2.828 2.828-5.304 5.304c-.586.585-.586 1.535 0 2.121l.707.707c.293.293.677.44 1.061.44s.768-.147 1.06-.44l5.304-5.304z" fill="#d43a2f" data-original="#d43a2f" style=""/></g></g></svg>
