<svg xmlns="http://www.w3.org/2000/svg" width="140.828" height="140.813" viewBox="0 0 140.828 140.813">
  <path id="Easy_to_Use" data-name="Easy to Use" d="M136.629,59.037a10.029,10.029,0,0,0-6.209-4.208,9.815,9.815,0,0,0-.519-10.107,10.065,10.065,0,0,0-6.206-4.2,9.866,9.866,0,0,0,.955-2.645,9.749,9.749,0,0,0-1.477-7.467,10.021,10.021,0,0,0-6.209-4.208,9.817,9.817,0,0,0-.519-10.108,10.205,10.205,0,0,0-13.991-2.8L92.4,19.844a63.475,63.475,0,0,0-16.967-5.653,46.1,46.1,0,0,0-6.475-7.712L64.805,2.512A9.259,9.259,0,0,0,53.451,1.475a8.882,8.882,0,0,0-2.562,12.412q.163.244.321.491A63.554,63.554,0,0,0,15.97,34.646,61.668,61.668,0,0,0,1.095,84.04a62.683,62.683,0,0,0,38.5,49.045,64.261,64.261,0,0,0,60.98-6.857,62.281,62.281,0,0,0,22.8-29.581,2.134,2.134,0,0,0-1.307-2.743,2.186,2.186,0,0,0-2.786,1.288,58,58,0,0,1-21.24,27.549A59.88,59.88,0,0,1,45.2,130.57L62.9,119.024l0,0s0,0,0,0l14.717-9.6h0a5.808,5.808,0,0,0,2.54-3.708,5.729,5.729,0,0,0-.867-4.391l-.194-.29,2.859-1.864a9.818,9.818,0,0,1,6.908-1.47,14.211,14.211,0,0,0,10-2.129l23.712-15.46a57.321,57.321,0,0,1-.8,6.018,2.172,2.172,0,0,0,2.142,2.535,2.168,2.168,0,0,0,2.137-1.753,61.732,61.732,0,0,0,1.04-9.745l6.682-4.357A9.868,9.868,0,0,0,138.1,66.5,9.748,9.748,0,0,0,136.629,59.037ZM88.179,22.6l-6.65,4.336L80.22,23.462A45.486,45.486,0,0,0,78.352,19.2,59.04,59.04,0,0,1,88.179,22.6ZM19.258,37.454a59.192,59.192,0,0,1,34.035-19.1,26.09,26.09,0,0,1,1.356,16.033l-5.307,22.57a5.991,5.991,0,0,0-7.6-.872l-15.031,9.8h0a0,0,0,0,0,0,0L5.033,80.015c-.119-1.506-.18-3.023-.18-4.539A57.509,57.509,0,0,1,19.258,37.454ZM75.9,104.862a1.551,1.551,0,0,1-.679.99h0L62.3,114.279,38.307,79.054a2.2,2.2,0,0,0-3.02-.586,2.122,2.122,0,0,0-.595,2.972l23.976,35.2L40.215,128.677A58.379,58.379,0,0,1,5.6,84.7l21.7-14.1,2.5,3.669a2.2,2.2,0,0,0,3.02.587,2.123,2.123,0,0,0,.6-2.973L30.94,68.238l13.21-8.585a1.6,1.6,0,0,1,2.194.441l29.327,43.6A1.525,1.525,0,0,1,75.9,104.862ZM133.839,65.65a5.613,5.613,0,0,1-2.457,3.588l-7.639,4.98-.007,0L96.47,92a9.812,9.812,0,0,1-6.908,1.47,14.218,14.218,0,0,0-10,2.129L76.7,97.463,52.682,61.755l6.209-26.406a30.354,30.354,0,0,0-2.29-20.21,2.086,2.086,0,0,0-.092-.19,30.191,30.191,0,0,0-1.992-3.429,4.631,4.631,0,0,1,1.337-6.472,4.829,4.829,0,0,1,5.921.54l4.157,3.968a41.811,41.811,0,0,1,10.205,15.4l2.264,6c0,.012.009.021.013.032l.017.042c.016.037.031.07.047.1a2.106,2.106,0,0,0,.15.265,2.2,2.2,0,0,0,3.016.6l23.214-15.134a5.8,5.8,0,0,1,7.958,1.592,5.606,5.606,0,0,1-1.617,7.835l-2.015,1.314h0l-4.495,2.931a.164.164,0,0,1-.017.012c-.026.018-.05.035-.07.052a2.118,2.118,0,0,0-.525,2.906,2.2,2.2,0,0,0,3.017.6l4.5-2.933a5.78,5.78,0,0,1,4.311-.824,5.7,5.7,0,0,1,3.644,2.419,5.544,5.544,0,0,1,.84,4.247,5.613,5.613,0,0,1-2.457,3.588l-6.512,4.247a2.121,2.121,0,0,0-.613,2.969,2.2,2.2,0,0,0,3.016.6l1.008-.657,3.488-2.274a5.8,5.8,0,0,1,7.958,1.592,5.608,5.608,0,0,1-1.617,7.836L121.4,57.045l-.051.034-3.208,2.091a2.122,2.122,0,0,0-.613,2.97,2.2,2.2,0,0,0,3.016.6l1.008-.657a0,0,0,0,1,0,0l3.488-2.273a5.771,5.771,0,0,1,4.313-.826A5.706,5.706,0,0,1,133,61.4,5.548,5.548,0,0,1,133.839,65.65Zm0,0" transform="translate(1 1.504)" fill="#007b5d" stroke="#007b5d" stroke-width="3"/>
</svg>
