<svg width="24" height="17" viewBox="0 0 24 17" fill="none" xmlns="http://www.w3.org/2000/svg">
<path d="M2.65256 0H21.3474C23.1111 0 24 0.832451 24 2.52557V14.4056C24 16.0847 23.1111 16.9312 21.3474 16.9312H2.65256C0.888889 16.9312 0 16.0847 0 14.4056V2.52557C0 0.832451 0.888889 0 2.65256 0ZM11.9929 12.134L21.5026 4.33157C21.8413 4.04938 22.1093 3.40035 21.6861 2.82187C21.2769 2.24339 20.5291 2.22928 20.0353 2.58201L11.9929 8.02822L3.96473 2.58201C3.4709 2.22928 2.7231 2.24339 2.31393 2.82187C1.89065 3.40035 2.15873 4.04938 2.49735 4.33157L11.9929 12.134Z" fill="black"/>
</svg>
