<?xml version="1.0"?>
<svg xmlns="http://www.w3.org/2000/svg" xmlns:xlink="http://www.w3.org/1999/xlink" xmlns:svgjs="http://svgjs.com/svgjs" version="1.1" width="512" height="512" x="0" y="0" viewBox="0 0 512 512" style="enable-background:new 0 0 512 512" xml:space="preserve" class=""><circle r="256" cx="256" cy="256" fill="#ffffff" shape="circle" transform="matrix(0.62,0,0,0.62,97.28,97.28)"/><g transform="matrix(0.7,0,0,0.7,76.80000000000001,76.80000000000001)">
<g xmlns="http://www.w3.org/2000/svg">
	<g>
		<path d="M256,0C114.844,0,0,114.839,0,256s114.844,256,256,256s256-114.839,256-256S397.156,0,256,0z M389.594,317.231H122.406    c-9.219,0-16.699-7.475-16.699-16.699c0-9.225,7.48-16.699,16.699-16.699h267.189c9.219,0,16.699,7.475,16.699,16.699    C406.294,309.756,398.813,317.231,389.594,317.231z M389.594,217.035H122.406c-9.219,0-16.699-7.475-16.699-16.699    c0-9.225,7.48-16.699,16.699-16.699h267.189c9.219,0,16.699,7.475,16.699,16.699C406.294,209.56,398.813,217.035,389.594,217.035z    " fill="#cf0921" data-original="#000000" style=""/>
	</g>
</g>
<g xmlns="http://www.w3.org/2000/svg">
</g>
<g xmlns="http://www.w3.org/2000/svg">
</g>
<g xmlns="http://www.w3.org/2000/svg">
</g>
<g xmlns="http://www.w3.org/2000/svg">
</g>
<g xmlns="http://www.w3.org/2000/svg">
</g>
<g xmlns="http://www.w3.org/2000/svg">
</g>
<g xmlns="http://www.w3.org/2000/svg">
</g>
<g xmlns="http://www.w3.org/2000/svg">
</g>
<g xmlns="http://www.w3.org/2000/svg">
</g>
<g xmlns="http://www.w3.org/2000/svg">
</g>
<g xmlns="http://www.w3.org/2000/svg">
</g>
<g xmlns="http://www.w3.org/2000/svg">
</g>
<g xmlns="http://www.w3.org/2000/svg">
</g>
<g xmlns="http://www.w3.org/2000/svg">
</g>
<g xmlns="http://www.w3.org/2000/svg">
</g>
</g></svg>
