<svg width="40" height="36" viewBox="0 0 40 36" fill="none" xmlns="http://www.w3.org/2000/svg">
<path id="Vector" d="M25.508 14C27.44 14 29.008 15.568 29.008 17.5V26.998C29.008 29.3855 28.0596 31.6752 26.3714 33.3634C24.6832 35.0516 22.3935 36 20.006 36C17.6185 36 15.3288 35.0516 13.6406 33.3634C11.9524 31.6752 11.004 29.3855 11.004 26.998V17.5C11.004 15.568 12.57 14 14.504 14H25.508ZM25.508 17H14.504C14.3714 17 14.2442 17.0527 14.1504 17.1464C14.0567 17.2402 14.004 17.3674 14.004 17.5V26.998C14.004 28.5898 14.6364 30.1165 15.7619 31.2421C16.8875 32.3676 18.4142 33 20.006 33C21.5978 33 23.1245 32.3676 24.2501 31.2421C25.3756 30.1165 26.008 28.5898 26.008 26.998V17.5C26.008 17.3674 25.9553 17.2402 25.8616 17.1464C25.7678 17.0527 25.6406 17 25.508 17ZM3.5 14H10.262C9.5564 14.8522 9.12548 15.8981 9.026 17H3.5C3.36739 17 3.24021 17.0527 3.14645 17.1464C3.05268 17.2402 3 17.3674 3 17.5V23.998C2.99987 24.7538 3.17101 25.4997 3.50055 26.1799C3.83008 26.86 4.30946 27.4566 4.90266 27.9249C5.49587 28.3932 6.18747 28.721 6.92553 28.8836C7.66359 29.0463 8.42891 29.0396 9.164 28.864C9.334 29.872 9.644 30.834 10.07 31.728C8.88456 32.0451 7.64207 32.0854 6.43859 31.8456C5.23511 31.6059 4.1029 31.0925 3.12949 30.3453C2.15609 29.5981 1.36758 28.6371 0.824926 27.5364C0.282275 26.4358 2.45996e-05 25.2251 0 23.998V17.5C0 15.568 1.568 14 3.5 14ZM29.75 14H36.5C38.432 14 40 15.568 40 17.5V24C40.0003 25.2263 39.7186 26.4363 39.1768 27.5364C38.6349 28.6366 37.8474 29.5974 36.8751 30.3447C35.9028 31.092 34.7717 31.6058 33.5692 31.8464C32.3667 32.0869 31.125 32.0478 29.94 31.732C30.368 30.836 30.678 29.874 30.85 28.866C31.5842 29.0395 32.3481 29.0446 33.0845 28.881C33.821 28.7174 34.5108 28.3892 35.1024 27.9211C35.694 27.453 36.1721 26.8571 36.5007 26.1781C36.8293 25.499 37 24.7544 37 24V17.5C37 17.3674 36.9473 17.2402 36.8536 17.1464C36.7598 17.0527 36.6326 17 36.5 17H30.986C30.8865 15.8981 30.4556 14.8522 29.75 14ZM20 0C21.5913 0 23.1174 0.632141 24.2426 1.75736C25.3679 2.88258 26 4.4087 26 6C26 7.5913 25.3679 9.11742 24.2426 10.2426C23.1174 11.3679 21.5913 12 20 12C18.4087 12 16.8826 11.3679 15.7574 10.2426C14.6321 9.11742 14 7.5913 14 6C14 4.4087 14.6321 2.88258 15.7574 1.75736C16.8826 0.632141 18.4087 0 20 0ZM33 2C34.3261 2 35.5979 2.52678 36.5355 3.46447C37.4732 4.40215 38 5.67392 38 7C38 8.32608 37.4732 9.59785 36.5355 10.5355C35.5979 11.4732 34.3261 12 33 12C31.6739 12 30.4021 11.4732 29.4645 10.5355C28.5268 9.59785 28 8.32608 28 7C28 5.67392 28.5268 4.40215 29.4645 3.46447C30.4021 2.52678 31.6739 2 33 2ZM7 2C8.32608 2 9.59785 2.52678 10.5355 3.46447C11.4732 4.40215 12 5.67392 12 7C12 8.32608 11.4732 9.59785 10.5355 10.5355C9.59785 11.4732 8.32608 12 7 12C5.67392 12 4.40215 11.4732 3.46447 10.5355C2.52678 9.59785 2 8.32608 2 7C2 5.67392 2.52678 4.40215 3.46447 3.46447C4.40215 2.52678 5.67392 2 7 2ZM20 3C19.2044 3 18.4413 3.31607 17.8787 3.87868C17.3161 4.44129 17 5.20435 17 6C17 6.79565 17.3161 7.55871 17.8787 8.12132C18.4413 8.68393 19.2044 9 20 9C20.7956 9 21.5587 8.68393 22.1213 8.12132C22.6839 7.55871 23 6.79565 23 6C23 5.20435 22.6839 4.44129 22.1213 3.87868C21.5587 3.31607 20.7956 3 20 3ZM33 5C32.4696 5 31.9609 5.21071 31.5858 5.58579C31.2107 5.96086 31 6.46957 31 7C31 7.53043 31.2107 8.03914 31.5858 8.41421C31.9609 8.78929 32.4696 9 33 9C33.5304 9 34.0391 8.78929 34.4142 8.41421C34.7893 8.03914 35 7.53043 35 7C35 6.46957 34.7893 5.96086 34.4142 5.58579C34.0391 5.21071 33.5304 5 33 5ZM7 5C6.46957 5 5.96086 5.21071 5.58579 5.58579C5.21071 5.96086 5 6.46957 5 7C5 7.53043 5.21071 8.03914 5.58579 8.41421C5.96086 8.78929 6.46957 9 7 9C7.53043 9 8.03914 8.78929 8.41421 8.41421C8.78929 8.03914 9 7.53043 9 7C9 6.46957 8.78929 5.96086 8.41421 5.58579C8.03914 5.21071 7.53043 5 7 5Z" fill="#1E1E1E"/>
</svg>
