<svg width="24" height="24" viewBox="0 0 24 24" fill="none" xmlns="http://www.w3.org/2000/svg">
<path d="M23.375 12C23.3714 14.7801 22.3514 17.463 20.5071 19.5432C18.6627 21.6234 16.1214 22.9575 13.3617 23.2941C13.3003 23.301 13.238 23.2949 13.1791 23.276C13.1202 23.2572 13.066 23.2261 13.02 23.1847C12.974 23.1434 12.9373 23.0928 12.9123 23.0362C12.8873 22.9796 12.8746 22.9184 12.875 22.8566V14.625H15.5C15.6199 14.6253 15.7387 14.6009 15.8488 14.5533C15.9589 14.5058 16.0581 14.4361 16.1401 14.3486C16.2222 14.2611 16.2854 14.1577 16.3258 14.0447C16.3662 13.9318 16.3829 13.8117 16.375 13.692C16.3557 13.467 16.2519 13.2577 16.0845 13.1061C15.9171 12.9545 15.6985 12.872 15.4727 12.875H12.875V10.25C12.875 9.78587 13.0594 9.34076 13.3876 9.01257C13.7157 8.68438 14.1609 8.5 14.625 8.5H16.375C16.4949 8.50027 16.6137 8.47586 16.7238 8.42831C16.8339 8.38076 16.9331 8.31107 17.0151 8.22358C17.0972 8.13609 17.1604 8.03265 17.2008 7.91971C17.2412 7.80677 17.2579 7.68672 17.25 7.56703C17.2306 7.34165 17.1265 7.13199 16.9587 6.98036C16.7908 6.82873 16.5717 6.74641 16.3455 6.75H14.625C13.6967 6.75 12.8065 7.11875 12.1501 7.77513C11.4937 8.43151 11.125 9.32175 11.125 10.25V12.875H8.5C8.38004 12.8747 8.26132 12.8991 8.1512 12.9467C8.04107 12.9942 7.9419 13.0639 7.85985 13.1514C7.77779 13.2389 7.7146 13.3424 7.6742 13.4553C7.6338 13.5682 7.61705 13.6883 7.625 13.808C7.64435 14.0334 7.74846 14.243 7.91634 14.3946C8.08421 14.5463 8.30334 14.6286 8.52953 14.625H11.125V22.8588C11.1254 22.9205 11.1127 22.9816 11.0877 23.0381C11.0628 23.0946 11.0262 23.1451 10.9803 23.1865C10.9345 23.2278 10.8804 23.2589 10.8216 23.2779C10.7628 23.2968 10.7007 23.303 10.6394 23.2963C7.80585 22.9512 5.20514 21.5549 3.35201 19.3838C1.49889 17.2126 0.5284 14.4249 0.632652 11.5723C0.851402 5.6661 5.63546 0.864534 11.5461 0.634847C13.0763 0.575572 14.6028 0.825543 16.0343 1.36981C17.4657 1.91407 18.7726 2.74145 19.8769 3.80245C20.9812 4.86345 21.8602 6.13628 22.4612 7.5448C23.0623 8.95332 23.3731 10.4686 23.375 12Z" fill="#1877F2"/>
</svg>
