<svg width="24" height="24" viewBox="0 0 24 24" fill="none" xmlns="http://www.w3.org/2000/svg">
<g id="fluent:money-off-20-regular" clip-path="url(#clip0_191_1783)">
<path id="Vector" d="M1.28185 0.21993C1.21212 0.150203 1.12934 0.0948937 1.03824 0.057158C0.947139 0.0194223 0.849496 7.34687e-10 0.750888 0C0.65228 -7.34687e-10 0.554638 0.0194224 0.463536 0.057158C0.372434 0.0948937 0.289656 0.150203 0.21993 0.21993C0.150203 0.289656 0.0948937 0.372434 0.057158 0.463536C0.0194224 0.554638 -7.34687e-10 0.65228 0 0.750888C7.34687e-10 0.849496 0.0194223 0.947139 0.057158 1.03824C0.0948937 1.12934 0.150203 1.21212 0.21993 1.28185L1.95979 3.02021C1.41819 3.09085 0.920784 3.3561 0.560355 3.76648C0.199927 4.17686 0.00109358 4.70435 0.000947281 5.25053V15.7497C0.000947281 16.3464 0.237982 16.9186 0.659905 17.3406C1.08183 17.7625 1.65408 17.9995 2.25077 17.9995H16.9391L18.439 19.4994H3.1282C3.28335 19.9382 3.57079 20.3181 3.9509 20.5868C4.33101 20.8554 4.78508 20.9995 5.25053 20.9993H18.7495C19.1184 20.9993 19.4799 20.9618 19.8279 20.8883L22.7182 23.7801C22.859 23.9209 23.05 24 23.2491 24C23.4483 24 23.6393 23.9209 23.7801 23.7801C23.9209 23.6393 24 23.4483 24 23.2491C24 23.05 23.9209 22.859 23.7801 22.7182L1.28185 0.21993ZM14.9998 16.0602V16.4996H6.00047V14.9998C6.00047 14.2042 5.68443 13.4412 5.12186 12.8786C4.5593 12.316 3.7963 12 3.00071 12H1.50083V9.00024H3.00071C3.63606 9.00053 4.2551 8.79909 4.76861 8.42495C5.28212 8.0508 5.66357 7.52328 5.85799 6.9184L7.91582 8.97624C7.57642 9.54932 7.4374 10.2191 7.52068 10.8799C7.60395 11.5407 7.90478 12.155 8.37575 12.626C8.84672 13.097 9.46103 13.3978 10.1218 13.4811C10.7827 13.5643 11.4524 13.4253 12.0255 13.0859L14.9998 16.0602ZM3.44018 4.50059L4.50059 5.56101V6.00047C4.50059 6.39827 4.34257 6.77977 4.06129 7.06105C3.78 7.34233 3.3985 7.50036 3.00071 7.50036H1.50083V5.25053C1.50083 5.05164 1.57984 4.86089 1.72048 4.72024C1.86112 4.5796 2.05187 4.50059 2.25077 4.50059H3.44018ZM9.04973 10.1116L10.8901 11.949C10.6358 12.0168 10.3681 12.0165 10.1139 11.9482C9.85972 11.8799 9.62796 11.746 9.44185 11.5599C9.25574 11.3738 9.12182 11.142 9.05353 10.8878C8.98523 10.6336 8.98496 10.366 9.05273 10.1116H9.04973ZM2.25077 16.4996C2.05187 16.4996 1.86112 16.4206 1.72048 16.28C1.57984 16.1394 1.50083 15.9486 1.50083 15.7497V13.4999H3.00071C3.3985 13.4999 3.78 13.6579 4.06129 13.9392C4.34257 14.2205 4.50059 14.602 4.50059 14.9998V16.4996H2.25077ZM17.9995 12C17.2151 12 16.5026 12.3 15.9687 12.7919L17.0306 13.8554C17.3011 13.6255 17.6446 13.4995 17.9995 13.4999H19.4994V15.7497C19.4995 15.9057 19.4507 16.0578 19.3599 16.1847L20.4248 17.2496C20.7818 16.8521 20.9993 16.3257 20.9993 15.7497V5.25053C20.9993 4.65384 20.7623 4.08159 20.3403 3.65967C19.9184 3.23774 19.3462 3.00071 18.7495 3.00071H6.17596L7.67584 4.50059H14.9998V6.00047C14.9998 6.79606 15.3158 7.55906 15.8784 8.12163C16.4409 8.68419 17.2039 9.00024 17.9995 9.00024H19.4994V12H17.9995ZM18.7495 4.50059C18.9484 4.50059 19.1391 4.5796 19.2798 4.72024C19.4204 4.86089 19.4994 5.05164 19.4994 5.25053V7.50036H17.9995C17.6017 7.50036 17.2202 7.34233 16.9389 7.06105C16.6577 6.77977 16.4996 6.39827 16.4996 6.00047V4.50059H18.7495ZM21.4883 18.3115L22.5487 19.3734C23.4486 18.43 23.9991 17.1536 23.9991 15.7497V8.2503C23.9993 7.78484 23.8552 7.33077 23.5865 6.95066C23.3179 6.57055 22.938 6.28311 22.4992 6.12796V15.7497C22.4992 16.7396 22.1152 17.6411 21.4883 18.3115Z" fill="white"/>
</g>
<defs>
<clipPath id="clip0_191_1783">
<rect width="24" height="24" fill="white"/>
</clipPath>
</defs>
</svg>
