<svg width="16" height="17" viewBox="0 0 16 17" fill="none" xmlns="http://www.w3.org/2000/svg">
<g clip-path="url(#clip0_79_1460)">
<path d="M15.8444 6.9332H15.2V6.9H8V10.1H12.5212C11.8616 11.9628 10.0892 13.3 8 13.3C5.3492 13.3 3.2 11.1508 3.2 8.5C3.2 5.8492 5.3492 3.7 8 3.7C9.2236 3.7 10.3368 4.1616 11.1844 4.9156L13.4472 2.6528C12.0184 1.3212 10.1072 0.5 8 0.5C3.582 0.5 0 4.082 0 8.5C0 12.918 3.582 16.5 8 16.5C12.418 16.5 16 12.918 16 8.5C16 7.9636 15.9448 7.44 15.8444 6.9332Z" fill="#FFC107"/>
<path d="M0.922852 4.7764L3.55125 6.704C4.26245 4.9432 5.98485 3.7 8.00045 3.7C9.22405 3.7 10.3373 4.1616 11.1849 4.9156L13.4477 2.6528C12.0189 1.3212 10.1077 0.5 8.00045 0.5C4.92765 0.5 2.26285 2.2348 0.922852 4.7764Z" fill="#FF3D00"/>
<path d="M7.99993 16.5C10.0663 16.5 11.9439 15.7092 13.3635 14.4232L10.8875 12.328C10.0573 12.9594 9.04291 13.3008 7.99993 13.3C5.91913 13.3 4.15233 11.9732 3.48673 10.1216L0.87793 12.1316C2.20193 14.7224 4.89073 16.5 7.99993 16.5Z" fill="#4CAF50"/>
<path d="M15.8444 6.9332H15.2V6.9H8V10.1H12.5212C12.2057 10.9866 11.6373 11.7613 10.8864 12.3284L10.8876 12.3276L13.3636 14.4228C13.1884 14.582 16 12.5 16 8.5C16 7.9636 15.9448 7.44 15.8444 6.9332Z" fill="#1976D2"/>
</g>
<defs>
<clipPath id="clip0_79_1460">
<rect width="16" height="16" fill="white" transform="translate(0 0.5)"/>
</clipPath>
</defs>
</svg>
