<svg width="40" height="40" viewBox="0 0 40 40" fill="none" xmlns="http://www.w3.org/2000/svg">
<path id="Vector" d="M36.3636 12.7263C37.3281 12.7263 38.253 13.1094 38.9349 13.7914C39.6169 14.4733 40 15.3982 40 16.3627V23.6354C40 24.5998 39.6169 25.5247 38.9349 26.2067C38.253 26.8886 37.3281 27.2717 36.3636 27.2717H34.4327C33.9895 30.7868 32.2787 34.0193 29.6214 36.3626C26.9641 38.706 23.5429 39.999 20 39.999V36.3627C22.8933 36.3627 25.668 35.2133 27.7139 33.1675C29.7597 31.1216 30.9091 28.3468 30.9091 25.4536V14.5445C30.9091 11.6512 29.7597 8.87643 27.7139 6.83058C25.668 4.78473 22.8933 3.63538 20 3.63538C17.1067 3.63538 14.332 4.78473 12.2861 6.83058C10.2403 8.87643 9.09091 11.6512 9.09091 14.5445V27.2717H3.63636C2.67194 27.2717 1.74702 26.8886 1.06507 26.2067C0.383116 25.5247 0 24.5998 0 23.6354V16.3627C0 15.3982 0.383116 14.4733 1.06507 13.7914C1.74702 13.1094 2.67194 12.7263 3.63636 12.7263H5.56727C6.01097 9.21156 7.72196 5.97952 10.3792 3.63661C13.0365 1.29371 16.4574 0.000976562 20 0.000976562C23.5426 0.000976562 26.9635 1.29371 29.6208 3.63661C32.278 5.97952 33.989 9.21156 34.4327 12.7263H36.3636ZM12.2909 26.8808L14.2182 23.7972C15.951 24.8827 17.9552 25.4569 20 25.4536C22.0448 25.4569 24.049 24.8827 25.7818 23.7972L27.7091 26.8808C25.3987 28.3284 22.7264 29.0941 20 29.0899C17.2735 29.0942 14.6013 28.3285 12.2909 26.8808Z" fill="#1E1E1E"/>
</svg>
