<svg width="33" height="33" viewBox="0 0 33 33" fill="none" xmlns="http://www.w3.org/2000/svg">
<g clip-path="url(#clip0_2165_5426)">
<path d="M11.0019 16.5C11.0019 13.4625 13.4635 10.9996 16.501 10.9996C19.5384 10.9996 22.0014 13.4625 22.0014 16.5C22.0014 19.5375 19.5384 22.0004 16.501 22.0004C13.4635 22.0004 11.0019 19.5375 11.0019 16.5ZM8.02843 16.5C8.02843 21.1794 11.8216 24.9726 16.501 24.9726C21.1804 24.9726 24.9735 21.1794 24.9735 16.5C24.9735 11.8206 21.1804 8.02745 16.501 8.02745C11.8216 8.02745 8.02843 11.8206 8.02843 16.5ZM23.3289 7.69151C23.3288 8.08311 23.4448 8.46597 23.6622 8.79167C23.8796 9.11737 24.1888 9.37127 24.5505 9.52128C24.9122 9.67128 25.3103 9.71065 25.6944 9.63441C26.0786 9.55816 26.4314 9.36973 26.7085 9.09293C26.9855 8.81613 27.1742 8.46341 27.2507 8.07936C27.3273 7.6953 27.2882 7.29718 27.1385 6.93532C26.9888 6.57346 26.7352 6.26413 26.4096 6.04643C26.0841 5.82873 25.7013 5.71246 25.3097 5.7123H25.3089C24.784 5.71254 24.2807 5.92112 23.9094 6.29222C23.5382 6.66332 23.3294 7.16659 23.3289 7.69151ZM9.83498 29.9306C8.22629 29.8573 7.35192 29.5894 6.77086 29.363C6.00051 29.0631 5.45086 28.7059 4.87296 28.1288C4.29507 27.5517 3.93735 27.0026 3.63876 26.2322C3.41225 25.6514 3.14429 24.7768 3.07116 23.1681C2.99117 21.4289 2.9752 20.9064 2.9752 16.5001C2.9752 12.0938 2.99249 11.5728 3.07116 9.83215C3.14442 8.22347 3.41436 7.35055 3.63876 6.76804C3.93867 5.99768 4.29586 5.44804 4.87296 4.87014C5.45007 4.29224 5.99919 3.93452 6.77086 3.63594C7.35166 3.40943 8.22629 3.14147 9.83498 3.06834C11.5742 2.98835 12.0967 2.97238 16.501 2.97238C20.9053 2.97238 21.4283 2.98967 23.169 3.06834C24.7776 3.1416 25.6506 3.41154 26.2331 3.63594C27.0034 3.93452 27.5531 4.29304 28.131 4.87014C28.7089 5.44724 29.0653 5.99768 29.3652 6.76804C29.5917 7.34884 29.8596 8.22347 29.9328 9.83215C30.0128 11.5728 30.0287 12.0938 30.0287 16.5001C30.0287 20.9064 30.0128 21.4274 29.9328 23.1681C29.8595 24.7768 29.5902 25.6512 29.3652 26.2322C29.0653 27.0026 28.7081 27.5522 28.131 28.1288C27.5539 28.7054 27.0034 29.0631 26.2331 29.363C25.6523 29.5895 24.7776 29.8575 23.169 29.9306C21.4297 30.0106 20.9073 30.0266 16.501 30.0266C12.0947 30.0266 11.5737 30.0106 9.83498 29.9306ZM9.69836 0.099924C7.94183 0.179916 6.74156 0.458436 5.69334 0.866316C4.60778 1.28753 3.68879 1.85262 2.77047 2.76949C1.85214 3.68636 1.2885 4.6068 0.867293 5.69237C0.459413 6.74124 0.180893 7.94086 0.100901 9.69738C0.0195886 11.4567 0.000976562 12.0191 0.000976562 16.5C0.000976562 20.9809 0.0195886 21.5433 0.100901 23.3026C0.180893 25.0593 0.459413 26.2588 0.867293 27.3076C1.2885 28.3925 1.85228 29.314 2.77047 30.2305C3.68866 31.147 4.60778 31.7113 5.69334 32.1337C6.74354 32.5416 7.94183 32.8201 9.69836 32.9001C11.4586 32.9801 12.0201 33 16.501 33C20.9818 33 21.5443 32.9814 23.3036 32.9001C25.0603 32.8201 26.2597 32.5416 27.3086 32.1337C28.3935 31.7113 29.3132 31.1474 30.2315 30.2305C31.1498 29.3136 31.7123 28.3925 32.1347 27.3076C32.5425 26.2588 32.8224 25.0591 32.9011 23.3026C32.981 21.542 32.9997 20.9809 32.9997 16.5C32.9997 12.0191 32.981 11.4567 32.9011 9.69738C32.8211 7.94072 32.5425 6.74058 32.1347 5.69237C31.7123 4.60746 31.1484 3.68782 30.2315 2.76949C29.3146 1.85117 28.3935 1.28753 27.3099 0.866316C26.2597 0.458436 25.0601 0.178596 23.3049 0.099924C21.5456 0.019932 20.9832 0 16.5023 0C12.0214 0 11.4586 0.018612 9.69836 0.099924Z" fill="url(#paint0_radial_2165_5426)"/>
<path d="M11.0019 16.5C11.0019 13.4625 13.4635 10.9996 16.501 10.9996C19.5384 10.9996 22.0014 13.4625 22.0014 16.5C22.0014 19.5375 19.5384 22.0004 16.501 22.0004C13.4635 22.0004 11.0019 19.5375 11.0019 16.5ZM8.02843 16.5C8.02843 21.1794 11.8216 24.9726 16.501 24.9726C21.1804 24.9726 24.9735 21.1794 24.9735 16.5C24.9735 11.8206 21.1804 8.02745 16.501 8.02745C11.8216 8.02745 8.02843 11.8206 8.02843 16.5ZM23.3289 7.69151C23.3288 8.08311 23.4448 8.46597 23.6622 8.79167C23.8796 9.11737 24.1888 9.37127 24.5505 9.52128C24.9122 9.67128 25.3103 9.71065 25.6944 9.63441C26.0786 9.55816 26.4314 9.36973 26.7085 9.09293C26.9855 8.81613 27.1742 8.46341 27.2507 8.07936C27.3273 7.6953 27.2882 7.29718 27.1385 6.93532C26.9888 6.57346 26.7352 6.26413 26.4096 6.04643C26.0841 5.82873 25.7013 5.71246 25.3097 5.7123H25.3089C24.784 5.71254 24.2807 5.92112 23.9094 6.29222C23.5382 6.66332 23.3294 7.16659 23.3289 7.69151ZM9.83498 29.9306C8.22629 29.8573 7.35192 29.5894 6.77086 29.363C6.00051 29.0631 5.45086 28.7059 4.87296 28.1288C4.29507 27.5517 3.93735 27.0026 3.63876 26.2322C3.41225 25.6514 3.14429 24.7768 3.07116 23.1681C2.99117 21.4289 2.9752 20.9064 2.9752 16.5001C2.9752 12.0938 2.99249 11.5728 3.07116 9.83215C3.14442 8.22347 3.41436 7.35055 3.63876 6.76804C3.93867 5.99768 4.29586 5.44804 4.87296 4.87014C5.45007 4.29224 5.99919 3.93452 6.77086 3.63594C7.35166 3.40943 8.22629 3.14147 9.83498 3.06834C11.5742 2.98835 12.0967 2.97238 16.501 2.97238C20.9053 2.97238 21.4283 2.98967 23.169 3.06834C24.7776 3.1416 25.6506 3.41154 26.2331 3.63594C27.0034 3.93452 27.5531 4.29304 28.131 4.87014C28.7089 5.44724 29.0653 5.99768 29.3652 6.76804C29.5917 7.34884 29.8596 8.22347 29.9328 9.83215C30.0128 11.5728 30.0287 12.0938 30.0287 16.5001C30.0287 20.9064 30.0128 21.4274 29.9328 23.1681C29.8595 24.7768 29.5902 25.6512 29.3652 26.2322C29.0653 27.0026 28.7081 27.5522 28.131 28.1288C27.5539 28.7054 27.0034 29.0631 26.2331 29.363C25.6523 29.5895 24.7776 29.8575 23.169 29.9306C21.4297 30.0106 20.9073 30.0266 16.501 30.0266C12.0947 30.0266 11.5737 30.0106 9.83498 29.9306ZM9.69836 0.099924C7.94183 0.179916 6.74156 0.458436 5.69334 0.866316C4.60778 1.28753 3.68879 1.85262 2.77047 2.76949C1.85214 3.68636 1.2885 4.6068 0.867293 5.69237C0.459413 6.74124 0.180893 7.94086 0.100901 9.69738C0.0195886 11.4567 0.000976562 12.0191 0.000976562 16.5C0.000976562 20.9809 0.0195886 21.5433 0.100901 23.3026C0.180893 25.0593 0.459413 26.2588 0.867293 27.3076C1.2885 28.3925 1.85228 29.314 2.77047 30.2305C3.68866 31.147 4.60778 31.7113 5.69334 32.1337C6.74354 32.5416 7.94183 32.8201 9.69836 32.9001C11.4586 32.9801 12.0201 33 16.501 33C20.9818 33 21.5443 32.9814 23.3036 32.9001C25.0603 32.8201 26.2597 32.5416 27.3086 32.1337C28.3935 31.7113 29.3132 31.1474 30.2315 30.2305C31.1498 29.3136 31.7123 28.3925 32.1347 27.3076C32.5425 26.2588 32.8224 25.0591 32.9011 23.3026C32.981 21.542 32.9997 20.9809 32.9997 16.5C32.9997 12.0191 32.981 11.4567 32.9011 9.69738C32.8211 7.94072 32.5425 6.74058 32.1347 5.69237C31.7123 4.60746 31.1484 3.68782 30.2315 2.76949C29.3146 1.85117 28.3935 1.28753 27.3099 0.866316C26.2597 0.458436 25.0601 0.178596 23.3049 0.099924C21.5456 0.019932 20.9832 0 16.5023 0C12.0214 0 11.4586 0.018612 9.69836 0.099924Z" fill="url(#paint1_radial_2165_5426)"/>
</g>
<defs>
<radialGradient id="paint0_radial_2165_5426" cx="0" cy="0" r="1" gradientUnits="userSpaceOnUse" gradientTransform="translate(4.38522 33.1559) scale(43.0787)">
<stop offset="0.09" stop-color="#FA8F21"/>
<stop offset="0.78" stop-color="#D82D7E"/>
</radialGradient>
<radialGradient id="paint1_radial_2165_5426" cx="0" cy="0" r="1" gradientUnits="userSpaceOnUse" gradientTransform="translate(20.014 34.6343) scale(33.952 33.952)">
<stop offset="0.64" stop-color="#8C3AAA" stop-opacity="0"/>
<stop offset="1" stop-color="#8C3AAA"/>
</radialGradient>
<clipPath id="clip0_2165_5426">
<rect width="33" height="33" fill="white"/>
</clipPath>
</defs>
</svg>
