<svg width="24" height="24" viewBox="0 0 24 24" fill="none" xmlns="http://www.w3.org/2000/svg">
<path d="M21.625 0.625H2.375C1.91087 0.625 1.46575 0.809374 1.13756 1.13756C0.809374 1.46575 0.625 1.91087 0.625 2.375V21.625C0.625 22.0891 0.809374 22.5342 1.13756 22.8624C1.46575 23.1906 1.91087 23.375 2.375 23.375H21.625C22.0891 23.375 22.5342 23.1906 22.8624 22.8624C23.1906 22.5342 23.375 22.0891 23.375 21.625V2.375C23.375 1.91087 23.1906 1.46575 22.8624 1.13756C22.5342 0.809374 22.0891 0.625 21.625 0.625ZM8.5 17.25C8.5 17.4821 8.40781 17.7046 8.24372 17.8687C8.07962 18.0328 7.85706 18.125 7.625 18.125C7.39294 18.125 7.17038 18.0328 7.00628 17.8687C6.84219 17.7046 6.75 17.4821 6.75 17.25V10.25C6.75 10.0179 6.84219 9.79538 7.00628 9.63128C7.17038 9.46719 7.39294 9.375 7.625 9.375C7.85706 9.375 8.07962 9.46719 8.24372 9.63128C8.40781 9.79538 8.5 10.0179 8.5 10.25V17.25ZM7.625 8.5C7.36541 8.5 7.11165 8.42302 6.89581 8.2788C6.67998 8.13458 6.51175 7.9296 6.41241 7.68977C6.31307 7.44994 6.28708 7.18604 6.33772 6.93144C6.38836 6.67684 6.51337 6.44298 6.69692 6.25942C6.88048 6.07587 7.11434 5.95086 7.36894 5.90022C7.62354 5.84958 7.88744 5.87557 8.12727 5.97491C8.3671 6.07425 8.57208 6.24248 8.7163 6.45831C8.86052 6.67415 8.9375 6.92791 8.9375 7.1875C8.9375 7.5356 8.79922 7.86944 8.55308 8.11558C8.30694 8.36172 7.9731 8.5 7.625 8.5ZM18.125 17.25C18.125 17.4821 18.0328 17.7046 17.8687 17.8687C17.7046 18.0328 17.4821 18.125 17.25 18.125C17.0179 18.125 16.7954 18.0328 16.6313 17.8687C16.4672 17.7046 16.375 17.4821 16.375 17.25V13.3125C16.375 12.7323 16.1445 12.1759 15.7343 11.7657C15.3241 11.3555 14.7677 11.125 14.1875 11.125C13.6073 11.125 13.0509 11.3555 12.6407 11.7657C12.2305 12.1759 12 12.7323 12 13.3125V17.25C12 17.4821 11.9078 17.7046 11.7437 17.8687C11.5796 18.0328 11.3571 18.125 11.125 18.125C10.8929 18.125 10.6704 18.0328 10.5063 17.8687C10.3422 17.7046 10.25 17.4821 10.25 17.25V10.25C10.2511 10.0357 10.3308 9.8292 10.474 9.66975C10.6172 9.51029 10.814 9.40895 11.027 9.38494C11.24 9.36093 11.4543 9.41593 11.6295 9.53949C11.8046 9.66306 11.9283 9.84661 11.977 10.0553C12.569 9.65377 13.2591 9.42104 13.9733 9.38213C14.6875 9.34322 15.3988 9.49958 16.0309 9.83444C16.6629 10.1693 17.1918 10.67 17.5607 11.2828C17.9297 11.8955 18.1248 12.5972 18.125 13.3125V17.25Z" fill="#2767B1"/>
</svg>
