<svg width="48" height="48" viewBox="0 0 48 48" fill="none" xmlns="http://www.w3.org/2000/svg">
<g id="mingcute:target-line" clip-path="url(#clip0_134_1769)">
<g id="Group">
<path id="Vector" d="M24 4C24.75 4 25.49 4.04 26.22 4.122C26.4811 4.15089 26.7339 4.23092 26.964 4.35752C27.1942 4.48412 27.3971 4.6548 27.5613 4.85984C27.7255 5.06487 27.8476 5.30023 27.9209 5.55248C27.9941 5.80473 28.0169 6.06893 27.988 6.33C27.9591 6.59107 27.8791 6.84389 27.7525 7.07403C27.6259 7.30417 27.4552 7.50712 27.2502 7.67129C27.0451 7.83547 26.8098 7.95765 26.5575 8.03086C26.3053 8.10408 26.0411 8.12689 25.78 8.098C22.4841 7.72929 19.155 8.39388 16.2534 9.99985C13.3517 11.6058 11.0207 14.0738 9.58293 17.0624C8.14516 20.051 7.67161 23.4125 8.22778 26.682C8.78396 29.9515 10.3424 32.9674 12.6875 35.3125C15.0326 37.6576 18.0485 39.216 21.318 39.7722C24.5875 40.3284 27.949 39.8548 30.9376 38.4171C33.9262 36.9793 36.3942 34.6483 38.0002 31.7466C39.6061 28.845 40.2707 25.5159 39.902 22.22C39.8731 21.9589 39.8959 21.6947 39.9691 21.4425C40.0424 21.1902 40.1645 20.9549 40.3287 20.7498C40.6603 20.3358 41.1427 20.0703 41.67 20.012C42.1973 19.9537 42.7261 20.1071 43.1402 20.4387C43.3452 20.6029 43.5159 20.8058 43.6425 21.036C43.7691 21.2661 43.8491 21.5189 43.878 21.78C43.958 22.51 44 23.25 44 24C44 35.046 35.046 44 24 44C12.954 44 4 35.046 4 24C4 12.954 12.954 4 24 4ZM23.936 15.754C24.0678 16.2674 23.9904 16.8122 23.7208 17.2686C23.4511 17.725 23.0113 18.0557 22.498 18.188C21.0877 18.5574 19.8601 19.4273 19.0441 20.6354C18.2281 21.8435 17.8795 23.3072 18.0634 24.7534C18.2473 26.1996 18.9511 27.5295 20.0435 28.4949C21.1358 29.4603 22.5422 29.9953 24 30C25.3301 29.9994 26.6223 29.5572 27.6739 28.7427C28.7255 27.9283 29.4768 26.7877 29.81 25.5C29.9426 24.9863 30.2739 24.5463 30.7309 24.2768C31.1879 24.0073 31.7333 23.9304 32.247 24.063C32.7607 24.1956 33.2007 24.5269 33.4702 24.9839C33.7397 25.4409 33.8166 25.9863 33.684 26.5C33.0705 28.8519 31.6217 30.8999 29.6083 32.2615C27.5949 33.6232 25.1547 34.2052 22.7435 33.899C20.3323 33.5928 18.1151 32.4192 16.506 30.5975C14.897 28.7758 14.0061 26.4306 14 24C14.0003 21.783 14.7371 19.6288 16.0947 17.876C17.4522 16.1232 19.3535 14.8709 21.5 14.316C21.7544 14.2504 22.0192 14.2356 22.2793 14.2724C22.5394 14.3092 22.7897 14.3969 23.0159 14.5304C23.2421 14.6639 23.4398 14.8407 23.5976 15.0507C23.7555 15.2606 23.8705 15.4996 23.936 15.754ZM37.008 4.254C37.3731 4.40536 37.6851 4.66147 37.9047 4.99002C38.1243 5.31856 38.2417 5.70481 38.242 6.1V9.76H41.9C42.2955 9.76008 42.6821 9.87743 43.0109 10.0972C43.3397 10.317 43.596 10.6293 43.7474 10.9947C43.8987 11.3601 43.9383 11.7622 43.8612 12.1501C43.784 12.538 43.5936 12.8943 43.314 13.174L36.24 20.24C35.865 20.6151 35.3564 20.8259 34.826 20.826H30L26.344 24.484C25.9687 24.8593 25.4597 25.0701 24.929 25.0701C24.3983 25.0701 23.8893 24.8593 23.514 24.484C23.1387 24.1087 22.9279 23.5997 22.9279 23.069C22.9279 22.5383 23.1387 22.0293 23.514 21.654L27.172 18V13.172C27.1721 12.6416 27.3829 12.133 27.758 11.758L34.828 4.686C35.1077 4.40613 35.4641 4.21552 35.8522 4.13826C36.2402 4.06101 36.6425 4.10059 37.008 4.252V4.254ZM34.242 10.928L31.172 14V16.828H34L37.072 13.758H36.242C35.7116 13.758 35.2029 13.5473 34.8278 13.1722C34.4527 12.7971 34.242 12.2884 34.242 11.758V10.928Z" fill="#007B5D"/>
</g>
</g>
<defs>
<clipPath id="clip0_134_1769">
<rect width="48" height="48" fill="white"/>
</clipPath>
</defs>
</svg>
