<svg width="32" height="39" viewBox="0 0 32 39" fill="none" xmlns="http://www.w3.org/2000/svg">
<path id="Vector" d="M17.4521 18.6849L23.2155 12.5208L4.59983 1.3308C3.36606 0.617871 2.21026 0.517812 1.19674 1.29744L17.4521 18.6849ZM24.1978 25.9017L30.1893 22.2975C31.3588 21.5971 32 20.6048 32 19.5041C32 18.4056 31.3588 17.4112 30.1913 16.7108L24.767 13.4526L18.6605 19.9815L24.1978 25.9017ZM0.194908 2.81293C0.0701667 3.22359 0 3.6822 0 4.18458V34.8383C0 35.6325 0.163723 36.3163 0.459983 36.8603L16.2417 19.9794L0.194908 2.81293ZM17.4521 21.2719L1.75807 38.059C2.05823 38.182 2.38178 38.2466 2.72286 38.2466C3.33098 38.2466 3.96443 38.0548 4.60957 37.6712L22.6483 26.8377L17.4521 21.2719Z" fill="white"/>
</svg>
