<svg width="29" height="34" viewBox="0 0 29 34" fill="none" xmlns="http://www.w3.org/2000/svg">
<path d="M15.4894 16.3669L20.5629 10.9408L4.17586 1.09039C3.08979 0.462819 2.07236 0.374739 1.18017 1.06103L15.4894 16.3669ZM21.4276 22.7197L26.7018 19.547C27.7312 18.9304 28.2957 18.057 28.2957 17.0881C28.2957 16.121 27.7312 15.2457 26.7035 14.6291L21.9286 11.761L16.5532 17.5083L21.4276 22.7197ZM0.298283 2.39509C0.188475 2.75659 0.126709 3.16029 0.126709 3.60253V30.5864C0.126709 31.2856 0.270831 31.8875 0.531624 32.3664L14.424 17.5064L0.298283 2.39509ZM15.4894 18.6442L1.67431 33.4215C1.93853 33.5298 2.22334 33.5867 2.5236 33.5867C3.05891 33.5867 3.61652 33.4179 4.18443 33.0802L20.0636 23.5436L15.4894 18.6442Z" fill="#1E1E1E"/>
</svg>
