<svg width="179" height="199" viewBox="0 0 179 199" fill="none" xmlns="http://www.w3.org/2000/svg">
<path id="Intersect" fill-rule="evenodd" clip-rule="evenodd" d="M179 121.657C165.678 126.548 151.283 129.218 136.265 129.218C127.977 129.218 119.879 128.405 112.046 126.854C89.5357 106.902 75.3478 77.7703 75.3478 45.3249C75.3478 29.1509 78.8735 13.8004 85.1982 0L72.1301 0C66.4665 13.9974 63.3478 29.297 63.3478 45.3249C63.3478 73.4796 72.9709 99.3866 89.1075 119.936C76.409 114.711 64.769 107.438 54.5981 98.5293C48.4789 82.8535 45.1205 65.7956 45.1205 47.9534C45.1205 31.1013 48.1165 14.949 53.6049 0L40.8864 0C35.8491 15.0672 33.1205 31.1916 33.1205 47.9534C33.1205 58.4069 34.1818 68.6126 36.2025 78.4685C21.1525 57.9446 12.2648 32.6193 12.2648 5.21812C12.2648 3.47007 12.3009 1.73045 12.3726 0L0.363033 0C0.29772 1.73129 0.264771 3.47086 0.264771 5.21812C0.264771 44.9652 17.3156 80.7298 44.5018 105.596C66.5283 158.941 118.208 196.922 179 199V186.992C131.527 185.229 90.1338 159.681 66.3866 121.917C78.6518 129.277 92.1733 134.758 106.553 137.963C126.316 154.557 151.465 164.944 179 166.122V154.109C162.221 153.312 146.437 148.718 132.487 141.167C133.742 141.201 135.001 141.218 136.265 141.218C151.194 141.218 165.561 138.813 179 134.368V121.657Z" fill="#EDEDED" fill-opacity="0.5"/>
</svg>
