<svg width="68" height="68" viewBox="0 0 68 68" fill="none" xmlns="http://www.w3.org/2000/svg">
<g id="el:quote-alt" clip-path="url(#clip0_65_2393)">
<path id="Vector" d="M34 0C15.2223 0 0 15.2223 0 34C0 52.7777 15.2223 68 34 68C52.7777 68 68 52.7777 68 34C68 15.2223 52.7777 0 34 0ZM31.3977 16.0039L32.8586 22.7318C28.578 23.6793 24.6417 24.9116 24.9604 29.6919H29.9907V47.5968H14.8377V30.8623C14.843 17.5632 24.607 16.4811 31.3977 16.0039ZM51.6973 16.0039L53.1623 22.7318C48.8817 23.6793 44.9454 24.9116 45.2641 29.6919H50.2944V47.5968H35.1414V30.8623C35.1467 17.5632 44.9066 16.4811 51.6973 16.0039Z" fill="#E5E5E5"/>
</g>
<defs>
<clipPath id="clip0_65_2393">
<rect width="68" height="68" fill="white"/>
</clipPath>
</defs>
</svg>
