<?xml version="1.0"?>
<svg xmlns="http://www.w3.org/2000/svg" xmlns:xlink="http://www.w3.org/1999/xlink" xmlns:svgjs="http://svgjs.com/svgjs" version="1.1" width="512" height="512" x="0" y="0" viewBox="0 0 512.034 512.034" style="enable-background:new 0 0 512 512" xml:space="preserve" class=""><g><g xmlns="http://www.w3.org/2000/svg"><path d="m174.234 418.861-160-74.08c-3.573-1.654-7.784-1.058-10.756 1.522-2.973 2.581-4.156 6.665-3.021 10.435l21.426 71.198-21.427 71.198c-2.054 6.175 3.119 13.075 9.578 12.882 1.423 0 2.857-.304 4.2-.925l160-74.08c7.621-3.375 7.679-14.757 0-18.15zm-148.215 64.733 15.882-52.776c.566-1.879.566-3.884 0-5.764l-15.882-52.776 120.212 55.658z" fill="#007b5d" data-original="#000000" style="" class=""/><path d="m422.034.014c-49.626 0-90 40.374-90 90 .59 48.568 50.477 101.342 82.462 138.097 3.767 4.522 11.309 4.533 15.075 0 31.978-36.736 81.883-89.546 82.463-138.096 0-49.627-40.374-90.001-90-90.001zm0 206.373c-26.353-29.902-70-79.591-70-116.373 0-38.598 31.402-70 70-70s70 31.402 70 70c0 36.782-43.648 86.471-70 116.373z" fill="#007b5d" data-original="#000000" style="" class=""/><path d="m422.034 50.014c-22.056 0-40 17.944-40 40 2.011 52.993 77.997 52.978 80-.001 0-22.055-17.944-39.999-40-39.999zm0 60.001c-11.028 0-20-8.972-20-20 1.006-26.497 38.998-26.49 40 0 0 11.027-8.973 20-20 20z" fill="#007b5d" data-original="#000000" style="" class=""/><path d="m197.032 231.539h20c13.245-.488 13.252-19.51 0-20h-20c-13.245.488-13.252 19.511 0 20z" fill="#007b5d" data-original="#000000" style="" class=""/><path d="m117.028 231.546c.25-.001.5-.007.751-.006h19.252c13.243-.486 13.254-19.51 0-20h-19.252c-.309 0-.618.002-.925.008-13.117.671-12.942 19.561.174 19.998z" fill="#007b5d" data-original="#000000" style="" class=""/><path d="m228.77 310.536c0-5.523-4.477-10-10-10h-20c-13.245.488-13.252 19.51 0 20h20c5.523 0 10-4.477 10-10z" fill="#007b5d" data-original="#000000" style="" class=""/><path d="m138.769 300.536h-20c-13.245.488-13.252 19.51 0 20h20c13.246-.488 13.252-19.511 0-20z" fill="#007b5d" data-original="#000000" style="" class=""/><path d="m74.597 286.796c6.395.077 11.358-6.228 9.708-12.433-1.253-4.975-1.354-10.32-.3-15.342 2.265-13.043-16.419-16.96-19.576-4.094-1.673 7.968-1.511 16.403.476 24.297 1.137 4.542 5.213 7.572 9.692 7.572z" fill="#007b5d" data-original="#000000" style="" class=""/><path d="m357.033 231.539h20c13.245-.488 13.252-19.51 0-20h-20c-13.245.488-13.252 19.511 0 20z" fill="#007b5d" data-original="#000000" style="" class=""/><path d="m386.329 412.12c-4.894 2.646-10.149 4.414-15.62 5.254-13.051 2.485-10.067 21.345 3.037 19.769 7.745-1.19 15.18-3.69 22.097-7.431 11.422-6.695 2.35-23.488-9.514-17.592z" fill="#007b5d" data-original="#000000" style="" class=""/><path d="m375.973 322.21c12.824 3.036 17.935-15.366 5.227-19.305-7.215-2.046-14.928-2.536-22.43-2.37-5.523 0-10 4.477-10 10s4.477 10 10 10h4.562c4.284.001 8.537.564 12.641 1.675z" fill="#007b5d" data-original="#000000" style="" class=""/><path d="m416.825 343.134c-5.297 1.563-8.324 7.125-6.76 12.421 1.307 4.428 1.969 9.03 1.969 13.681-2.167 17.606 21.741 17.705 20 0 0-6.568-.938-13.075-2.787-19.342-1.564-5.297-7.123-8.323-12.422-6.76z" fill="#007b5d" data-original="#000000" style="" class=""/><path d="m232.264 417.936h-20c-13.245.488-13.252 19.51 0 20h20c13.245-.488 13.251-19.51 0-20z" fill="#007b5d" data-original="#000000" style="" class=""/><path d="m312.264 417.936h-20c-13.245.488-13.252 19.51 0 20h20c13.245-.488 13.252-19.51 0-20z" fill="#007b5d" data-original="#000000" style="" class=""/><path d="m277.033 231.539h20c13.245-.488 13.252-19.51 0-20h-20c-13.246.488-13.252 19.511 0 20z" fill="#007b5d" data-original="#000000" style="" class=""/><path d="m308.77 310.536c0-5.523-4.477-10-10-10h-20c-13.245.488-13.252 19.51 0 20h20c5.523 0 10-4.477 10-10z" fill="#007b5d" data-original="#000000" style="" class=""/></g></g></svg>
