<?xml version="1.0" standalone="no"?>
<!DOCTYPE svg PUBLIC "-//W3C//DTD SVG 20010904//EN"
 "http://www.w3.org/TR/2001/REC-SVG-20010904/DTD/svg10.dtd">
<svg version="1.0" xmlns="http://www.w3.org/2000/svg"
 width="160.000000pt" height="102.000000pt" viewBox="0 0 160.000000 102.000000"
 preserveAspectRatio="xMidYMid meet">

<g transform="translate(0.000000,102.000000) scale(0.100000,-0.100000)"
fill="#000000" stroke="none">
<path d="M267 1009 c-89 -21 -171 -81 -210 -154 -18 -33 -22 -56 -22 -140 0
-175 26 -201 336 -335 100 -43 124 -65 109 -105 -15 -40 -39 -50 -119 -49 -60
1 -98 9 -179 37 -57 20 -109 34 -116 31 -14 -5 -28 -46 -46 -138 -12 -57 -11
-61 10 -78 62 -50 296 -88 426 -69 141 21 217 69 266 168 26 53 31 76 32 136
1 157 -54 220 -270 311 -172 71 -184 79 -184 114 0 33 8 45 40 63 20 11 104
15 415 17 449 4 484 1 527 -37 82 -73 -7 -188 -130 -165 -44 8 -52 18 -52 62
0 68 -8 72 -130 72 -98 0 -110 -2 -120 -19 -14 -27 -14 -645 1 -672 15 -29 50
-39 172 -50 121 -10 291 1 373 26 80 23 135 65 169 126 27 48 30 63 30 139 0
111 -26 164 -97 198 -60 28 -64 56 -13 89 51 34 79 94 79 173 0 76 -17 115
-78 178 -31 32 -57 48 -104 62 -60 19 -94 20 -571 19 -278 -1 -523 -5 -544
-10z m1010 -592 c59 -31 69 -125 18 -176 -21 -21 -36 -26 -95 -29 -96 -6 -100
-1 -100 109 0 112 9 124 90 116 31 -3 70 -12 87 -20z"/>
</g>
</svg>
