<svg width="40" height="44" viewBox="0 0 40 44" fill="none" xmlns="http://www.w3.org/2000/svg">
<g id="Group">
<path id="Vector" d="M19.987 0.706659C20.6853 0.706659 21.3731 0.751974 22.0128 0.858596C22.6429 0.941156 23.2645 1.07851 23.8707 1.26909C24.4784 1.45302 25.0729 1.68225 25.6673 1.97014C26.2457 2.24469 26.8401 2.58055 27.4345 2.94573C28.4395 3.58547 29.4284 4.10258 30.436 4.51575C32.4195 5.30964 34.517 5.78205 36.6494 5.91517C37.7316 5.99247 38.8431 6.03778 40 6.03778V16.7C40 18.7259 39.7414 20.6451 39.2243 22.4736C38.7276 24.2761 38.0217 26.0143 37.1212 27.6528C36.2244 29.289 35.1634 30.8297 33.9545 32.2509C32.7271 33.7045 31.3981 35.0691 29.9775 36.3346C28.5381 37.6037 27.0221 38.7832 25.438 39.8664C23.8547 40.9646 22.2554 41.9855 20.656 42.9132L20.0163 43.2943L19.3766 42.9132C17.7324 41.9613 16.1265 40.9449 14.5626 39.8664C12.9696 38.7955 11.4528 37.6153 10.0231 36.3346C8.60339 35.0691 7.27527 33.7044 6.04875 32.2509C4.8431 30.8236 3.77731 29.2839 2.86607 27.6528C1.98092 26.007 1.2758 24.2706 0.762942 22.4736C0.242543 20.5937 -0.0140282 18.6506 0.000591225 16.7V6.03778C1.16011 6.03778 2.27165 5.99247 3.35387 5.91517C4.41919 5.84117 5.47761 5.68882 6.52055 5.45935C7.54146 5.23012 8.56237 4.92624 9.56729 4.51575C10.6101 4.09489 11.6098 3.57448 12.5527 2.96172C13.7256 2.19937 14.9144 1.63694 16.0873 1.26643C17.3504 0.879205 18.6659 0.690369 19.987 0.706659ZM37.3184 8.65803C35.3007 8.56012 33.3017 8.22279 31.3636 7.65311C29.4357 7.07803 27.5994 6.23168 25.9098 5.13949C25.0335 4.56425 24.0817 4.11304 23.0817 3.79871C22.0827 3.4968 21.0439 3.34762 20.0003 3.35623C18.949 3.34943 17.9025 3.49854 16.8949 3.79871C15.8934 4.10283 14.9429 4.55473 14.0748 5.13949C12.3823 6.23764 10.5412 7.0877 8.60769 7.66377C6.7178 8.21288 4.73996 8.54874 2.66615 8.67136V16.7134C2.66615 18.4806 2.89539 20.1706 3.35387 21.7992C3.82094 23.4138 4.46456 24.9719 5.27307 26.4453C6.09126 27.9341 7.05562 29.3378 8.15188 30.6356C9.26342 31.9444 10.4496 33.1625 11.7291 34.3194C13.0085 35.4789 14.3493 36.5451 15.7514 37.5341C17.1668 38.5256 18.5849 39.4239 20.0003 40.2449C21.4496 39.4012 22.8627 38.4968 24.2359 37.5341C25.6472 36.5482 26.9951 35.4746 28.2715 34.3194C29.551 33.1625 30.7398 31.9444 31.8514 30.6356C32.9478 29.3379 33.9121 27.9342 34.7302 26.4453C35.5351 24.9737 36.1692 23.4149 36.6201 21.7992C37.0925 20.1456 37.3276 18.4332 37.3184 16.7134V8.65803Z" fill="#1E1E1E"/>
<path id="Vector_2" fill-rule="evenodd" clip-rule="evenodd" d="M29.9246 13.2589L28.7517 12.2513L27.6695 12.3446L16.0476 26.0669L12.0893 20.416L11.0231 20.2347L9.7889 21.117L9.60498 22.1832L14.6935 29.4495L15.272 29.7694L16.4901 29.844L17.1139 29.5722L30.0019 14.3385L29.9246 13.2589Z" fill="#1E1E1E"/>
</g>
</svg>
