<svg width="24" height="23" viewBox="0 0 24 23" fill="none" xmlns="http://www.w3.org/2000/svg">
<g id="solar:hand-money-linear" clip-path="url(#clip0_191_1785)">
<g id="Group">
<path id="Vector" d="M17.9062 9.17888C18.5455 8.53961 18.5455 7.51197 18.5455 5.45452C18.5455 3.39706 18.5455 2.36943 17.9062 1.73015M17.9062 9.17888C17.2669 9.81815 16.2393 9.81815 14.1818 9.81815H9.81818C7.76073 9.81815 6.73309 9.81815 6.09382 9.17888M17.9062 1.73015C17.2669 1.09088 16.2393 1.09088 14.1818 1.09088H9.81818C7.76073 1.09088 6.73309 1.09088 6.09382 1.73015M6.09382 1.73015C5.45454 2.36943 5.45454 3.39706 5.45454 5.45452C5.45454 7.51197 5.45454 8.53961 6.09382 9.17888M13.0909 5.45452C13.0909 5.74384 12.976 6.02132 12.7714 6.22591C12.5668 6.43049 12.2893 6.54543 12 6.54543C11.7107 6.54543 11.4332 6.43049 11.2286 6.22591C11.024 6.02132 10.9091 5.74384 10.9091 5.45452C10.9091 5.16519 11.024 4.88771 11.2286 4.68313C11.4332 4.47854 11.7107 4.36361 12 4.36361C12.2893 4.36361 12.5668 4.47854 12.7714 4.68313C12.976 4.88771 13.0909 5.16519 13.0909 5.45452Z" stroke="white" stroke-width="1.5"/>
<path id="Vector_2" d="M18.5454 4.36361C17.6775 4.36361 16.845 4.0188 16.2313 3.40505C15.6175 2.79129 15.2727 1.95886 15.2727 1.09088M18.5454 6.54543C17.6775 6.54543 16.845 6.89023 16.2313 7.50399C15.6175 8.11774 15.2727 8.95017 15.2727 9.81815M5.45454 4.36361C6.32252 4.36361 7.15495 4.0188 7.76871 3.40505C8.38246 2.79129 8.72727 1.95886 8.72727 1.09088M5.45454 6.54543C6.32252 6.54543 7.15495 6.89023 7.76871 7.50399C8.38246 8.11774 8.72727 8.95017 8.72727 9.81815M4.36363 20.0596H6.82909C7.9309 20.0596 9.0469 20.1752 10.1193 20.3956C12.0338 20.7889 14.0037 20.8325 15.9338 20.5243C16.8807 20.3716 17.8102 20.1371 18.6524 19.7312C19.4116 19.3636 20.3422 18.8476 20.9673 18.2683C21.5913 17.6902 22.2414 16.7443 22.7018 16.0047C23.0989 15.3698 22.9069 14.592 22.2807 14.1196C21.9288 13.8637 21.5049 13.7258 21.0698 13.7258C20.6347 13.7258 20.2108 13.8637 19.8589 14.1196L17.8876 15.6087C17.124 16.1869 16.2894 16.7182 15.2956 16.8763C15.1756 16.8949 15.0502 16.9123 14.9193 16.9276M14.9193 16.9276C14.8793 16.9322 14.8393 16.9366 14.7993 16.9407M14.9193 16.9276C15.0939 16.8804 15.254 16.7904 15.3851 16.6658C15.5495 16.5236 15.6837 16.3499 15.7799 16.1549C15.876 15.96 15.9322 15.7478 15.945 15.5308C15.9578 15.3138 15.927 15.0964 15.8545 14.8915C15.7819 14.6867 15.6691 14.4984 15.5225 14.3378C15.3804 14.18 15.2148 14.0449 15.0316 13.9374C11.9804 12.1167 7.23163 13.5032 4.36363 15.5378M14.9193 16.9276C14.8798 16.9362 14.8396 16.9406 14.7993 16.9407M14.7993 16.9407C14.1414 17.0068 13.4786 17.0083 12.8204 16.9451" stroke="white" stroke-width="1.5" stroke-linecap="round"/>
<path id="Vector_3" d="M4.36364 14.7272C4.36364 13.8235 3.63101 13.0909 2.72728 13.0909C1.82354 13.0909 1.09091 13.8235 1.09091 14.7272V20.1818C1.09091 21.0855 1.82354 21.8182 2.72728 21.8182C3.63101 21.8182 4.36364 21.0855 4.36364 20.1818V14.7272Z" stroke="white" stroke-width="1.5"/>
</g>
</g>
<defs>
<clipPath id="clip0_191_1785">
<rect width="24" height="22.9091" fill="white"/>
</clipPath>
</defs>
</svg>
