<svg width="40" height="32" viewBox="0 0 40 32" fill="none" xmlns="http://www.w3.org/2000/svg">
<path id="Vector" d="M16.8986 22.9994C17.6985 23.7994 18.7318 24.1913 19.9983 24.1753C21.2649 24.1593 22.1981 23.7007 22.7981 22.7994L33.9972 6.00084L17.1986 17.1999C16.2986 17.7999 15.824 18.7165 15.7747 19.9497C15.7254 21.1829 16.1 22.1995 16.8986 22.9994ZM19.9983 0.00134531C21.9648 0.00134531 23.8567 0.276656 25.6739 0.827277C27.491 1.3779 29.1989 2.2025 30.7974 3.30107L26.9977 5.70087C25.8978 5.13425 24.7566 4.70962 23.574 4.42698C22.3915 4.14433 21.1996 4.00235 19.9983 4.00101C15.5654 4.00101 11.7904 5.55888 8.67328 8.67462C5.5562 11.7904 3.99833 15.5654 3.99967 19.9997C3.99967 21.3996 4.19165 22.7828 4.57562 24.1493C4.95959 25.5159 5.50087 26.7991 6.19948 27.999H33.7972C34.5638 26.7325 35.1224 25.4159 35.473 24.0493C35.8237 22.6828 35.9983 21.2662 35.997 19.7997C35.997 18.5998 35.855 17.4332 35.571 16.3C35.2871 15.1667 34.8624 14.0668 34.2971 13.0003L36.6969 9.20058C37.6969 10.7671 38.4888 12.4336 39.0727 14.2002C39.6567 15.9667 39.9647 17.7999 39.9967 19.6997C40.03 21.5995 39.8133 23.4161 39.3467 25.1493C38.8801 26.8824 38.1968 28.5323 37.2969 30.0988C36.9303 30.6988 36.4303 31.1654 35.797 31.4987C35.1637 31.832 34.4971 31.9987 33.7972 31.9987H6.19948C5.49954 31.9987 4.83293 31.832 4.19965 31.4987C3.56637 31.1654 3.06641 30.6988 2.69977 30.0988C1.83318 28.599 1.16657 27.0071 0.699941 25.3232C0.233314 23.6394 0 21.8649 0 19.9997C0 17.2332 0.52529 14.6415 1.57587 12.2243C2.62645 9.8072 4.05966 7.69137 5.87551 5.87686C7.69136 4.05967 9.81518 2.62579 12.247 1.57521C14.6788 0.524635 17.2626 1.20859e-05 19.9983 0.00134531Z" fill="#1E1E1E"/>
</svg>
