<svg width="24" height="24" viewBox="0 0 24 24" fill="none" xmlns="http://www.w3.org/2000/svg">
<g id="tdesign:money" clip-path="url(#clip0_197_1859)">
<path id="Vector" d="M12 13.6364C10.9874 13.6364 10.0162 14.0386 9.30014 14.7547C8.5841 15.4707 8.18182 16.4419 8.18182 17.4545C8.18182 18.4672 8.5841 19.4383 9.30014 20.1544C10.0162 20.8704 10.9874 21.2727 12 21.2727C13.0127 21.2727 13.9838 20.8704 14.6999 20.1544C15.4159 19.4383 15.8182 18.4672 15.8182 17.4545C15.8182 16.4419 15.4159 15.4707 14.6999 14.7547C13.9838 14.0386 13.0127 13.6364 12 13.6364ZM10.3636 17.4545C10.3636 17.0205 10.536 16.6043 10.8429 16.2975C11.1498 15.9906 11.566 15.8182 12 15.8182C12.434 15.8182 12.8502 15.9906 13.1571 16.2975C13.464 16.6043 13.6364 17.0205 13.6364 17.4545C13.6364 17.8885 13.464 18.3047 13.1571 18.6116C12.8502 18.9185 12.434 19.0909 12 19.0909C11.566 19.0909 11.1498 18.9185 10.8429 18.6116C10.536 18.3047 10.3636 17.8885 10.3636 17.4545Z" fill="white"/>
<path id="Vector_2" d="M18.0284 5.58111L14.5604 0.718933L1.80874 10.9058L1.10183 10.8982V10.9091H0.545471V24H23.4546V10.9091H22.4051L20.3171 4.80111L18.0284 5.58111ZM20.1 10.9091H9.16038L17.3084 8.13166L18.9687 7.60039L20.1 10.9091ZM15.8727 6.31639L7.46183 9.1833L14.1229 3.86184L15.8727 6.31639ZM2.72729 19.8207V15.0862C3.18754 14.9231 3.60559 14.6594 3.95096 14.3142C4.29633 13.969 4.56031 13.5511 4.72365 13.0909H19.2764C19.4397 13.5513 19.7036 13.9693 20.049 14.3147C20.3943 14.6601 20.8124 14.924 21.2727 15.0873V19.8218C20.8124 19.9851 20.3943 20.2491 20.049 20.5944C19.7036 20.9398 19.4397 21.3579 19.2764 21.8182H4.72583C4.5624 21.3575 4.29816 20.9391 3.9524 20.5935C3.60664 20.2479 3.18809 19.9839 2.72729 19.8207Z" fill="white"/>
</g>
<defs>
<clipPath id="clip0_197_1859">
<rect width="24" height="24" fill="white"/>
</clipPath>
</defs>
</svg>
