<?xml version="1.0"?>
<svg xmlns="http://www.w3.org/2000/svg" xmlns:xlink="http://www.w3.org/1999/xlink" xmlns:svgjs="http://svgjs.com/svgjs" version="1.1" width="512" height="512" x="0" y="0" viewBox="0 0 512 512" style="enable-background:new 0 0 512 512" xml:space="preserve" class=""><g><g xmlns="http://www.w3.org/2000/svg"><g fill="#57a4ff"><path d="m264 48 8-32h-96l8 32z" fill="#ffffff00" data-original="#57a4ff" style="" class=""/><path d="m440 188a19.994 19.994 0 0 0 -20-20h-216a19.994 19.994 0 0 0 -20 20v92h256zm-168 40a12 12 0 0 1 -12 12h-40a12 12 0 0 1 -12-12v-24a12 12 0 0 1 12-12h40a12 12 0 0 1 12 12z" fill="#ffffff00" data-original="#57a4ff" style="" class=""/><path d="m360 344h60a19.994 19.994 0 0 0 20-20v-12h-256v12a19.994 19.994 0 0 0 20 20z" fill="#ffffff00" data-original="#57a4ff" style="" class=""/></g><g fill="#004fac"><path d="m184 472a8 8 0 0 0 8 8h64a8 8 0 0 0 0-16h-64a8 8 0 0 0 -8 8z" fill="#7fbcad" data-original="#004fac" style="" class=""/><path d="m420 160h-52v-124a28.031 28.031 0 0 0 -28-28h-232a28.031 28.031 0 0 0 -28 28v440a28.031 28.031 0 0 0 28 28h232a28.031 28.031 0 0 0 28-28v-124h52a28.031 28.031 0 0 0 28-28v-136a28.031 28.031 0 0 0 -28-28zm-158.25-136-4 16h-67.5l-4-16zm90.25 452a12.01 12.01 0 0 1 -12 12h-232a12.01 12.01 0 0 1 -12-12v-440a12.01 12.01 0 0 1 12-12h61.75l6.49 25.94a8 8 0 0 0 7.76 6.06h80a8 8 0 0 0 7.76-6.06l6.49-25.94h61.75a12.01 12.01 0 0 1 12 12v124h-148a28.031 28.031 0 0 0 -28 28v136a28.031 28.031 0 0 0 28 28h148zm80-152a12.01 12.01 0 0 1 -12 12h-216a12.01 12.01 0 0 1 -12-12v-4h240zm0-20h-240v-16h240zm0-32h-240v-84a12.01 12.01 0 0 1 12-12h216a12.01 12.01 0 0 1 12 12z" fill="#7fbcad" data-original="#004fac" style="" class=""/><path d="m260 184h-40a20.023 20.023 0 0 0 -20 20v24a20.023 20.023 0 0 0 20 20h40a20.023 20.023 0 0 0 20-20v-24a20.023 20.023 0 0 0 -20-20zm0 48h-40a4 4 0 0 1 -4-4v-4h8a8 8 0 0 0 0-16h-8v-4a4 4 0 0 1 4-4h40a4 4 0 0 1 4 4v4h-8a8 8 0 0 0 0 16h8v4a4 4 0 0 1 -4 4z" fill="#7fbcad" data-original="#004fac" style="" class=""/></g></g></g></svg>
