<?xml version="1.0"?>
<svg xmlns="http://www.w3.org/2000/svg" xmlns:xlink="http://www.w3.org/1999/xlink" xmlns:svgjs="http://svgjs.com/svgjs" version="1.1" width="512" height="512" x="0" y="0" viewBox="0 0 512 512" style="enable-background:new 0 0 512 512" xml:space="preserve" class=""><g transform="matrix(-1,0,0,1,512,0)"><g xmlns="http://www.w3.org/2000/svg" id="XMLID_244_"><g id="XMLID_136_"><path id="XMLID_167_" d="m350 452c-2.63 0-5.21 1.069-7.07 2.93-1.86 1.86-2.93 4.44-2.93 7.07s1.07 5.21 2.93 7.069c1.86 1.86 4.44 2.931 7.07 2.931s5.21-1.07 7.07-2.931c1.86-1.859 2.93-4.439 2.93-7.069s-1.07-5.21-2.93-7.07-4.44-2.93-7.07-2.93z" fill="#7fbcad" data-original="#000000" style="" class=""/><path id="XMLID_168_" d="m137.5 302h-83.5c-5.523 0-10 4.478-10 10s4.477 10 10 10h83.5c5.523 0 10-4.478 10-10s-4.477-10-10-10z" fill="#7fbcad" data-original="#000000" style="" class=""/><path id="XMLID_171_" d="m137.5 258h-83.5c-5.523 0-10 4.478-10 10s4.477 10 10 10h83.5c5.523 0 10-4.478 10-10s-4.477-10-10-10z" fill="#7fbcad" data-original="#000000" style="" class=""/><path id="XMLID_175_" d="m228 322c17.645 0 32-14.355 32-32s-14.355-32-32-32h-22c-17.645 0-32 14.355-32 32s14.355 32 32 32zm-34-32c0-6.617 5.383-12 12-12h22c6.617 0 12 5.383 12 12s-5.383 12-12 12h-22c-6.617 0-12-5.383-12-12z" fill="#7fbcad" data-original="#000000" style="" class=""/><path id="XMLID_178_" d="m462 0h-224c-27.57 0-50 22.43-50 50v96h-158c-16.542 0-30 13.458-30 30v160c0 16.542 13.458 30 30 30h158v96c0 27.57 22.43 50 50 50h224c27.57 0 50-22.43 50-50v-412c0-27.57-22.43-50-50-50zm-432 166h244c5.514 0 10 4.486 10 10v14h-264v-14c0-5.514 4.486-10 10-10zm-10 170v-126h264v126c0 5.514-4.486 10-10 10h-244c-5.514 0-10-4.486-10-10zm472 126c0 16.542-13.458 30-30 30h-224c-16.542 0-30-13.458-30-30v-96h24v56c0 5.522 4.477 10 10 10h216c5.523 0 10-4.478 10-10v-120.873c0-5.522-4.477-10-10-10s-10 4.478-10 10v110.873h-196v-46h22c16.542 0 30-13.458 30-30v-160c0-16.542-13.458-30-30-30h-22v-46h196v111.128c0 5.522 4.477 10 10 10s10-4.478 10-10v-121.128c0-5.522-4.477-10-10-10h-216c-5.523 0-10 4.478-10 10v56h-24v-96c0-16.542 13.458-30 30-30h224c16.542 0 30 13.458 30 30z" fill="#7fbcad" data-original="#000000" style="" class=""/><path id="XMLID_185_" d="m458 246.13c-2.64 0-5.21 1.06-7.07 2.93-1.86 1.86-2.93 4.44-2.93 7.07s1.07 5.2 2.93 7.07c1.86 1.859 4.44 2.93 7.07 2.93s5.21-1.07 7.07-2.93 2.93-4.44 2.93-7.07c0-2.64-1.07-5.21-2.93-7.07-1.86-1.871-4.44-2.93-7.07-2.93z" fill="#7fbcad" data-original="#000000" style="" class=""/></g></g></g></svg>
