<?xml version="1.0"?>
<svg xmlns="http://www.w3.org/2000/svg" xmlns:xlink="http://www.w3.org/1999/xlink" xmlns:svgjs="http://svgjs.com/svgjs" version="1.1" width="512" height="512" x="0" y="0" viewBox="0 0 480 480" style="enable-background:new 0 0 512 512" xml:space="preserve"><g transform="matrix(1,0,0,1,45,0)"><path xmlns="http://www.w3.org/2000/svg" d="m288 440c0 13.253906-10.746094 24-24 24h-224c-13.253906 0-24-10.746094-24-24v-400c0-13.253906 10.746094-24 24-24h224c13.253906 0 24 10.746094 24 24v48h16v-48c-.027344-22.082031-17.917969-39.9726562-40-40h-224c-22.082031.0273438-39.9726562 17.917969-40 40v400c.0273438 22.082031 17.917969 39.972656 40 40h224c22.082031-.027344 39.972656-17.917969 40-40v-112h-16zm0 0" fill="#7fbcad" data-original="#000000" style=""/><path xmlns="http://www.w3.org/2000/svg" d="m280 88v-48c0-8.835938-7.164062-16-16-16h-48c-2.121094 0-4.15625.84375-5.65625 2.34375l-13.65625 13.65625h-89.375l-13.65625-13.65625c-1.5-1.5-3.535156-2.34375-5.65625-2.34375h-48c-8.835938 0-16 7.164062-16 16v360c0 8.835938 7.164062 16 16 16h224c8.835938 0 16-7.164062 16-16v-72h-16v72h-224v-360h44.6875l13.65625 13.65625c1.5 1.5 3.535156 2.34375 5.65625 2.34375h96c2.121094 0 4.15625-.84375 5.65625-2.34375l13.65625-13.65625h44.6875v48zm0 0" fill="#7fbcad" data-original="#000000" style=""/><path xmlns="http://www.w3.org/2000/svg" d="m128 432h48v16h-48zm0 0" fill="#7fbcad" data-original="#000000" style=""/><path xmlns="http://www.w3.org/2000/svg" d="m144 344h16v16h-16zm0 0" fill="#7fbcad" data-original="#000000" style=""/><path xmlns="http://www.w3.org/2000/svg" d="m176 344h16v16h-16zm0 0" fill="#7fbcad" data-original="#000000" style=""/><path xmlns="http://www.w3.org/2000/svg" d="m112 344h16v16h-16zm0 0" fill="#7fbcad" data-original="#000000" style=""/><path xmlns="http://www.w3.org/2000/svg" d="m296 200c-4.210938.039062-8.332031 1.203125-11.945312 3.367188-3.644532-2.179688-7.808594-3.34375-12.054688-3.367188-13.253906 0-24 10.746094-24 24s10.746094 24 24 24c4.246094-.023438 8.410156-1.1875 12.054688-3.367188 3.613281 2.164063 7.734374 3.328126 11.945312 3.367188 13.253906 0 24-10.746094 24-24s-10.746094-24-24-24zm-24 32c-4.417969 0-8-3.582031-8-8s3.582031-8 8-8 8 3.582031 8 8-3.582031 8-8 8zm24 0c-.46875-.058594-.929688-.160156-1.375-.304688 1.832031-4.964843 1.832031-10.425781 0-15.390624.445312-.144532.90625-.246094 1.375-.304688 4.417969 0 8 3.582031 8 8s-3.582031 8-8 8zm0 0" fill="#7fbcad" data-original="#000000" style=""/><path xmlns="http://www.w3.org/2000/svg" d="m136 184h48c4.417969 0 8-3.582031 8-8v-32c0-4.417969-3.582031-8-8-8h-48c-4.417969 0-8 3.582031-8 8v32c0 4.417969 3.582031 8 8 8zm8-32h32v16h-32zm0 0" fill="#7fbcad" data-original="#000000" style=""/><path xmlns="http://www.w3.org/2000/svg" d="m304 144h16v32h-16zm0 0" fill="#7fbcad" data-original="#000000" style=""/><path xmlns="http://www.w3.org/2000/svg" d="m272 144h16v32h-16zm0 0" fill="#7fbcad" data-original="#000000" style=""/><path xmlns="http://www.w3.org/2000/svg" d="m240 144h16v32h-16zm0 0" fill="#7fbcad" data-original="#000000" style=""/><path xmlns="http://www.w3.org/2000/svg" d="m128 232h16v16h-16zm0 0" fill="#7fbcad" data-original="#000000" style=""/><path xmlns="http://www.w3.org/2000/svg" d="m160 232h16v16h-16zm0 0" fill="#7fbcad" data-original="#000000" style=""/><path xmlns="http://www.w3.org/2000/svg" d="m192 232h16v16h-16zm0 0" fill="#7fbcad" data-original="#000000" style=""/><path xmlns="http://www.w3.org/2000/svg" d="m128 200h80v16h-80zm0 0" fill="#7fbcad" data-original="#000000" style=""/><path xmlns="http://www.w3.org/2000/svg" d="m360 136h-8v-8c0-13.253906-10.746094-24-24-24h-208c-13.253906 0-24 10.746094-24 24v128c0 13.253906 10.746094 24 24 24h8v8c0 13.253906 10.746094 24 24 24h208c13.253906 0 24-10.746094 24-24v-128c0-13.253906-10.746094-24-24-24zm-248 120v-128c0-4.417969 3.582031-8 8-8h208c4.417969 0 8 3.582031 8 8v128c0 4.417969-3.582031 8-8 8h-208c-4.417969 0-8-3.582031-8-8zm256 32c0 4.417969-3.582031 8-8 8h-208c-4.417969 0-8-3.582031-8-8v-8h184c13.253906 0 24-10.746094 24-24v-104h8c4.417969 0 8 3.582031 8 8zm0 0" fill="#7fbcad" data-original="#000000" style=""/></g></svg>
