<?xml version="1.0"?>
<svg xmlns="http://www.w3.org/2000/svg" xmlns:xlink="http://www.w3.org/1999/xlink" xmlns:svgjs="http://svgjs.com/svgjs" version="1.1" width="512" height="512" x="0" y="0" viewBox="0 0 467.9 467.9" style="enable-background:new 0 0 512 512" xml:space="preserve" class=""><g>
<g xmlns="http://www.w3.org/2000/svg">
	<g>
		<path d="M207.9,36h-67.8c-5.5,0-10,4.5-10,10s4.5,10,10,10h67.8c5.5,0,10-4.5,10-10C217.9,40.5,213.5,36,207.9,36z" fill="#7fbcad" data-original="#000000" style="" class=""/>
	</g>
</g>
<g xmlns="http://www.w3.org/2000/svg">
	<g>
		<path d="M174,380.3c-17.1,0-30.9,13.8-30.9,30.9c0.1,17,13.9,30.9,31,30.9c17,0,30.8-13.8,30.8-30.9S191.1,380.3,174,380.3z     M174,422.2c-6,0-10.9-4.9-10.9-10.9c0.1-6.1,5-10.9,11-10.9s10.8,4.9,10.8,10.9S180,422.2,174,422.2z" fill="#7fbcad" data-original="#000000" style="" class=""/>
	</g>
</g>
<g xmlns="http://www.w3.org/2000/svg">
	<g>
		<path d="M387.8,135H309V41.1C309,18.4,290.7,0,268,0h-0.1H80.2C57.5,0,39,18.4,39,41.1v385.7c0,22.7,18.5,41.2,41.2,41.1h187.6    c22.7,0,41.1-18.3,41.1-41v-0.1V333h78.8c22.8,0,41.2-18.9,41.2-41.7V176.7C429,153.9,410.5,135,387.8,135z M59,41.1    c0-11.7,9.5-21.2,21.2-21.1c0,0,0,0,0.1,0h187.6c11.6,0,21.1,9.4,21.1,21c0,0.1,0,0.1,0,0.2v36.9H59V41.1z M289,426.9    c0,11.6-9.3,21.1-21,21.1c-0.1,0-0.1,0-0.2,0H80.2c-11.7,0-21.2-9.4-21.2-21.1c0,0,0,0,0-0.1V374h230V426.9z M289,354H59V98h230    v37H179.3c-22.8,0-41.3,18.9-41.3,41.7v114.7c0,22.8,18.5,41.7,41.3,41.7H289V354z M409.1,290.7H409c0,11.7-9.5,21.3-21.3,21.3    H179.3c-11.7,0-21.3-9.5-21.3-21.3V176.3c0-11.7,9.5-21.3,21.3-21.3h208.5c11.7,0,21.3,9.5,21.3,21.3V290.7z" fill="#7fbcad" data-original="#000000" style="" class=""/>
	</g>
</g>
<g xmlns="http://www.w3.org/2000/svg">
	<g>
		<path d="M322.6,271H176.7c-5.5,0-10,4.5-10,10s4.5,10,10,10h145.9c5.5,0,10-4.5,10-10S328.1,271,322.6,271z" fill="#7fbcad" data-original="#000000" style="" class=""/>
	</g>
</g>
<g xmlns="http://www.w3.org/2000/svg">
	<g>
		<path d="M249.4,186.1c-9.9-6.1-22.4-6.1-32.3,0c-14.6-8.9-33.6-4.4-42.5,10.2c-8.9,14.6-4.4,33.6,10.2,42.5    c4.8,3,10.3,4.6,16.1,4.6c5.7,0,11.3-1.6,16.2-4.6c14.6,8.9,33.6,4.4,42.5-10.2C268.5,214,264,195,249.4,186.1z M233.3,223.4    c-3.3,0-6.3-1.5-8.4-4c-3.5-4.3-9.8-4.9-14.1-1.5c-0.5,0.4-1,0.9-1.5,1.5c-2.1,2.5-5.2,4-8.4,4c-6,0-10.9-4.9-10.9-10.9    c-0.1-6,4.8-10.9,10.9-10.9c3.3,0,6.4,1.5,8.4,4c1.9,2.3,4.8,3.7,7.8,3.7s5.9-1.4,7.8-3.7c2-2.5,5.1-4,8.4-4    c6,0,10.9,4.9,10.9,10.9S239.3,223.4,233.3,223.4z" fill="#7fbcad" data-original="#000000" style="" class=""/>
	</g>
</g>
<g xmlns="http://www.w3.org/2000/svg">
</g>
<g xmlns="http://www.w3.org/2000/svg">
</g>
<g xmlns="http://www.w3.org/2000/svg">
</g>
<g xmlns="http://www.w3.org/2000/svg">
</g>
<g xmlns="http://www.w3.org/2000/svg">
</g>
<g xmlns="http://www.w3.org/2000/svg">
</g>
<g xmlns="http://www.w3.org/2000/svg">
</g>
<g xmlns="http://www.w3.org/2000/svg">
</g>
<g xmlns="http://www.w3.org/2000/svg">
</g>
<g xmlns="http://www.w3.org/2000/svg">
</g>
<g xmlns="http://www.w3.org/2000/svg">
</g>
<g xmlns="http://www.w3.org/2000/svg">
</g>
<g xmlns="http://www.w3.org/2000/svg">
</g>
<g xmlns="http://www.w3.org/2000/svg">
</g>
<g xmlns="http://www.w3.org/2000/svg">
</g>
</g></svg>
