<svg width="25" height="22" viewBox="0 0 25 22" fill="none" xmlns="http://www.w3.org/2000/svg">
<path d="M23.8691 4.49407L20.5987 7.76438C19.9381 15.4228 13.4795 21.375 5.74999 21.375C4.16187 21.375 2.85265 21.1234 1.85843 20.6269C1.05671 20.2255 0.728587 19.7956 0.646556 19.6731C0.573411 19.5634 0.526 19.4386 0.507868 19.308C0.489735 19.1774 0.501349 19.0444 0.541841 18.919C0.582334 18.7935 0.650657 18.6788 0.741707 18.5834C0.832758 18.4881 0.94418 18.4145 1.06765 18.3683C1.09609 18.3574 3.7189 17.35 5.38468 15.4327C4.46088 14.6731 3.65445 13.7812 2.99156 12.7858C1.63531 10.7722 0.117181 7.27438 0.585306 2.04735C0.600144 1.88126 0.662133 1.72287 0.763973 1.59083C0.865812 1.45878 1.00326 1.35859 1.16013 1.30205C1.31701 1.24551 1.48677 1.23497 1.64943 1.27167C1.8121 1.30838 1.96088 1.3908 2.07827 1.50923C2.11656 1.54751 5.71827 5.12954 10.1217 6.2911V5.62501C10.12 4.92653 10.2581 4.23478 10.5279 3.59049C10.7976 2.9462 11.1935 2.36239 11.6923 1.87344C12.1768 1.38971 12.7532 1.0079 13.3875 0.750539C14.0219 0.493183 14.7014 0.365494 15.3859 0.375007C16.3042 0.384064 17.2045 0.630565 17.9993 1.09054C18.7941 1.55052 19.4564 2.20833 19.9217 3.00001H23.25C23.4232 2.99987 23.5925 3.05111 23.7365 3.14725C23.8805 3.24339 23.9928 3.38009 24.059 3.54007C24.1253 3.70004 24.1427 3.87608 24.1088 4.0459C24.075 4.21572 23.9916 4.3717 23.8691 4.49407Z" fill="#1DA1F2"/>
</svg>
